M48
; DRILL file {KiCad (6.0.9)} date Sun Mar  3 17:49:27 2024
; FORMAT={-:-/ absolute / inch / decimal}
; #@! TF.CreationDate,2024-03-03T17:49:27-08:00
; #@! TF.GenerationSoftware,Kicad,Pcbnew,(6.0.9)
; #@! TF.FileFunction,Plated,1,4,PTH
FMAT,2
INCH
; #@! TA.AperFunction,Plated,PTH,ViaDrill
T1C0.0118
; #@! TA.AperFunction,Plated,PTH,ComponentDrill
T2C0.0394
%
G90
G05
T1
X0.0472Y-1.9213
X0.0512Y-1.7205
X0.2441Y-1.8189
X0.376Y-2.06
X0.4941Y-2.06
X0.6122Y-2.06
X0.6575Y-0.2087
X0.685Y-0.1614
X0.685Y-0.2559
X0.7047Y-1.9646
X0.7736Y-0.5571
X0.8937Y-0.6772
X1.1142Y-1.9587
X1.1142Y-2.1674
X1.1496Y-0.2717
X1.1772Y-0.252
X1.1969Y-1.6811
X1.2165Y-0.1654
X1.2559Y-0.2559
X1.2657Y-1.1654
X1.2657Y-1.2835
X1.2677Y-0.4587
X1.2677Y-0.5787
X1.2677Y-0.876
X1.2677Y-0.9035
X1.2697Y-1.4016
X1.2835Y-0.2087
X1.4016Y-0.4567
X1.4016Y-0.5748
X1.4016Y-1.2835
X1.4035Y-1.4016
X1.4055Y-0.876
X1.4055Y-0.9035
X1.4055Y-1.1654
X1.4331Y-0.876
X1.4331Y-0.9035
X1.4528Y-0.3071
X1.4567Y-0.2579
X1.5135Y-1.1909
X1.5135Y-1.2579
X1.5157Y-0.6732
X1.5197Y-1.9941
X1.5197Y-2.0807
X1.5276Y-1.5118
X1.5276Y-1.5472
X1.5325Y-1.2126
X1.5325Y-1.2382
X1.5354Y-0.1654
X1.5378Y-2.1201
X1.5394Y-1.8976
X1.5472Y-0.6319
X1.5472Y-1.9941
X1.5472Y-2.0807
X1.5512Y-0.7165
X1.5512Y-0.748
X1.5528Y-1.1909
X1.5528Y-1.2579
X1.563Y-1.5118
X1.563Y-1.5472
X1.5669Y-1.935
X1.5669Y-1.9705
X1.5669Y-2.0256
X1.5669Y-2.0531
X1.5709Y-1.872
X1.5748Y-0.2559
X1.5768Y-0.8701
X1.5768Y-0.9055
X1.5935Y-1.7165
X1.5984Y-1.8976
X1.6024Y-0.2087
X1.6024Y-0.4331
X1.6102Y-0.8701
X1.6102Y-0.9055
X1.612Y-0.7931
X1.6142Y-2.1201
X1.624Y-1.8543
X1.6299Y-1.8819
X1.6329Y-1.7165
X1.6358Y-0.6299
X1.6358Y-0.6732
X1.6378Y-0.5787
X1.6437Y-0.502
X1.6467Y-1.7431
X1.6467Y-1.7825
X1.6496Y-1.9311
X1.6496Y-1.9744
X1.6496Y-2.0217
X1.6496Y-2.061
X1.6496Y-2.0965
X1.6575Y-1.002
X1.6575Y-1.0689
X1.6772Y-1.0236
X1.6772Y-1.0492
X1.6969Y-1.002
X1.6969Y-1.0689
X1.7047Y-0.7559
X1.7303Y-0.5787
X1.7431Y-1.753
X1.7439Y-1.8309
X1.7717Y-0.2579
X1.7717Y-0.3071
X1.7717Y-1.1909
X1.7717Y-1.2579
X1.7795Y-0.7165
X1.7815Y-0.7933
X1.7925Y-1.2126
X1.7925Y-1.2382
X1.8071Y-0.7008
X1.815Y-1.1909
X1.815Y-1.2579
X1.8346Y-0.7008
X1.8543Y-0.1654
X1.8937Y-0.2559
X1.9213Y-0.2087
X1.9547Y-0.4764
X1.9606Y-0.5787
X1.9882Y-1.1083
X1.9882Y-1.1673
X2.0096Y-1.125
X2.0096Y-1.1506
X2.0276Y-0.6063
X2.0276Y-0.6555
X2.0276Y-1.1693
X2.0295Y-1.1083
X2.0551Y-0.5236
X2.0807Y-0.4705
X2.0906Y-0.2579
X2.0906Y-0.3071
X2.1299Y-0.7008
X2.1378Y-0.5945
X2.1417Y-0.4961
X2.1516Y-0.4055
X2.1693Y-0.1654
X2.1713Y-0.5866
X2.1772Y-0.4951
X2.189Y-0.3465
X2.2087Y-0.6417
X2.2106Y-0.2539
X2.2165Y-0.3799
X2.2175Y-0.5502
X2.2244Y-1.2008
X2.2343Y-0.6122
X2.2504Y-0.9862
X2.2874Y-0.3878
X2.3012Y-0.4665
X2.3012Y-0.5984
X2.3366Y-1.0496
X2.3366Y-1.1087
X2.3366Y-1.1673
X2.3372Y-0.9943
X2.3504Y-0.5354
X2.3976Y-0.4665
X2.3976Y-0.5079
T2
X0.3331Y-0.0827
X0.3331Y-0.1827
X0.4331Y-0.0827
X0.4331Y-0.1827
X0.5331Y-0.0827
X0.5331Y-0.1827
T0
M30
