G04 #@! TF.GenerationSoftware,KiCad,Pcbnew,(6.0.9)*
G04 #@! TF.CreationDate,2024-03-03T17:49:26-08:00*
G04 #@! TF.ProjectId,RPI5_CFE,52504935-5f43-4464-952e-6b696361645f,rev?*
G04 #@! TF.SameCoordinates,Original*
G04 #@! TF.FileFunction,Copper,L2,Inr*
G04 #@! TF.FilePolarity,Positive*
%FSLAX46Y46*%
G04 Gerber Fmt 4.6, Leading zero omitted, Abs format (unit mm)*
G04 Created by KiCad (PCBNEW (6.0.9)) date 2024-03-03 17:49:26*
%MOMM*%
%LPD*%
G01*
G04 APERTURE LIST*
G04 #@! TA.AperFunction,ComponentPad*
%ADD10R,1.700000X1.700000*%
G04 #@! TD*
G04 #@! TA.AperFunction,ComponentPad*
%ADD11O,1.700000X1.700000*%
G04 #@! TD*
G04 #@! TA.AperFunction,ViaPad*
%ADD12C,0.450000*%
G04 #@! TD*
G04 APERTURE END LIST*
D10*
G04 #@! TO.N,+5V*
G04 #@! TO.C,J5*
X8460000Y-2100000D03*
D11*
G04 #@! TO.N,+3V3_IN*
X8460000Y-4640000D03*
G04 #@! TO.N,+5V*
X11000000Y-2100000D03*
G04 #@! TO.N,SDA_IN*
X11000000Y-4640000D03*
G04 #@! TO.N,GND*
X13540000Y-2100000D03*
G04 #@! TO.N,SCL_IN*
X13540000Y-4640000D03*
G04 #@! TD*
D12*
G04 #@! TO.N,+5V*
X56500000Y-30500000D03*
X39700000Y-39300000D03*
X38800000Y-38400000D03*
X38800000Y-39300000D03*
X45200000Y-18200000D03*
X45250000Y-20150000D03*
X39700000Y-38400000D03*
G04 #@! TO.N,GND*
X43100000Y-25450000D03*
X39400000Y-18200000D03*
X52850000Y-11950000D03*
X41825000Y-44275000D03*
X32250000Y-35600000D03*
X41900000Y-49050000D03*
X39441686Y-30250000D03*
X35600000Y-32600000D03*
X48100000Y-6500000D03*
X38441686Y-31950000D03*
X43100000Y-27150000D03*
X56100000Y-16300000D03*
X40900000Y-22100000D03*
X35700000Y-29600000D03*
X59350000Y-26660000D03*
X52200000Y-13300000D03*
X56150000Y-6450000D03*
X41825000Y-45275000D03*
X43950000Y-14700000D03*
X35600000Y-11600000D03*
X60900000Y-12900000D03*
X40000000Y-6500000D03*
X39400000Y-19000000D03*
X39300000Y-16050000D03*
X46600000Y-17800000D03*
X43300000Y-19200000D03*
X39900000Y-47550000D03*
X31900000Y-6500000D03*
X59350000Y-28160000D03*
X40600000Y-48200000D03*
X32200000Y-14700000D03*
X54400000Y-12600000D03*
X50500000Y-28150000D03*
X57160000Y-25050000D03*
X41900000Y-50150000D03*
X28300000Y-55051250D03*
X32600000Y-5300000D03*
X45000000Y-31950000D03*
X56300000Y-9650000D03*
X39441686Y-31950000D03*
X35600000Y-14600000D03*
X40475000Y-43600000D03*
X40050000Y-22100000D03*
X56750000Y-15550000D03*
X39100000Y-48200000D03*
X40700000Y-11000000D03*
X50500000Y-29650000D03*
X40050000Y-23000000D03*
X40900000Y-23000000D03*
X41900000Y-52350000D03*
X55300000Y-12575000D03*
X51500000Y-29700000D03*
X42100000Y-27150000D03*
X40700000Y-5300000D03*
X38441686Y-30250000D03*
X58450000Y-15200000D03*
X1200000Y-48800000D03*
X59365000Y-25255000D03*
X59350000Y-29650000D03*
X41000000Y-53850000D03*
X59700000Y-13600000D03*
X1300000Y-43700000D03*
X35650000Y-35600000D03*
X41600000Y-14700000D03*
X41900000Y-51350000D03*
X51550000Y-28150000D03*
X46100000Y-30250000D03*
X46100000Y-31950000D03*
X41900000Y-53250000D03*
X32150000Y-29600000D03*
X45900000Y-17800000D03*
X41475000Y-43600000D03*
X45000000Y-30250000D03*
X48800000Y-5300000D03*
X17400000Y-4100000D03*
X44275000Y-44525000D03*
X17400000Y-6500000D03*
X55600000Y-8800000D03*
X32150000Y-32600000D03*
X16700000Y-5300000D03*
X41400000Y-47800000D03*
X32200000Y-11650000D03*
X42100000Y-25450000D03*
G04 #@! TO.N,+3V3*
X28300000Y-49751250D03*
X38600000Y-50650000D03*
X39800000Y-51450000D03*
X38600000Y-52850000D03*
X44293900Y-46506100D03*
X32200000Y-22950000D03*
X39300000Y-50650000D03*
X36400000Y-22250000D03*
X39800000Y-52150000D03*
X35700000Y-22950000D03*
X32200000Y-22250000D03*
X39059300Y-53850000D03*
X35700000Y-22250000D03*
X39800000Y-49150000D03*
X36400000Y-22950000D03*
X39800000Y-50050000D03*
X39300000Y-52850000D03*
G04 #@! TO.N,PCIe_INS*
X38500000Y-17100000D03*
X41550000Y-17100000D03*
G04 #@! TO.N,NRST*
X41750000Y-12750000D03*
G04 #@! TO.N,NVME_PWR*
X30400000Y-42700000D03*
X41250000Y-47100000D03*
G04 #@! TO.N,SWIO*
X49650000Y-12100000D03*
G04 #@! TO.N,PCIe_CLK_P*
X42600000Y-26000000D03*
X51045000Y-28575000D03*
G04 #@! TO.N,PCIe_CLK_N*
X51045000Y-29225000D03*
X42600000Y-26650000D03*
G04 #@! TO.N,PCIe_RX_P*
X45529128Y-30800000D03*
X38925000Y-30800000D03*
G04 #@! TO.N,PCIe_RX_N*
X45529128Y-31450000D03*
X38925000Y-31450000D03*
G04 #@! TO.N,SDA*
X51500000Y-16650000D03*
X51500000Y-15400000D03*
G04 #@! TO.N,PCIE_PWR_EN*
X54100000Y-17800000D03*
X49800000Y-14700000D03*
G04 #@! TO.N,+3V3_STB*
X41550000Y-16000000D03*
X54300000Y-15100000D03*
X12550000Y-52325000D03*
X9550000Y-52325000D03*
X15550000Y-52325000D03*
X40945000Y-20145000D03*
X54650000Y-10300000D03*
G04 #@! TO.N,+3V3_IN*
X60900000Y-11850000D03*
X55100000Y-4200000D03*
X47100000Y-4200000D03*
X58450000Y-11850000D03*
X55150000Y-14900000D03*
X39000000Y-4200000D03*
X30900000Y-4200000D03*
G04 #@! TO.N,SDA_IN*
X29900000Y-6400000D03*
G04 #@! TO.N,SCL_IN*
X53100000Y-6550000D03*
X53100000Y-7800000D03*
X45000000Y-6550000D03*
X29200000Y-6900000D03*
X37000000Y-6550000D03*
X56325000Y-13975000D03*
X45000000Y-7800000D03*
X58100000Y-9850000D03*
X36900000Y-7800000D03*
G04 #@! TO.N,Net-(J2-Pad1)*
X19650000Y-14150000D03*
X17900000Y-49900000D03*
X22700000Y-17200000D03*
X6200000Y-46200000D03*
G04 #@! TD*
G04 #@! TA.AperFunction,Conductor*
G04 #@! TO.N,GND*
G36*
X61988169Y-203018D02*
G01*
X61999641Y-205656D01*
X62010516Y-203195D01*
X62020727Y-203213D01*
X62031830Y-202288D01*
X62208468Y-212208D01*
X62307899Y-217792D01*
X62318922Y-219034D01*
X62532302Y-255288D01*
X62617461Y-269757D01*
X62628285Y-272227D01*
X62919279Y-356062D01*
X62929751Y-359726D01*
X63209530Y-475614D01*
X63219520Y-480425D01*
X63484563Y-626910D01*
X63493948Y-632806D01*
X63740937Y-808054D01*
X63749605Y-814967D01*
X63975407Y-1016757D01*
X63983243Y-1024593D01*
X64185033Y-1250395D01*
X64191946Y-1259063D01*
X64367194Y-1506052D01*
X64373090Y-1515437D01*
X64519572Y-1780474D01*
X64524386Y-1790470D01*
X64569954Y-1900480D01*
X64640273Y-2070246D01*
X64643938Y-2080721D01*
X64681358Y-2210607D01*
X64727773Y-2371715D01*
X64730243Y-2382539D01*
X64778235Y-2664998D01*
X64780966Y-2681074D01*
X64782208Y-2692102D01*
X64797636Y-2966791D01*
X64797684Y-2967651D01*
X64796834Y-2977626D01*
X64796862Y-2977626D01*
X64796842Y-2988777D01*
X64794344Y-2999641D01*
X64796804Y-3010513D01*
X64797059Y-3011638D01*
X64799500Y-3033488D01*
X64799500Y-35165983D01*
X64796982Y-35188169D01*
X64794344Y-35199641D01*
X64796805Y-35210516D01*
X64796787Y-35220727D01*
X64797712Y-35231830D01*
X64782209Y-35507894D01*
X64780966Y-35518922D01*
X64744712Y-35732302D01*
X64730243Y-35817461D01*
X64727773Y-35828285D01*
X64643940Y-36119275D01*
X64640274Y-36129751D01*
X64527076Y-36403038D01*
X64524389Y-36409524D01*
X64519575Y-36419520D01*
X64373090Y-36684563D01*
X64367194Y-36693948D01*
X64191946Y-36940937D01*
X64185033Y-36949605D01*
X63983243Y-37175407D01*
X63975407Y-37183243D01*
X63749605Y-37385033D01*
X63740937Y-37391946D01*
X63493948Y-37567194D01*
X63484563Y-37573090D01*
X63219520Y-37719575D01*
X63209530Y-37724386D01*
X62929751Y-37840274D01*
X62919279Y-37843938D01*
X62725598Y-37899738D01*
X62628285Y-37927773D01*
X62617461Y-37930243D01*
X62532302Y-37944712D01*
X62318922Y-37980966D01*
X62307898Y-37982208D01*
X62032346Y-37997684D01*
X62022374Y-37996834D01*
X62022374Y-37996862D01*
X62011223Y-37996842D01*
X62000359Y-37994344D01*
X61988359Y-37997059D01*
X61966512Y-37999500D01*
X48434281Y-37999500D01*
X48411926Y-37996943D01*
X48411326Y-37996804D01*
X48400718Y-37994345D01*
X48400000Y-37994344D01*
X48395806Y-37995301D01*
X48394893Y-37995376D01*
X48064998Y-38012665D01*
X48062440Y-38013070D01*
X48062432Y-38013071D01*
X47819980Y-38051472D01*
X47733665Y-38065143D01*
X47731161Y-38065814D01*
X47731156Y-38065815D01*
X47518110Y-38122901D01*
X47409634Y-38151967D01*
X47096453Y-38272185D01*
X46797554Y-38424482D01*
X46795382Y-38425893D01*
X46795376Y-38425896D01*
X46518393Y-38605771D01*
X46518385Y-38605777D01*
X46516212Y-38607188D01*
X46255509Y-38818301D01*
X46018301Y-39055509D01*
X45807188Y-39316212D01*
X45805777Y-39318385D01*
X45805771Y-39318393D01*
X45649697Y-39558726D01*
X45624482Y-39597554D01*
X45472185Y-39896453D01*
X45351967Y-40209634D01*
X45265143Y-40533665D01*
X45212665Y-40864998D01*
X45195358Y-41195232D01*
X45194344Y-41199641D01*
X45196805Y-41210515D01*
X45197059Y-41211638D01*
X45199500Y-41233488D01*
X45199500Y-52965983D01*
X45196982Y-52988169D01*
X45194344Y-52999641D01*
X45196805Y-53010516D01*
X45196787Y-53020727D01*
X45197712Y-53031830D01*
X45182209Y-53307894D01*
X45180966Y-53318922D01*
X45177912Y-53336902D01*
X45130243Y-53617461D01*
X45127773Y-53628285D01*
X45061681Y-53857696D01*
X45043940Y-53919275D01*
X45040274Y-53929751D01*
X44928944Y-54198528D01*
X44924389Y-54209524D01*
X44919575Y-54219520D01*
X44773090Y-54484563D01*
X44767194Y-54493948D01*
X44591946Y-54740937D01*
X44585033Y-54749605D01*
X44383243Y-54975407D01*
X44375407Y-54983243D01*
X44149605Y-55185033D01*
X44140937Y-55191946D01*
X43893948Y-55367194D01*
X43884563Y-55373090D01*
X43619520Y-55519575D01*
X43609530Y-55524386D01*
X43329751Y-55640274D01*
X43319279Y-55643938D01*
X43125598Y-55699738D01*
X43028285Y-55727773D01*
X43017461Y-55730243D01*
X42932302Y-55744712D01*
X42718922Y-55780966D01*
X42707898Y-55782208D01*
X42432346Y-55797684D01*
X42422374Y-55796834D01*
X42422374Y-55796862D01*
X42411223Y-55796842D01*
X42400359Y-55794344D01*
X42388359Y-55797059D01*
X42366512Y-55799500D01*
X3034017Y-55799500D01*
X3011831Y-55796982D01*
X3011813Y-55796978D01*
X3000359Y-55794344D01*
X2989484Y-55796805D01*
X2979273Y-55796787D01*
X2968170Y-55797712D01*
X2791532Y-55787792D01*
X2692101Y-55782208D01*
X2681078Y-55780966D01*
X2467698Y-55744712D01*
X2382539Y-55730243D01*
X2371715Y-55727773D01*
X2274402Y-55699738D01*
X2080721Y-55643938D01*
X2070249Y-55640274D01*
X1790470Y-55524386D01*
X1780480Y-55519575D01*
X1515437Y-55373090D01*
X1506052Y-55367194D01*
X1259063Y-55191946D01*
X1250395Y-55185033D01*
X1024593Y-54983243D01*
X1016757Y-54975407D01*
X814967Y-54749605D01*
X808054Y-54740937D01*
X632806Y-54493948D01*
X626910Y-54484563D01*
X480425Y-54219520D01*
X475611Y-54209524D01*
X471057Y-54198528D01*
X359726Y-53929751D01*
X356060Y-53919275D01*
X338320Y-53857696D01*
X272227Y-53628285D01*
X269757Y-53617461D01*
X222088Y-53336902D01*
X219034Y-53318922D01*
X217791Y-53307894D01*
X216027Y-53276470D01*
X202331Y-53032603D01*
X204122Y-53011795D01*
X203747Y-53011752D01*
X204388Y-53006184D01*
X205655Y-53000718D01*
X205656Y-53000000D01*
X204412Y-52994545D01*
X202980Y-52988266D01*
X200500Y-52966248D01*
X200500Y-52485572D01*
X744511Y-52485572D01*
X744675Y-52488553D01*
X744675Y-52488560D01*
X759316Y-52754585D01*
X762735Y-52816712D01*
X820608Y-53143265D01*
X821479Y-53146123D01*
X821480Y-53146127D01*
X856472Y-53260938D01*
X917294Y-53460500D01*
X918499Y-53463226D01*
X918501Y-53463231D01*
X986686Y-53617461D01*
X1051391Y-53763821D01*
X1220957Y-54048836D01*
X1222777Y-54051195D01*
X1222781Y-54051201D01*
X1262914Y-54103220D01*
X1423536Y-54311415D01*
X1656193Y-54547756D01*
X1658521Y-54549611D01*
X1658522Y-54549612D01*
X1724825Y-54602446D01*
X1915558Y-54754434D01*
X1918098Y-54755999D01*
X1918097Y-54755999D01*
X2195336Y-54926891D01*
X2195341Y-54926894D01*
X2197874Y-54928455D01*
X2200582Y-54929704D01*
X2200585Y-54929705D01*
X2299705Y-54975400D01*
X2499051Y-55067300D01*
X2501895Y-55068216D01*
X2501898Y-55068217D01*
X2527371Y-55076420D01*
X2814728Y-55168957D01*
X2817647Y-55169522D01*
X2817648Y-55169522D01*
X3137416Y-55231389D01*
X3137419Y-55231389D01*
X3140332Y-55231953D01*
X3143294Y-55232163D01*
X3143296Y-55232163D01*
X3183860Y-55235035D01*
X3402279Y-55250500D01*
X3583386Y-55250500D01*
X3584840Y-55250412D01*
X3584852Y-55250412D01*
X3828075Y-55235749D01*
X3828079Y-55235748D01*
X3831040Y-55235570D01*
X4157285Y-55175987D01*
X4258718Y-55144491D01*
X4471163Y-55078525D01*
X4471167Y-55078523D01*
X4474009Y-55077641D01*
X4476728Y-55076422D01*
X4476733Y-55076420D01*
X4773905Y-54943178D01*
X4773911Y-54943175D01*
X4776625Y-54941958D01*
X4796978Y-54929705D01*
X5058192Y-54772441D01*
X5058194Y-54772440D01*
X5060748Y-54770902D01*
X5063100Y-54769068D01*
X5063104Y-54769065D01*
X5319903Y-54568792D01*
X5319908Y-54568788D01*
X5322263Y-54566951D01*
X5557382Y-54333060D01*
X5744044Y-54096281D01*
X5760851Y-54074962D01*
X5760856Y-54074955D01*
X5762699Y-54072617D01*
X5777187Y-54048836D01*
X5856115Y-53919275D01*
X5935240Y-53789393D01*
X5964714Y-53724569D01*
X6071270Y-53490212D01*
X6071271Y-53490208D01*
X6072506Y-53487493D01*
X6172509Y-53171288D01*
X6204584Y-53000718D01*
X6233248Y-52848290D01*
X6233248Y-52848287D01*
X6233799Y-52845359D01*
X6255489Y-52514428D01*
X6254582Y-52497936D01*
X6245064Y-52325000D01*
X9119196Y-52325000D01*
X9120415Y-52332696D01*
X9138015Y-52443817D01*
X9140281Y-52458126D01*
X9143817Y-52465065D01*
X9143817Y-52465066D01*
X9190244Y-52556183D01*
X9201472Y-52578220D01*
X9296780Y-52673528D01*
X9303717Y-52677063D01*
X9303719Y-52677064D01*
X9396959Y-52724572D01*
X9416874Y-52734719D01*
X9424568Y-52735938D01*
X9424569Y-52735938D01*
X9542304Y-52754585D01*
X9550000Y-52755804D01*
X9557696Y-52754585D01*
X9675431Y-52735938D01*
X9675432Y-52735938D01*
X9683126Y-52734719D01*
X9703041Y-52724572D01*
X9796281Y-52677064D01*
X9796283Y-52677063D01*
X9803220Y-52673528D01*
X9898528Y-52578220D01*
X9909757Y-52556183D01*
X9956183Y-52465066D01*
X9956183Y-52465065D01*
X9959719Y-52458126D01*
X9961986Y-52443817D01*
X9979585Y-52332696D01*
X9980804Y-52325000D01*
X12119196Y-52325000D01*
X12120415Y-52332696D01*
X12138015Y-52443817D01*
X12140281Y-52458126D01*
X12143817Y-52465065D01*
X12143817Y-52465066D01*
X12190244Y-52556183D01*
X12201472Y-52578220D01*
X12296780Y-52673528D01*
X12303717Y-52677063D01*
X12303719Y-52677064D01*
X12396959Y-52724572D01*
X12416874Y-52734719D01*
X12424568Y-52735938D01*
X12424569Y-52735938D01*
X12542304Y-52754585D01*
X12550000Y-52755804D01*
X12557696Y-52754585D01*
X12675431Y-52735938D01*
X12675432Y-52735938D01*
X12683126Y-52734719D01*
X12703041Y-52724572D01*
X12796281Y-52677064D01*
X12796283Y-52677063D01*
X12803220Y-52673528D01*
X12898528Y-52578220D01*
X12909757Y-52556183D01*
X12956183Y-52465066D01*
X12956183Y-52465065D01*
X12959719Y-52458126D01*
X12961986Y-52443817D01*
X12979585Y-52332696D01*
X12980804Y-52325000D01*
X15119196Y-52325000D01*
X15120415Y-52332696D01*
X15138015Y-52443817D01*
X15140281Y-52458126D01*
X15143817Y-52465065D01*
X15143817Y-52465066D01*
X15190244Y-52556183D01*
X15201472Y-52578220D01*
X15296780Y-52673528D01*
X15303717Y-52677063D01*
X15303719Y-52677064D01*
X15396959Y-52724572D01*
X15416874Y-52734719D01*
X15424568Y-52735938D01*
X15424569Y-52735938D01*
X15542304Y-52754585D01*
X15550000Y-52755804D01*
X15557696Y-52754585D01*
X15675431Y-52735938D01*
X15675432Y-52735938D01*
X15683126Y-52734719D01*
X15703041Y-52724572D01*
X15796281Y-52677064D01*
X15796283Y-52677063D01*
X15803220Y-52673528D01*
X15898528Y-52578220D01*
X15909757Y-52556183D01*
X15945735Y-52485572D01*
X20744511Y-52485572D01*
X20744675Y-52488553D01*
X20744675Y-52488560D01*
X20759316Y-52754585D01*
X20762735Y-52816712D01*
X20820608Y-53143265D01*
X20821479Y-53146123D01*
X20821480Y-53146127D01*
X20856472Y-53260938D01*
X20917294Y-53460500D01*
X20918499Y-53463226D01*
X20918501Y-53463231D01*
X20986686Y-53617461D01*
X21051391Y-53763821D01*
X21220957Y-54048836D01*
X21222777Y-54051195D01*
X21222781Y-54051201D01*
X21262914Y-54103220D01*
X21423536Y-54311415D01*
X21656193Y-54547756D01*
X21658521Y-54549611D01*
X21658522Y-54549612D01*
X21724825Y-54602446D01*
X21915558Y-54754434D01*
X21918098Y-54755999D01*
X21918097Y-54755999D01*
X22195336Y-54926891D01*
X22195341Y-54926894D01*
X22197874Y-54928455D01*
X22200582Y-54929704D01*
X22200585Y-54929705D01*
X22299705Y-54975400D01*
X22499051Y-55067300D01*
X22501895Y-55068216D01*
X22501898Y-55068217D01*
X22527371Y-55076420D01*
X22814728Y-55168957D01*
X22817647Y-55169522D01*
X22817648Y-55169522D01*
X23137416Y-55231389D01*
X23137419Y-55231389D01*
X23140332Y-55231953D01*
X23143294Y-55232163D01*
X23143296Y-55232163D01*
X23183860Y-55235035D01*
X23402279Y-55250500D01*
X23583386Y-55250500D01*
X23584840Y-55250412D01*
X23584852Y-55250412D01*
X23828075Y-55235749D01*
X23828079Y-55235748D01*
X23831040Y-55235570D01*
X24157285Y-55175987D01*
X24258718Y-55144491D01*
X24471163Y-55078525D01*
X24471167Y-55078523D01*
X24474009Y-55077641D01*
X24476728Y-55076422D01*
X24476733Y-55076420D01*
X24773905Y-54943178D01*
X24773911Y-54943175D01*
X24776625Y-54941958D01*
X24796978Y-54929705D01*
X25058192Y-54772441D01*
X25058194Y-54772440D01*
X25060748Y-54770902D01*
X25063100Y-54769068D01*
X25063104Y-54769065D01*
X25319903Y-54568792D01*
X25319908Y-54568788D01*
X25322263Y-54566951D01*
X25557382Y-54333060D01*
X25744044Y-54096281D01*
X25760851Y-54074962D01*
X25760856Y-54074955D01*
X25762699Y-54072617D01*
X25777187Y-54048836D01*
X25856115Y-53919275D01*
X25935240Y-53789393D01*
X25964714Y-53724569D01*
X26071270Y-53490212D01*
X26071271Y-53490208D01*
X26072506Y-53487493D01*
X26172509Y-53171288D01*
X26204584Y-53000718D01*
X26232926Y-52850000D01*
X38169196Y-52850000D01*
X38190281Y-52983126D01*
X38193817Y-52990065D01*
X38193817Y-52990066D01*
X38209440Y-53020727D01*
X38251472Y-53103220D01*
X38346780Y-53198528D01*
X38353717Y-53202063D01*
X38353719Y-53202064D01*
X38414837Y-53233205D01*
X38466874Y-53259719D01*
X38474568Y-53260938D01*
X38474569Y-53260938D01*
X38592304Y-53279585D01*
X38600000Y-53280804D01*
X38607696Y-53279585D01*
X38725431Y-53260938D01*
X38725432Y-53260938D01*
X38733126Y-53259719D01*
X38785163Y-53233205D01*
X38846281Y-53202064D01*
X38846283Y-53202063D01*
X38853220Y-53198528D01*
X38879996Y-53171752D01*
X38934513Y-53143975D01*
X38994945Y-53153546D01*
X39020004Y-53171752D01*
X39046780Y-53198528D01*
X39053717Y-53202063D01*
X39053719Y-53202064D01*
X39114837Y-53233205D01*
X39158102Y-53276470D01*
X39167673Y-53336902D01*
X39139895Y-53391419D01*
X39085379Y-53419196D01*
X39069892Y-53420415D01*
X39066996Y-53420415D01*
X39059300Y-53419196D01*
X39051604Y-53420415D01*
X38933869Y-53439062D01*
X38933868Y-53439062D01*
X38926174Y-53440281D01*
X38919235Y-53443817D01*
X38919234Y-53443817D01*
X38813019Y-53497936D01*
X38813017Y-53497937D01*
X38806080Y-53501472D01*
X38710772Y-53596780D01*
X38649581Y-53716874D01*
X38628496Y-53850000D01*
X38649581Y-53983126D01*
X38653117Y-53990065D01*
X38653117Y-53990066D01*
X38696374Y-54074962D01*
X38710772Y-54103220D01*
X38806080Y-54198528D01*
X38813017Y-54202063D01*
X38813019Y-54202064D01*
X38919234Y-54256183D01*
X38926174Y-54259719D01*
X38933868Y-54260938D01*
X38933869Y-54260938D01*
X39051604Y-54279585D01*
X39059300Y-54280804D01*
X39066996Y-54279585D01*
X39184731Y-54260938D01*
X39184732Y-54260938D01*
X39192426Y-54259719D01*
X39199366Y-54256183D01*
X39305581Y-54202064D01*
X39305583Y-54202063D01*
X39312520Y-54198528D01*
X39407828Y-54103220D01*
X39422227Y-54074962D01*
X39465483Y-53990066D01*
X39465483Y-53990065D01*
X39469019Y-53983126D01*
X39490104Y-53850000D01*
X39469019Y-53716874D01*
X39407828Y-53596780D01*
X39312520Y-53501472D01*
X39305583Y-53497937D01*
X39305581Y-53497936D01*
X39244463Y-53466795D01*
X39201198Y-53423530D01*
X39191627Y-53363098D01*
X39219405Y-53308581D01*
X39273921Y-53280804D01*
X39289408Y-53279585D01*
X39292304Y-53279585D01*
X39300000Y-53280804D01*
X39307696Y-53279585D01*
X39425431Y-53260938D01*
X39425432Y-53260938D01*
X39433126Y-53259719D01*
X39485163Y-53233205D01*
X39546281Y-53202064D01*
X39546283Y-53202063D01*
X39553220Y-53198528D01*
X39648528Y-53103220D01*
X39690561Y-53020727D01*
X39706183Y-52990066D01*
X39706183Y-52990065D01*
X39709719Y-52983126D01*
X39730804Y-52850000D01*
X39709719Y-52716874D01*
X39706182Y-52709932D01*
X39705936Y-52709175D01*
X39705938Y-52647989D01*
X39741904Y-52598490D01*
X39797539Y-52580414D01*
X39800000Y-52580804D01*
X39807696Y-52579585D01*
X39816315Y-52578220D01*
X39860126Y-52571281D01*
X39925431Y-52560938D01*
X39925432Y-52560938D01*
X39933126Y-52559719D01*
X39959160Y-52546454D01*
X40046281Y-52502064D01*
X40046283Y-52502063D01*
X40053220Y-52498528D01*
X40148528Y-52403220D01*
X40174621Y-52352011D01*
X40206183Y-52290066D01*
X40206183Y-52290065D01*
X40209719Y-52283126D01*
X40230804Y-52150000D01*
X40209719Y-52016874D01*
X40189133Y-51976472D01*
X40152064Y-51903719D01*
X40152063Y-51903717D01*
X40148528Y-51896780D01*
X40121752Y-51870004D01*
X40093975Y-51815487D01*
X40103546Y-51755055D01*
X40121752Y-51729996D01*
X40148528Y-51703220D01*
X40209719Y-51583126D01*
X40230804Y-51450000D01*
X40209719Y-51316874D01*
X40168603Y-51236179D01*
X40152064Y-51203719D01*
X40152063Y-51203717D01*
X40148528Y-51196780D01*
X40053220Y-51101472D01*
X40046283Y-51097937D01*
X40046281Y-51097936D01*
X39940066Y-51043817D01*
X39940065Y-51043817D01*
X39933126Y-51040281D01*
X39925432Y-51039062D01*
X39925431Y-51039062D01*
X39807696Y-51020415D01*
X39800000Y-51019196D01*
X39762857Y-51025079D01*
X39702425Y-51015508D01*
X39659161Y-50972243D01*
X39649589Y-50911811D01*
X39659160Y-50882353D01*
X39706183Y-50790066D01*
X39706183Y-50790065D01*
X39709719Y-50783126D01*
X39730804Y-50650000D01*
X39721842Y-50593416D01*
X39731413Y-50532985D01*
X39774678Y-50489720D01*
X39804136Y-50480149D01*
X39925431Y-50460938D01*
X39925432Y-50460938D01*
X39933126Y-50459719D01*
X39989082Y-50431208D01*
X40046281Y-50402064D01*
X40046283Y-50402063D01*
X40053220Y-50398528D01*
X40148528Y-50303220D01*
X40174594Y-50252064D01*
X40206183Y-50190066D01*
X40206183Y-50190065D01*
X40209719Y-50183126D01*
X40213229Y-50160969D01*
X40229585Y-50057696D01*
X40230804Y-50050000D01*
X40212226Y-49932700D01*
X40210938Y-49924569D01*
X40210938Y-49924568D01*
X40209719Y-49916874D01*
X40196697Y-49891316D01*
X40152064Y-49803719D01*
X40152063Y-49803717D01*
X40148528Y-49796780D01*
X40053220Y-49701472D01*
X40046283Y-49697937D01*
X40046281Y-49697936D01*
X40027192Y-49688210D01*
X39983927Y-49644945D01*
X39974356Y-49584513D01*
X40002134Y-49529996D01*
X40027192Y-49511790D01*
X40046281Y-49502064D01*
X40046283Y-49502063D01*
X40053220Y-49498528D01*
X40148528Y-49403220D01*
X40178159Y-49345067D01*
X40206183Y-49290066D01*
X40206183Y-49290065D01*
X40209719Y-49283126D01*
X40230804Y-49150000D01*
X40209719Y-49016874D01*
X40148528Y-48896780D01*
X40053220Y-48801472D01*
X40046283Y-48797937D01*
X40046281Y-48797936D01*
X39940066Y-48743817D01*
X39940065Y-48743817D01*
X39933126Y-48740281D01*
X39925432Y-48739062D01*
X39925431Y-48739062D01*
X39836978Y-48725053D01*
X39800000Y-48719196D01*
X39763022Y-48725053D01*
X39674569Y-48739062D01*
X39674568Y-48739062D01*
X39666874Y-48740281D01*
X39659935Y-48743817D01*
X39659934Y-48743817D01*
X39553719Y-48797936D01*
X39553717Y-48797937D01*
X39546780Y-48801472D01*
X39451472Y-48896780D01*
X39390281Y-49016874D01*
X39369196Y-49150000D01*
X39390281Y-49283126D01*
X39393817Y-49290065D01*
X39393817Y-49290066D01*
X39421842Y-49345067D01*
X39451472Y-49403220D01*
X39546780Y-49498528D01*
X39553717Y-49502063D01*
X39553719Y-49502064D01*
X39572808Y-49511790D01*
X39616073Y-49555055D01*
X39625644Y-49615487D01*
X39597866Y-49670004D01*
X39572808Y-49688210D01*
X39553719Y-49697936D01*
X39553717Y-49697937D01*
X39546780Y-49701472D01*
X39451472Y-49796780D01*
X39447937Y-49803717D01*
X39447936Y-49803719D01*
X39403303Y-49891316D01*
X39390281Y-49916874D01*
X39389062Y-49924568D01*
X39389062Y-49924569D01*
X39387774Y-49932700D01*
X39369196Y-50050000D01*
X39372411Y-50070295D01*
X39378158Y-50106583D01*
X39368587Y-50167015D01*
X39325322Y-50210280D01*
X39295864Y-50219851D01*
X39174569Y-50239062D01*
X39174568Y-50239062D01*
X39166874Y-50240281D01*
X39159935Y-50243817D01*
X39159934Y-50243817D01*
X39053719Y-50297936D01*
X39053717Y-50297937D01*
X39046780Y-50301472D01*
X39020004Y-50328248D01*
X38965487Y-50356025D01*
X38905055Y-50346454D01*
X38879996Y-50328248D01*
X38853220Y-50301472D01*
X38846283Y-50297937D01*
X38846281Y-50297936D01*
X38740066Y-50243817D01*
X38740065Y-50243817D01*
X38733126Y-50240281D01*
X38725432Y-50239062D01*
X38725431Y-50239062D01*
X38607696Y-50220415D01*
X38600000Y-50219196D01*
X38592304Y-50220415D01*
X38474569Y-50239062D01*
X38474568Y-50239062D01*
X38466874Y-50240281D01*
X38459935Y-50243817D01*
X38459934Y-50243817D01*
X38353719Y-50297936D01*
X38353717Y-50297937D01*
X38346780Y-50301472D01*
X38251472Y-50396780D01*
X38247937Y-50403717D01*
X38247936Y-50403719D01*
X38204117Y-50489720D01*
X38190281Y-50516874D01*
X38169196Y-50650000D01*
X38190281Y-50783126D01*
X38193817Y-50790065D01*
X38193817Y-50790066D01*
X38240840Y-50882353D01*
X38251472Y-50903220D01*
X38346780Y-50998528D01*
X38353717Y-51002063D01*
X38353719Y-51002064D01*
X38459934Y-51056183D01*
X38466874Y-51059719D01*
X38474568Y-51060938D01*
X38474569Y-51060938D01*
X38592304Y-51079585D01*
X38600000Y-51080804D01*
X38607696Y-51079585D01*
X38725431Y-51060938D01*
X38725432Y-51060938D01*
X38733126Y-51059719D01*
X38740066Y-51056183D01*
X38846281Y-51002064D01*
X38846283Y-51002063D01*
X38853220Y-50998528D01*
X38879996Y-50971752D01*
X38934513Y-50943975D01*
X38994945Y-50953546D01*
X39020004Y-50971752D01*
X39046780Y-50998528D01*
X39053717Y-51002063D01*
X39053719Y-51002064D01*
X39159934Y-51056183D01*
X39166874Y-51059719D01*
X39174568Y-51060938D01*
X39174569Y-51060938D01*
X39292304Y-51079585D01*
X39300000Y-51080804D01*
X39337143Y-51074921D01*
X39397575Y-51084492D01*
X39440839Y-51127757D01*
X39450411Y-51188189D01*
X39440840Y-51217646D01*
X39390281Y-51316874D01*
X39369196Y-51450000D01*
X39390281Y-51583126D01*
X39451472Y-51703220D01*
X39478248Y-51729996D01*
X39506025Y-51784513D01*
X39496454Y-51844945D01*
X39478248Y-51870004D01*
X39451472Y-51896780D01*
X39447937Y-51903717D01*
X39447936Y-51903719D01*
X39410867Y-51976472D01*
X39390281Y-52016874D01*
X39369196Y-52150000D01*
X39390281Y-52283126D01*
X39393817Y-52290066D01*
X39394064Y-52290825D01*
X39394062Y-52352011D01*
X39358096Y-52401510D01*
X39302461Y-52419586D01*
X39300000Y-52419196D01*
X39292304Y-52420415D01*
X39174569Y-52439062D01*
X39174568Y-52439062D01*
X39166874Y-52440281D01*
X39159935Y-52443817D01*
X39159934Y-52443817D01*
X39053719Y-52497936D01*
X39053717Y-52497937D01*
X39046780Y-52501472D01*
X39020004Y-52528248D01*
X38965487Y-52556025D01*
X38905055Y-52546454D01*
X38879996Y-52528248D01*
X38853220Y-52501472D01*
X38846283Y-52497937D01*
X38846281Y-52497936D01*
X38740066Y-52443817D01*
X38740065Y-52443817D01*
X38733126Y-52440281D01*
X38725432Y-52439062D01*
X38725431Y-52439062D01*
X38607696Y-52420415D01*
X38600000Y-52419196D01*
X38592304Y-52420415D01*
X38474569Y-52439062D01*
X38474568Y-52439062D01*
X38466874Y-52440281D01*
X38459935Y-52443817D01*
X38459934Y-52443817D01*
X38353719Y-52497936D01*
X38353717Y-52497937D01*
X38346780Y-52501472D01*
X38251472Y-52596780D01*
X38247937Y-52603717D01*
X38247936Y-52603719D01*
X38215172Y-52668022D01*
X38190281Y-52716874D01*
X38189062Y-52724568D01*
X38189062Y-52724569D01*
X38184308Y-52754585D01*
X38169196Y-52850000D01*
X26232926Y-52850000D01*
X26233248Y-52848290D01*
X26233248Y-52848287D01*
X26233799Y-52845359D01*
X26255489Y-52514428D01*
X26254582Y-52497936D01*
X26237429Y-52186265D01*
X26237429Y-52186262D01*
X26237265Y-52183288D01*
X26179392Y-51856735D01*
X26162101Y-51800000D01*
X26083577Y-51542359D01*
X26082706Y-51539500D01*
X26069571Y-51509788D01*
X25949817Y-51238911D01*
X25949816Y-51238908D01*
X25948609Y-51236179D01*
X25779043Y-50951164D01*
X25777223Y-50948805D01*
X25777219Y-50948799D01*
X25578283Y-50690943D01*
X25576464Y-50688585D01*
X25353493Y-50462083D01*
X25345896Y-50454366D01*
X25345895Y-50454365D01*
X25343807Y-50452244D01*
X25317409Y-50431208D01*
X25086776Y-50247426D01*
X25084442Y-50245566D01*
X24979428Y-50180835D01*
X24804664Y-50073109D01*
X24804659Y-50073106D01*
X24802126Y-50071545D01*
X24776166Y-50059577D01*
X24668573Y-50009976D01*
X24500949Y-49932700D01*
X24498105Y-49931784D01*
X24498102Y-49931783D01*
X24375507Y-49892304D01*
X24185272Y-49831043D01*
X24153506Y-49824897D01*
X23862584Y-49768611D01*
X23862581Y-49768611D01*
X23859668Y-49768047D01*
X23856706Y-49767837D01*
X23856704Y-49767837D01*
X23787208Y-49762917D01*
X23622436Y-49751250D01*
X27869196Y-49751250D01*
X27871368Y-49764965D01*
X27880636Y-49823477D01*
X27890281Y-49884376D01*
X27893817Y-49891315D01*
X27893817Y-49891316D01*
X27906840Y-49916874D01*
X27951472Y-50004470D01*
X28046780Y-50099778D01*
X28053717Y-50103313D01*
X28053719Y-50103314D01*
X28159934Y-50157433D01*
X28166874Y-50160969D01*
X28174568Y-50162188D01*
X28174569Y-50162188D01*
X28292304Y-50180835D01*
X28300000Y-50182054D01*
X28307696Y-50180835D01*
X28425431Y-50162188D01*
X28425432Y-50162188D01*
X28433126Y-50160969D01*
X28440066Y-50157433D01*
X28546281Y-50103314D01*
X28546283Y-50103313D01*
X28553220Y-50099778D01*
X28648528Y-50004470D01*
X28693161Y-49916874D01*
X28706183Y-49891316D01*
X28706183Y-49891315D01*
X28709719Y-49884376D01*
X28719365Y-49823477D01*
X28728632Y-49764965D01*
X28730804Y-49751250D01*
X28722360Y-49697936D01*
X28710938Y-49625819D01*
X28710938Y-49625818D01*
X28709719Y-49618124D01*
X28706183Y-49611184D01*
X28652064Y-49504969D01*
X28652063Y-49504967D01*
X28648528Y-49498030D01*
X28553220Y-49402722D01*
X28546283Y-49399187D01*
X28546281Y-49399186D01*
X28440066Y-49345067D01*
X28440065Y-49345067D01*
X28433126Y-49341531D01*
X28425432Y-49340312D01*
X28425431Y-49340312D01*
X28307696Y-49321665D01*
X28300000Y-49320446D01*
X28292304Y-49321665D01*
X28174569Y-49340312D01*
X28174568Y-49340312D01*
X28166874Y-49341531D01*
X28159935Y-49345067D01*
X28159934Y-49345067D01*
X28053719Y-49399186D01*
X28053717Y-49399187D01*
X28046780Y-49402722D01*
X27951472Y-49498030D01*
X27947937Y-49504967D01*
X27947936Y-49504969D01*
X27893817Y-49611184D01*
X27890281Y-49618124D01*
X27889062Y-49625818D01*
X27889062Y-49625819D01*
X27877640Y-49697936D01*
X27869196Y-49751250D01*
X23622436Y-49751250D01*
X23597721Y-49749500D01*
X23416614Y-49749500D01*
X23415160Y-49749588D01*
X23415148Y-49749588D01*
X23171925Y-49764251D01*
X23171921Y-49764252D01*
X23168960Y-49764430D01*
X22842715Y-49824013D01*
X22839868Y-49824897D01*
X22528837Y-49921475D01*
X22528833Y-49921477D01*
X22525991Y-49922359D01*
X22523272Y-49923578D01*
X22523267Y-49923580D01*
X22226095Y-50056822D01*
X22226089Y-50056825D01*
X22223375Y-50058042D01*
X22220828Y-50059576D01*
X22220825Y-50059577D01*
X21955699Y-50219196D01*
X21939252Y-50229098D01*
X21936900Y-50230932D01*
X21936896Y-50230935D01*
X21680097Y-50431208D01*
X21680092Y-50431212D01*
X21677737Y-50433049D01*
X21442618Y-50666940D01*
X21423696Y-50690943D01*
X21239149Y-50925038D01*
X21239144Y-50925045D01*
X21237301Y-50927383D01*
X21235753Y-50929925D01*
X21235751Y-50929927D01*
X21193959Y-50998528D01*
X21064760Y-51210607D01*
X20927494Y-51512507D01*
X20827491Y-51828712D01*
X20766201Y-52154641D01*
X20744511Y-52485572D01*
X15945735Y-52485572D01*
X15956183Y-52465066D01*
X15956183Y-52465065D01*
X15959719Y-52458126D01*
X15961986Y-52443817D01*
X15979585Y-52332696D01*
X15980804Y-52325000D01*
X15959719Y-52191874D01*
X15953850Y-52180356D01*
X15902064Y-52078719D01*
X15902063Y-52078717D01*
X15898528Y-52071780D01*
X15803220Y-51976472D01*
X15796283Y-51972937D01*
X15796281Y-51972936D01*
X15690066Y-51918817D01*
X15690065Y-51918817D01*
X15683126Y-51915281D01*
X15675432Y-51914062D01*
X15675431Y-51914062D01*
X15586978Y-51900053D01*
X15550000Y-51894196D01*
X15513022Y-51900053D01*
X15424569Y-51914062D01*
X15424568Y-51914062D01*
X15416874Y-51915281D01*
X15409935Y-51918817D01*
X15409934Y-51918817D01*
X15303719Y-51972936D01*
X15303717Y-51972937D01*
X15296780Y-51976472D01*
X15201472Y-52071780D01*
X15197937Y-52078717D01*
X15197936Y-52078719D01*
X15146150Y-52180356D01*
X15140281Y-52191874D01*
X15119196Y-52325000D01*
X12980804Y-52325000D01*
X12959719Y-52191874D01*
X12953850Y-52180356D01*
X12902064Y-52078719D01*
X12902063Y-52078717D01*
X12898528Y-52071780D01*
X12803220Y-51976472D01*
X12796283Y-51972937D01*
X12796281Y-51972936D01*
X12690066Y-51918817D01*
X12690065Y-51918817D01*
X12683126Y-51915281D01*
X12675432Y-51914062D01*
X12675431Y-51914062D01*
X12586978Y-51900053D01*
X12550000Y-51894196D01*
X12513022Y-51900053D01*
X12424569Y-51914062D01*
X12424568Y-51914062D01*
X12416874Y-51915281D01*
X12409935Y-51918817D01*
X12409934Y-51918817D01*
X12303719Y-51972936D01*
X12303717Y-51972937D01*
X12296780Y-51976472D01*
X12201472Y-52071780D01*
X12197937Y-52078717D01*
X12197936Y-52078719D01*
X12146150Y-52180356D01*
X12140281Y-52191874D01*
X12119196Y-52325000D01*
X9980804Y-52325000D01*
X9959719Y-52191874D01*
X9953850Y-52180356D01*
X9902064Y-52078719D01*
X9902063Y-52078717D01*
X9898528Y-52071780D01*
X9803220Y-51976472D01*
X9796283Y-51972937D01*
X9796281Y-51972936D01*
X9690066Y-51918817D01*
X9690065Y-51918817D01*
X9683126Y-51915281D01*
X9675432Y-51914062D01*
X9675431Y-51914062D01*
X9586978Y-51900053D01*
X9550000Y-51894196D01*
X9513022Y-51900053D01*
X9424569Y-51914062D01*
X9424568Y-51914062D01*
X9416874Y-51915281D01*
X9409935Y-51918817D01*
X9409934Y-51918817D01*
X9303719Y-51972936D01*
X9303717Y-51972937D01*
X9296780Y-51976472D01*
X9201472Y-52071780D01*
X9197937Y-52078717D01*
X9197936Y-52078719D01*
X9146150Y-52180356D01*
X9140281Y-52191874D01*
X9119196Y-52325000D01*
X6245064Y-52325000D01*
X6237429Y-52186265D01*
X6237429Y-52186262D01*
X6237265Y-52183288D01*
X6179392Y-51856735D01*
X6162101Y-51800000D01*
X6083577Y-51542359D01*
X6082706Y-51539500D01*
X6069571Y-51509788D01*
X5949817Y-51238911D01*
X5949816Y-51238908D01*
X5948609Y-51236179D01*
X5779043Y-50951164D01*
X5777223Y-50948805D01*
X5777219Y-50948799D01*
X5578283Y-50690943D01*
X5576464Y-50688585D01*
X5353493Y-50462083D01*
X5345896Y-50454366D01*
X5345895Y-50454365D01*
X5343807Y-50452244D01*
X5317409Y-50431208D01*
X5086776Y-50247426D01*
X5084442Y-50245566D01*
X4979428Y-50180835D01*
X4804664Y-50073109D01*
X4804659Y-50073106D01*
X4802126Y-50071545D01*
X4776166Y-50059577D01*
X4668573Y-50009976D01*
X4500949Y-49932700D01*
X4498105Y-49931784D01*
X4498102Y-49931783D01*
X4399406Y-49900000D01*
X17469196Y-49900000D01*
X17490281Y-50033126D01*
X17493817Y-50040065D01*
X17493817Y-50040066D01*
X17526044Y-50103314D01*
X17551472Y-50153220D01*
X17646780Y-50248528D01*
X17653717Y-50252063D01*
X17653719Y-50252064D01*
X17750688Y-50301472D01*
X17766874Y-50309719D01*
X17774568Y-50310938D01*
X17774569Y-50310938D01*
X17892304Y-50329585D01*
X17900000Y-50330804D01*
X17907696Y-50329585D01*
X18025431Y-50310938D01*
X18025432Y-50310938D01*
X18033126Y-50309719D01*
X18049312Y-50301472D01*
X18146281Y-50252064D01*
X18146283Y-50252063D01*
X18153220Y-50248528D01*
X18248528Y-50153220D01*
X18273957Y-50103314D01*
X18306183Y-50040066D01*
X18306183Y-50040065D01*
X18309719Y-50033126D01*
X18330804Y-49900000D01*
X18309719Y-49766874D01*
X18306183Y-49759934D01*
X18252064Y-49653719D01*
X18252063Y-49653717D01*
X18248528Y-49646780D01*
X18153220Y-49551472D01*
X18146283Y-49547937D01*
X18146281Y-49547936D01*
X18040066Y-49493817D01*
X18040065Y-49493817D01*
X18033126Y-49490281D01*
X18025432Y-49489062D01*
X18025431Y-49489062D01*
X17907696Y-49470415D01*
X17900000Y-49469196D01*
X17892304Y-49470415D01*
X17774569Y-49489062D01*
X17774568Y-49489062D01*
X17766874Y-49490281D01*
X17759935Y-49493817D01*
X17759934Y-49493817D01*
X17653719Y-49547936D01*
X17653717Y-49547937D01*
X17646780Y-49551472D01*
X17551472Y-49646780D01*
X17547937Y-49653717D01*
X17547936Y-49653719D01*
X17493817Y-49759934D01*
X17490281Y-49766874D01*
X17469196Y-49900000D01*
X4399406Y-49900000D01*
X4375507Y-49892304D01*
X4185272Y-49831043D01*
X4153506Y-49824897D01*
X3862584Y-49768611D01*
X3862581Y-49768611D01*
X3859668Y-49768047D01*
X3856706Y-49767837D01*
X3856704Y-49767837D01*
X3787208Y-49762917D01*
X3597721Y-49749500D01*
X3416614Y-49749500D01*
X3415160Y-49749588D01*
X3415148Y-49749588D01*
X3171925Y-49764251D01*
X3171921Y-49764252D01*
X3168960Y-49764430D01*
X2842715Y-49824013D01*
X2839868Y-49824897D01*
X2528837Y-49921475D01*
X2528833Y-49921477D01*
X2525991Y-49922359D01*
X2523272Y-49923578D01*
X2523267Y-49923580D01*
X2226095Y-50056822D01*
X2226089Y-50056825D01*
X2223375Y-50058042D01*
X2220828Y-50059576D01*
X2220825Y-50059577D01*
X1955699Y-50219196D01*
X1939252Y-50229098D01*
X1936900Y-50230932D01*
X1936896Y-50230935D01*
X1680097Y-50431208D01*
X1680092Y-50431212D01*
X1677737Y-50433049D01*
X1442618Y-50666940D01*
X1423696Y-50690943D01*
X1239149Y-50925038D01*
X1239144Y-50925045D01*
X1237301Y-50927383D01*
X1235753Y-50929925D01*
X1235751Y-50929927D01*
X1193959Y-50998528D01*
X1064760Y-51210607D01*
X927494Y-51512507D01*
X827491Y-51828712D01*
X766201Y-52154641D01*
X744511Y-52485572D01*
X200500Y-52485572D01*
X200500Y-48924058D01*
X219407Y-48865867D01*
X229496Y-48854054D01*
X1063032Y-48020518D01*
X1068782Y-48015386D01*
X1078024Y-48010948D01*
X1096244Y-47988165D01*
X1103557Y-47979993D01*
X1107758Y-47975792D01*
X1110717Y-47971085D01*
X1110722Y-47971078D01*
X1117213Y-47961945D01*
X1128192Y-47948216D01*
X1135156Y-47939508D01*
X1137499Y-47929322D01*
X1138158Y-47928131D01*
X1138536Y-47926823D01*
X1144099Y-47917972D01*
X1147326Y-47889428D01*
X1149216Y-47878367D01*
X1149245Y-47878240D01*
X1149245Y-47878239D01*
X1150500Y-47872781D01*
X1150500Y-47866920D01*
X1151127Y-47855800D01*
X1153122Y-47838155D01*
X1153122Y-47838153D01*
X1154374Y-47827076D01*
X1150948Y-47817266D01*
X1150500Y-47809247D01*
X1150500Y-47100000D01*
X40819196Y-47100000D01*
X40840281Y-47233126D01*
X40901472Y-47353220D01*
X40996780Y-47448528D01*
X41003717Y-47452063D01*
X41003719Y-47452064D01*
X41109934Y-47506183D01*
X41116874Y-47509719D01*
X41124568Y-47510938D01*
X41124569Y-47510938D01*
X41242304Y-47529585D01*
X41250000Y-47530804D01*
X41257696Y-47529585D01*
X41375431Y-47510938D01*
X41375432Y-47510938D01*
X41383126Y-47509719D01*
X41390066Y-47506183D01*
X41496281Y-47452064D01*
X41496283Y-47452063D01*
X41503220Y-47448528D01*
X41598528Y-47353220D01*
X41659719Y-47233126D01*
X41680804Y-47100000D01*
X41659719Y-46966874D01*
X41644449Y-46936904D01*
X41602064Y-46853719D01*
X41602063Y-46853717D01*
X41598528Y-46846780D01*
X41503220Y-46751472D01*
X41496283Y-46747937D01*
X41496281Y-46747936D01*
X41390066Y-46693817D01*
X41390065Y-46693817D01*
X41383126Y-46690281D01*
X41375432Y-46689062D01*
X41375431Y-46689062D01*
X41257696Y-46670415D01*
X41250000Y-46669196D01*
X41242304Y-46670415D01*
X41124569Y-46689062D01*
X41124568Y-46689062D01*
X41116874Y-46690281D01*
X41109935Y-46693817D01*
X41109934Y-46693817D01*
X41003719Y-46747936D01*
X41003717Y-46747937D01*
X40996780Y-46751472D01*
X40901472Y-46846780D01*
X40897937Y-46853717D01*
X40897936Y-46853719D01*
X40855551Y-46936904D01*
X40840281Y-46966874D01*
X40819196Y-47100000D01*
X1150500Y-47100000D01*
X1150500Y-46762057D01*
X1169407Y-46703866D01*
X1218907Y-46667902D01*
X1280093Y-46667902D01*
X1309768Y-46683515D01*
X1334767Y-46702698D01*
X1340756Y-46705179D01*
X1340760Y-46705181D01*
X1465810Y-46756978D01*
X1474764Y-46760687D01*
X1587280Y-46775500D01*
X1662720Y-46775500D01*
X1775236Y-46760687D01*
X1784190Y-46756978D01*
X1909240Y-46705181D01*
X1909244Y-46705179D01*
X1915233Y-46702698D01*
X1920375Y-46698752D01*
X1920379Y-46698750D01*
X2030302Y-46614402D01*
X2035451Y-46610451D01*
X2080253Y-46552064D01*
X2123750Y-46495379D01*
X2123752Y-46495375D01*
X2127698Y-46490233D01*
X2130179Y-46484244D01*
X2130181Y-46484240D01*
X2183203Y-46356233D01*
X2185687Y-46350236D01*
X2205466Y-46200000D01*
X3794534Y-46200000D01*
X3814313Y-46350236D01*
X3816797Y-46356233D01*
X3869819Y-46484240D01*
X3869821Y-46484244D01*
X3872302Y-46490233D01*
X3876248Y-46495375D01*
X3876250Y-46495379D01*
X3919747Y-46552064D01*
X3964549Y-46610451D01*
X3969698Y-46614402D01*
X4079621Y-46698750D01*
X4079625Y-46698752D01*
X4084767Y-46702698D01*
X4090756Y-46705179D01*
X4090760Y-46705181D01*
X4215810Y-46756978D01*
X4224764Y-46760687D01*
X4337280Y-46775500D01*
X4412720Y-46775500D01*
X4525236Y-46760687D01*
X4534190Y-46756978D01*
X4659240Y-46705181D01*
X4659244Y-46705179D01*
X4665233Y-46702698D01*
X4670375Y-46698752D01*
X4670379Y-46698750D01*
X4780302Y-46614402D01*
X4785451Y-46610451D01*
X4830253Y-46552064D01*
X4873750Y-46495379D01*
X4873752Y-46495375D01*
X4877698Y-46490233D01*
X4880179Y-46484244D01*
X4880181Y-46484240D01*
X4933203Y-46356233D01*
X4935687Y-46350236D01*
X4955466Y-46200000D01*
X5769196Y-46200000D01*
X5790281Y-46333126D01*
X5793817Y-46340065D01*
X5793817Y-46340066D01*
X5810585Y-46372974D01*
X5851472Y-46453220D01*
X5946780Y-46548528D01*
X5953717Y-46552063D01*
X5953719Y-46552064D01*
X6058205Y-46605302D01*
X6066874Y-46609719D01*
X6074568Y-46610938D01*
X6074569Y-46610938D01*
X6192304Y-46629585D01*
X6200000Y-46630804D01*
X6207696Y-46629585D01*
X6325431Y-46610938D01*
X6325432Y-46610938D01*
X6333126Y-46609719D01*
X6341795Y-46605302D01*
X6446281Y-46552064D01*
X6446283Y-46552063D01*
X6453220Y-46548528D01*
X6495648Y-46506100D01*
X43863096Y-46506100D01*
X43864315Y-46513796D01*
X43879701Y-46610938D01*
X43884181Y-46639226D01*
X43887717Y-46646165D01*
X43887717Y-46646166D01*
X43939572Y-46747936D01*
X43945372Y-46759320D01*
X44040680Y-46854628D01*
X44047617Y-46858163D01*
X44047619Y-46858164D01*
X44153834Y-46912283D01*
X44160774Y-46915819D01*
X44168468Y-46917038D01*
X44168469Y-46917038D01*
X44286204Y-46935685D01*
X44293900Y-46936904D01*
X44301596Y-46935685D01*
X44419331Y-46917038D01*
X44419332Y-46917038D01*
X44427026Y-46915819D01*
X44433966Y-46912283D01*
X44540181Y-46858164D01*
X44540183Y-46858163D01*
X44547120Y-46854628D01*
X44642428Y-46759320D01*
X44648229Y-46747936D01*
X44700083Y-46646166D01*
X44700083Y-46646165D01*
X44703619Y-46639226D01*
X44708100Y-46610938D01*
X44723485Y-46513796D01*
X44724704Y-46506100D01*
X44703619Y-46372974D01*
X44695089Y-46356233D01*
X44645964Y-46259819D01*
X44645963Y-46259817D01*
X44642428Y-46252880D01*
X44547120Y-46157572D01*
X44540183Y-46154037D01*
X44540181Y-46154036D01*
X44433966Y-46099917D01*
X44433965Y-46099917D01*
X44427026Y-46096381D01*
X44419332Y-46095162D01*
X44419331Y-46095162D01*
X44301596Y-46076515D01*
X44293900Y-46075296D01*
X44286204Y-46076515D01*
X44168469Y-46095162D01*
X44168468Y-46095162D01*
X44160774Y-46096381D01*
X44153835Y-46099917D01*
X44153834Y-46099917D01*
X44047619Y-46154036D01*
X44047617Y-46154037D01*
X44040680Y-46157572D01*
X43945372Y-46252880D01*
X43941837Y-46259817D01*
X43941836Y-46259819D01*
X43892711Y-46356233D01*
X43884181Y-46372974D01*
X43863096Y-46506100D01*
X6495648Y-46506100D01*
X6548528Y-46453220D01*
X6589416Y-46372974D01*
X6606183Y-46340066D01*
X6606183Y-46340065D01*
X6609719Y-46333126D01*
X6630804Y-46200000D01*
X6623524Y-46154036D01*
X6610938Y-46074569D01*
X6610938Y-46074568D01*
X6609719Y-46066874D01*
X6601001Y-46049764D01*
X6552064Y-45953719D01*
X6552063Y-45953717D01*
X6548528Y-45946780D01*
X6453220Y-45851472D01*
X6446283Y-45847937D01*
X6446281Y-45847936D01*
X6340066Y-45793817D01*
X6340065Y-45793817D01*
X6333126Y-45790281D01*
X6325432Y-45789062D01*
X6325431Y-45789062D01*
X6207696Y-45770415D01*
X6200000Y-45769196D01*
X6192304Y-45770415D01*
X6074569Y-45789062D01*
X6074568Y-45789062D01*
X6066874Y-45790281D01*
X6059935Y-45793817D01*
X6059934Y-45793817D01*
X5953719Y-45847936D01*
X5953717Y-45847937D01*
X5946780Y-45851472D01*
X5851472Y-45946780D01*
X5847937Y-45953717D01*
X5847936Y-45953719D01*
X5798999Y-46049764D01*
X5790281Y-46066874D01*
X5789062Y-46074568D01*
X5789062Y-46074569D01*
X5776476Y-46154036D01*
X5769196Y-46200000D01*
X4955466Y-46200000D01*
X4935687Y-46049764D01*
X4895904Y-45953719D01*
X4880181Y-45915760D01*
X4880179Y-45915756D01*
X4877698Y-45909767D01*
X4873752Y-45904625D01*
X4873750Y-45904621D01*
X4789402Y-45794698D01*
X4785451Y-45789549D01*
X4694204Y-45719532D01*
X4670379Y-45701250D01*
X4670375Y-45701248D01*
X4665233Y-45697302D01*
X4659244Y-45694821D01*
X4659240Y-45694819D01*
X4531233Y-45641797D01*
X4525236Y-45639313D01*
X4412720Y-45624500D01*
X4337280Y-45624500D01*
X4224764Y-45639313D01*
X4218767Y-45641797D01*
X4090760Y-45694819D01*
X4090756Y-45694821D01*
X4084767Y-45697302D01*
X4079625Y-45701248D01*
X4079621Y-45701250D01*
X4055796Y-45719532D01*
X3964549Y-45789549D01*
X3960598Y-45794698D01*
X3876250Y-45904621D01*
X3876248Y-45904625D01*
X3872302Y-45909767D01*
X3869821Y-45915756D01*
X3869819Y-45915760D01*
X3854096Y-45953719D01*
X3814313Y-46049764D01*
X3794534Y-46200000D01*
X2205466Y-46200000D01*
X2185687Y-46049764D01*
X2145904Y-45953719D01*
X2130181Y-45915760D01*
X2130179Y-45915756D01*
X2127698Y-45909767D01*
X2123752Y-45904625D01*
X2123750Y-45904621D01*
X2039402Y-45794698D01*
X2035451Y-45789549D01*
X1944204Y-45719532D01*
X1920379Y-45701250D01*
X1920375Y-45701248D01*
X1915233Y-45697302D01*
X1909244Y-45694821D01*
X1909240Y-45694819D01*
X1781233Y-45641797D01*
X1775236Y-45639313D01*
X1662720Y-45624500D01*
X1587280Y-45624500D01*
X1474764Y-45639313D01*
X1468767Y-45641797D01*
X1340760Y-45694819D01*
X1340756Y-45694821D01*
X1334767Y-45697302D01*
X1329621Y-45701251D01*
X1309769Y-45716484D01*
X1252093Y-45736909D01*
X1193427Y-45719532D01*
X1156179Y-45670991D01*
X1150500Y-45637943D01*
X1150500Y-44590653D01*
X1150937Y-44582955D01*
X1154334Y-44573281D01*
X1151107Y-44544282D01*
X1150500Y-44533334D01*
X1150500Y-44527397D01*
X1149264Y-44521980D01*
X1149263Y-44521970D01*
X1147394Y-44510921D01*
X1145450Y-44493444D01*
X1145449Y-44493442D01*
X1144217Y-44482367D01*
X1138672Y-44473509D01*
X1138295Y-44472199D01*
X1137637Y-44471005D01*
X1135312Y-44460815D01*
X1117404Y-44438342D01*
X1110925Y-44429190D01*
X1107884Y-44424334D01*
X1103738Y-44420188D01*
X1096318Y-44411880D01*
X1085255Y-44397997D01*
X1085253Y-44397996D01*
X1078305Y-44389276D01*
X1068946Y-44384762D01*
X1062960Y-44379410D01*
X229496Y-43545946D01*
X201719Y-43491429D01*
X200500Y-43475942D01*
X200500Y-42700000D01*
X29969196Y-42700000D01*
X29990281Y-42833126D01*
X30051472Y-42953220D01*
X30146780Y-43048528D01*
X30153717Y-43052063D01*
X30153719Y-43052064D01*
X30259934Y-43106183D01*
X30266874Y-43109719D01*
X30274568Y-43110938D01*
X30274569Y-43110938D01*
X30392304Y-43129585D01*
X30400000Y-43130804D01*
X30407696Y-43129585D01*
X30525431Y-43110938D01*
X30525432Y-43110938D01*
X30533126Y-43109719D01*
X30540066Y-43106183D01*
X30646281Y-43052064D01*
X30646283Y-43052063D01*
X30653220Y-43048528D01*
X30748528Y-42953220D01*
X30809719Y-42833126D01*
X30830804Y-42700000D01*
X30809719Y-42566874D01*
X30748528Y-42446780D01*
X30653220Y-42351472D01*
X30646283Y-42347937D01*
X30646281Y-42347936D01*
X30540066Y-42293817D01*
X30540065Y-42293817D01*
X30533126Y-42290281D01*
X30525432Y-42289062D01*
X30525431Y-42289062D01*
X30407696Y-42270415D01*
X30400000Y-42269196D01*
X30392304Y-42270415D01*
X30274569Y-42289062D01*
X30274568Y-42289062D01*
X30266874Y-42290281D01*
X30259935Y-42293817D01*
X30259934Y-42293817D01*
X30153719Y-42347936D01*
X30153717Y-42347937D01*
X30146780Y-42351472D01*
X30051472Y-42446780D01*
X29990281Y-42566874D01*
X29969196Y-42700000D01*
X200500Y-42700000D01*
X200500Y-39300000D01*
X38369196Y-39300000D01*
X38390281Y-39433126D01*
X38451472Y-39553220D01*
X38546780Y-39648528D01*
X38553717Y-39652063D01*
X38553719Y-39652064D01*
X38659934Y-39706183D01*
X38666874Y-39709719D01*
X38674568Y-39710938D01*
X38674569Y-39710938D01*
X38792304Y-39729585D01*
X38800000Y-39730804D01*
X38807696Y-39729585D01*
X38925431Y-39710938D01*
X38925432Y-39710938D01*
X38933126Y-39709719D01*
X38940066Y-39706183D01*
X39046281Y-39652064D01*
X39046283Y-39652063D01*
X39053220Y-39648528D01*
X39148528Y-39553220D01*
X39161790Y-39527192D01*
X39205055Y-39483927D01*
X39265487Y-39474356D01*
X39320004Y-39502134D01*
X39338210Y-39527192D01*
X39351472Y-39553220D01*
X39446780Y-39648528D01*
X39453717Y-39652063D01*
X39453719Y-39652064D01*
X39559934Y-39706183D01*
X39566874Y-39709719D01*
X39574568Y-39710938D01*
X39574569Y-39710938D01*
X39692304Y-39729585D01*
X39700000Y-39730804D01*
X39707696Y-39729585D01*
X39825431Y-39710938D01*
X39825432Y-39710938D01*
X39833126Y-39709719D01*
X39840066Y-39706183D01*
X39946281Y-39652064D01*
X39946283Y-39652063D01*
X39953220Y-39648528D01*
X40048528Y-39553220D01*
X40109719Y-39433126D01*
X40130804Y-39300000D01*
X40109719Y-39166874D01*
X40061790Y-39072808D01*
X40052064Y-39053719D01*
X40052063Y-39053717D01*
X40048528Y-39046780D01*
X39953220Y-38951472D01*
X39946283Y-38947937D01*
X39946281Y-38947936D01*
X39927192Y-38938210D01*
X39883927Y-38894945D01*
X39874356Y-38834513D01*
X39902134Y-38779996D01*
X39927192Y-38761790D01*
X39946281Y-38752064D01*
X39946283Y-38752063D01*
X39953220Y-38748528D01*
X40048528Y-38653220D01*
X40071150Y-38608823D01*
X40106183Y-38540066D01*
X40106183Y-38540065D01*
X40109719Y-38533126D01*
X40130804Y-38400000D01*
X40109719Y-38266874D01*
X40048528Y-38146780D01*
X39953220Y-38051472D01*
X39946283Y-38047937D01*
X39946281Y-38047936D01*
X39840066Y-37993817D01*
X39840065Y-37993817D01*
X39833126Y-37990281D01*
X39825432Y-37989062D01*
X39825431Y-37989062D01*
X39733665Y-37974528D01*
X39700000Y-37969196D01*
X39666335Y-37974528D01*
X39574569Y-37989062D01*
X39574568Y-37989062D01*
X39566874Y-37990281D01*
X39559935Y-37993817D01*
X39559934Y-37993817D01*
X39453719Y-38047936D01*
X39453717Y-38047937D01*
X39446780Y-38051472D01*
X39351472Y-38146780D01*
X39347937Y-38153717D01*
X39347936Y-38153719D01*
X39338210Y-38172808D01*
X39294945Y-38216073D01*
X39234513Y-38225644D01*
X39179996Y-38197866D01*
X39161790Y-38172808D01*
X39152064Y-38153719D01*
X39152063Y-38153717D01*
X39148528Y-38146780D01*
X39053220Y-38051472D01*
X39046283Y-38047937D01*
X39046281Y-38047936D01*
X38940066Y-37993817D01*
X38940065Y-37993817D01*
X38933126Y-37990281D01*
X38925432Y-37989062D01*
X38925431Y-37989062D01*
X38833665Y-37974528D01*
X38800000Y-37969196D01*
X38766335Y-37974528D01*
X38674569Y-37989062D01*
X38674568Y-37989062D01*
X38666874Y-37990281D01*
X38659935Y-37993817D01*
X38659934Y-37993817D01*
X38553719Y-38047936D01*
X38553717Y-38047937D01*
X38546780Y-38051472D01*
X38451472Y-38146780D01*
X38390281Y-38266874D01*
X38369196Y-38400000D01*
X38390281Y-38533126D01*
X38393817Y-38540065D01*
X38393817Y-38540066D01*
X38428851Y-38608823D01*
X38451472Y-38653220D01*
X38546780Y-38748528D01*
X38553717Y-38752063D01*
X38553719Y-38752064D01*
X38572808Y-38761790D01*
X38616073Y-38805055D01*
X38625644Y-38865487D01*
X38597866Y-38920004D01*
X38572808Y-38938210D01*
X38553719Y-38947936D01*
X38553717Y-38947937D01*
X38546780Y-38951472D01*
X38451472Y-39046780D01*
X38447937Y-39053717D01*
X38447936Y-39053719D01*
X38438210Y-39072808D01*
X38390281Y-39166874D01*
X38369196Y-39300000D01*
X200500Y-39300000D01*
X200500Y-37236671D01*
X1570739Y-37236671D01*
X1599614Y-37427599D01*
X1666290Y-37608821D01*
X1668930Y-37613079D01*
X1668931Y-37613081D01*
X1765401Y-37768670D01*
X1768045Y-37772934D01*
X1900721Y-37913235D01*
X1904826Y-37916109D01*
X1904829Y-37916112D01*
X2054792Y-38021116D01*
X2058898Y-38023991D01*
X2063494Y-38025980D01*
X2063496Y-38025981D01*
X2135126Y-38056978D01*
X2236115Y-38100680D01*
X2356779Y-38125888D01*
X2421408Y-38139390D01*
X2421410Y-38139390D01*
X2425133Y-38140168D01*
X2431468Y-38140500D01*
X2573259Y-38140500D01*
X2575747Y-38140247D01*
X2575752Y-38140247D01*
X2712123Y-38126395D01*
X2712127Y-38126394D01*
X2717110Y-38125888D01*
X2901373Y-38068144D01*
X3070261Y-37974528D01*
X3216875Y-37848864D01*
X3279080Y-37768670D01*
X3332156Y-37700246D01*
X3332159Y-37700241D01*
X3335227Y-37696286D01*
X3420481Y-37523026D01*
X3446630Y-37422637D01*
X3467890Y-37341021D01*
X3467891Y-37341017D01*
X3469155Y-37336163D01*
X3479261Y-37143329D01*
X3450386Y-36952401D01*
X3383710Y-36771179D01*
X3335830Y-36693956D01*
X3284599Y-36611330D01*
X3284598Y-36611329D01*
X3281955Y-36607066D01*
X3149279Y-36466765D01*
X3145174Y-36463891D01*
X3145171Y-36463888D01*
X2995208Y-36358884D01*
X2991102Y-36356009D01*
X2986506Y-36354020D01*
X2986504Y-36354019D01*
X2818481Y-36281309D01*
X2818482Y-36281309D01*
X2813885Y-36279320D01*
X2679062Y-36251154D01*
X2628592Y-36240610D01*
X2628590Y-36240610D01*
X2624867Y-36239832D01*
X2618532Y-36239500D01*
X2476741Y-36239500D01*
X2474253Y-36239753D01*
X2474248Y-36239753D01*
X2337877Y-36253605D01*
X2337873Y-36253606D01*
X2332890Y-36254112D01*
X2148627Y-36311856D01*
X1979739Y-36405472D01*
X1833125Y-36531136D01*
X1830048Y-36535103D01*
X1717844Y-36679754D01*
X1717841Y-36679759D01*
X1714773Y-36683714D01*
X1629519Y-36856974D01*
X1580845Y-37043837D01*
X1570739Y-37236671D01*
X200500Y-37236671D01*
X200500Y-31450000D01*
X38494196Y-31450000D01*
X38515281Y-31583126D01*
X38576472Y-31703220D01*
X38671780Y-31798528D01*
X38678717Y-31802063D01*
X38678719Y-31802064D01*
X38784934Y-31856183D01*
X38791874Y-31859719D01*
X38799568Y-31860938D01*
X38799569Y-31860938D01*
X38917304Y-31879585D01*
X38925000Y-31880804D01*
X38932696Y-31879585D01*
X39050431Y-31860938D01*
X39050432Y-31860938D01*
X39058126Y-31859719D01*
X39065066Y-31856183D01*
X39171281Y-31802064D01*
X39171283Y-31802063D01*
X39178220Y-31798528D01*
X39273528Y-31703220D01*
X39334719Y-31583126D01*
X39355804Y-31450000D01*
X45098324Y-31450000D01*
X45119409Y-31583126D01*
X45180600Y-31703220D01*
X45275908Y-31798528D01*
X45282845Y-31802063D01*
X45282847Y-31802064D01*
X45389062Y-31856183D01*
X45396002Y-31859719D01*
X45403696Y-31860938D01*
X45403697Y-31860938D01*
X45521432Y-31879585D01*
X45529128Y-31880804D01*
X45536824Y-31879585D01*
X45654559Y-31860938D01*
X45654560Y-31860938D01*
X45662254Y-31859719D01*
X45669194Y-31856183D01*
X45775409Y-31802064D01*
X45775411Y-31802063D01*
X45782348Y-31798528D01*
X45877656Y-31703220D01*
X45938847Y-31583126D01*
X45959932Y-31450000D01*
X45938847Y-31316874D01*
X45877656Y-31196780D01*
X45872150Y-31191274D01*
X45867567Y-31184966D01*
X45869901Y-31183270D01*
X45848103Y-31140487D01*
X45857674Y-31080055D01*
X45868235Y-31065519D01*
X45867567Y-31065034D01*
X45872150Y-31058726D01*
X45877656Y-31053220D01*
X45938847Y-30933126D01*
X45943115Y-30906183D01*
X45958713Y-30807696D01*
X45959932Y-30800000D01*
X45938847Y-30666874D01*
X45877656Y-30546780D01*
X45830876Y-30500000D01*
X56069196Y-30500000D01*
X56090281Y-30633126D01*
X56151472Y-30753220D01*
X56246780Y-30848528D01*
X56253717Y-30852063D01*
X56253719Y-30852064D01*
X56359934Y-30906183D01*
X56366874Y-30909719D01*
X56374568Y-30910938D01*
X56374569Y-30910938D01*
X56492304Y-30929585D01*
X56500000Y-30930804D01*
X56507696Y-30929585D01*
X56625431Y-30910938D01*
X56625432Y-30910938D01*
X56633126Y-30909719D01*
X56640066Y-30906183D01*
X56746281Y-30852064D01*
X56746283Y-30852063D01*
X56753220Y-30848528D01*
X56848528Y-30753220D01*
X56909719Y-30633126D01*
X56930804Y-30500000D01*
X56922558Y-30447936D01*
X56910938Y-30374569D01*
X56910938Y-30374568D01*
X56909719Y-30366874D01*
X56848528Y-30246780D01*
X56753220Y-30151472D01*
X56746283Y-30147937D01*
X56746281Y-30147936D01*
X56640066Y-30093817D01*
X56640065Y-30093817D01*
X56633126Y-30090281D01*
X56625432Y-30089062D01*
X56625431Y-30089062D01*
X56507696Y-30070415D01*
X56500000Y-30069196D01*
X56492304Y-30070415D01*
X56374569Y-30089062D01*
X56374568Y-30089062D01*
X56366874Y-30090281D01*
X56359935Y-30093817D01*
X56359934Y-30093817D01*
X56253719Y-30147936D01*
X56253717Y-30147937D01*
X56246780Y-30151472D01*
X56151472Y-30246780D01*
X56090281Y-30366874D01*
X56089062Y-30374568D01*
X56089062Y-30374569D01*
X56077442Y-30447936D01*
X56069196Y-30500000D01*
X45830876Y-30500000D01*
X45782348Y-30451472D01*
X45775411Y-30447937D01*
X45775409Y-30447936D01*
X45669194Y-30393817D01*
X45669193Y-30393817D01*
X45662254Y-30390281D01*
X45654560Y-30389062D01*
X45654559Y-30389062D01*
X45536824Y-30370415D01*
X45529128Y-30369196D01*
X45521432Y-30370415D01*
X45403697Y-30389062D01*
X45403696Y-30389062D01*
X45396002Y-30390281D01*
X45389063Y-30393817D01*
X45389062Y-30393817D01*
X45282847Y-30447936D01*
X45282845Y-30447937D01*
X45275908Y-30451472D01*
X45180600Y-30546780D01*
X45119409Y-30666874D01*
X45098324Y-30800000D01*
X45099543Y-30807696D01*
X45115142Y-30906183D01*
X45119409Y-30933126D01*
X45180600Y-31053220D01*
X45186106Y-31058726D01*
X45190689Y-31065034D01*
X45188355Y-31066730D01*
X45210153Y-31109513D01*
X45200582Y-31169945D01*
X45190021Y-31184481D01*
X45190689Y-31184966D01*
X45186106Y-31191274D01*
X45180600Y-31196780D01*
X45119409Y-31316874D01*
X45098324Y-31450000D01*
X39355804Y-31450000D01*
X39334719Y-31316874D01*
X39273528Y-31196780D01*
X39268022Y-31191274D01*
X39263439Y-31184966D01*
X39265773Y-31183270D01*
X39243975Y-31140487D01*
X39253546Y-31080055D01*
X39264107Y-31065519D01*
X39263439Y-31065034D01*
X39268022Y-31058726D01*
X39273528Y-31053220D01*
X39334719Y-30933126D01*
X39338987Y-30906183D01*
X39354585Y-30807696D01*
X39355804Y-30800000D01*
X39334719Y-30666874D01*
X39273528Y-30546780D01*
X39178220Y-30451472D01*
X39171283Y-30447937D01*
X39171281Y-30447936D01*
X39065066Y-30393817D01*
X39065065Y-30393817D01*
X39058126Y-30390281D01*
X39050432Y-30389062D01*
X39050431Y-30389062D01*
X38932696Y-30370415D01*
X38925000Y-30369196D01*
X38917304Y-30370415D01*
X38799569Y-30389062D01*
X38799568Y-30389062D01*
X38791874Y-30390281D01*
X38784935Y-30393817D01*
X38784934Y-30393817D01*
X38678719Y-30447936D01*
X38678717Y-30447937D01*
X38671780Y-30451472D01*
X38576472Y-30546780D01*
X38515281Y-30666874D01*
X38494196Y-30800000D01*
X38495415Y-30807696D01*
X38511014Y-30906183D01*
X38515281Y-30933126D01*
X38576472Y-31053220D01*
X38581978Y-31058726D01*
X38586561Y-31065034D01*
X38584227Y-31066730D01*
X38606025Y-31109513D01*
X38596454Y-31169945D01*
X38585893Y-31184481D01*
X38586561Y-31184966D01*
X38581978Y-31191274D01*
X38576472Y-31196780D01*
X38515281Y-31316874D01*
X38494196Y-31450000D01*
X200500Y-31450000D01*
X200500Y-29225000D01*
X50614196Y-29225000D01*
X50635281Y-29358126D01*
X50696472Y-29478220D01*
X50791780Y-29573528D01*
X50798717Y-29577063D01*
X50798719Y-29577064D01*
X50904934Y-29631183D01*
X50911874Y-29634719D01*
X50919568Y-29635938D01*
X50919569Y-29635938D01*
X51037304Y-29654585D01*
X51045000Y-29655804D01*
X51052696Y-29654585D01*
X51170431Y-29635938D01*
X51170432Y-29635938D01*
X51178126Y-29634719D01*
X51185066Y-29631183D01*
X51291281Y-29577064D01*
X51291283Y-29577063D01*
X51298220Y-29573528D01*
X51393528Y-29478220D01*
X51454719Y-29358126D01*
X51475804Y-29225000D01*
X51454719Y-29091874D01*
X51393528Y-28971780D01*
X51388022Y-28966274D01*
X51383439Y-28959966D01*
X51385773Y-28958270D01*
X51363975Y-28915487D01*
X51373546Y-28855055D01*
X51384107Y-28840519D01*
X51383439Y-28840034D01*
X51388022Y-28833726D01*
X51393528Y-28828220D01*
X51454719Y-28708126D01*
X51475804Y-28575000D01*
X51454719Y-28441874D01*
X51393528Y-28321780D01*
X51298220Y-28226472D01*
X51291283Y-28222937D01*
X51291281Y-28222936D01*
X51185066Y-28168817D01*
X51185065Y-28168817D01*
X51178126Y-28165281D01*
X51170432Y-28164062D01*
X51170431Y-28164062D01*
X51052696Y-28145415D01*
X51045000Y-28144196D01*
X51037304Y-28145415D01*
X50919569Y-28164062D01*
X50919568Y-28164062D01*
X50911874Y-28165281D01*
X50904935Y-28168817D01*
X50904934Y-28168817D01*
X50798719Y-28222936D01*
X50798717Y-28222937D01*
X50791780Y-28226472D01*
X50696472Y-28321780D01*
X50635281Y-28441874D01*
X50614196Y-28575000D01*
X50635281Y-28708126D01*
X50696472Y-28828220D01*
X50701978Y-28833726D01*
X50706561Y-28840034D01*
X50704227Y-28841730D01*
X50726025Y-28884513D01*
X50716454Y-28944945D01*
X50705893Y-28959481D01*
X50706561Y-28959966D01*
X50701978Y-28966274D01*
X50696472Y-28971780D01*
X50635281Y-29091874D01*
X50614196Y-29225000D01*
X200500Y-29225000D01*
X200500Y-26650000D01*
X42169196Y-26650000D01*
X42190281Y-26783126D01*
X42251472Y-26903220D01*
X42346780Y-26998528D01*
X42353717Y-27002063D01*
X42353719Y-27002064D01*
X42459934Y-27056183D01*
X42466874Y-27059719D01*
X42474568Y-27060938D01*
X42474569Y-27060938D01*
X42592304Y-27079585D01*
X42600000Y-27080804D01*
X42607696Y-27079585D01*
X42725431Y-27060938D01*
X42725432Y-27060938D01*
X42733126Y-27059719D01*
X42740066Y-27056183D01*
X42846281Y-27002064D01*
X42846283Y-27002063D01*
X42853220Y-26998528D01*
X42948528Y-26903220D01*
X43009719Y-26783126D01*
X43030804Y-26650000D01*
X43009719Y-26516874D01*
X42948528Y-26396780D01*
X42943022Y-26391274D01*
X42938439Y-26384966D01*
X42940773Y-26383270D01*
X42918975Y-26340487D01*
X42928546Y-26280055D01*
X42939107Y-26265519D01*
X42938439Y-26265034D01*
X42943022Y-26258726D01*
X42948528Y-26253220D01*
X43009719Y-26133126D01*
X43030804Y-26000000D01*
X43009719Y-25866874D01*
X42948528Y-25746780D01*
X42853220Y-25651472D01*
X42846283Y-25647937D01*
X42846281Y-25647936D01*
X42740066Y-25593817D01*
X42740065Y-25593817D01*
X42733126Y-25590281D01*
X42725432Y-25589062D01*
X42725431Y-25589062D01*
X42607696Y-25570415D01*
X42600000Y-25569196D01*
X42592304Y-25570415D01*
X42474569Y-25589062D01*
X42474568Y-25589062D01*
X42466874Y-25590281D01*
X42459935Y-25593817D01*
X42459934Y-25593817D01*
X42353719Y-25647936D01*
X42353717Y-25647937D01*
X42346780Y-25651472D01*
X42251472Y-25746780D01*
X42190281Y-25866874D01*
X42169196Y-26000000D01*
X42190281Y-26133126D01*
X42251472Y-26253220D01*
X42256978Y-26258726D01*
X42261561Y-26265034D01*
X42259227Y-26266730D01*
X42281025Y-26309513D01*
X42271454Y-26369945D01*
X42260893Y-26384481D01*
X42261561Y-26384966D01*
X42256978Y-26391274D01*
X42251472Y-26396780D01*
X42190281Y-26516874D01*
X42169196Y-26650000D01*
X200500Y-26650000D01*
X200500Y-22950000D01*
X31769196Y-22950000D01*
X31790281Y-23083126D01*
X31851472Y-23203220D01*
X31946780Y-23298528D01*
X31953717Y-23302063D01*
X31953719Y-23302064D01*
X32059934Y-23356183D01*
X32066874Y-23359719D01*
X32074568Y-23360938D01*
X32074569Y-23360938D01*
X32192304Y-23379585D01*
X32200000Y-23380804D01*
X32207696Y-23379585D01*
X32325431Y-23360938D01*
X32325432Y-23360938D01*
X32333126Y-23359719D01*
X32340066Y-23356183D01*
X32446281Y-23302064D01*
X32446283Y-23302063D01*
X32453220Y-23298528D01*
X32548528Y-23203220D01*
X32609719Y-23083126D01*
X32630804Y-22950000D01*
X35269196Y-22950000D01*
X35290281Y-23083126D01*
X35351472Y-23203220D01*
X35446780Y-23298528D01*
X35453717Y-23302063D01*
X35453719Y-23302064D01*
X35559934Y-23356183D01*
X35566874Y-23359719D01*
X35574568Y-23360938D01*
X35574569Y-23360938D01*
X35692304Y-23379585D01*
X35700000Y-23380804D01*
X35707696Y-23379585D01*
X35825431Y-23360938D01*
X35825432Y-23360938D01*
X35833126Y-23359719D01*
X35840066Y-23356183D01*
X35946281Y-23302064D01*
X35946283Y-23302063D01*
X35953220Y-23298528D01*
X35979996Y-23271752D01*
X36034513Y-23243975D01*
X36094945Y-23253546D01*
X36120004Y-23271752D01*
X36146780Y-23298528D01*
X36153717Y-23302063D01*
X36153719Y-23302064D01*
X36259934Y-23356183D01*
X36266874Y-23359719D01*
X36274568Y-23360938D01*
X36274569Y-23360938D01*
X36392304Y-23379585D01*
X36400000Y-23380804D01*
X36407696Y-23379585D01*
X36525431Y-23360938D01*
X36525432Y-23360938D01*
X36533126Y-23359719D01*
X36540066Y-23356183D01*
X36646281Y-23302064D01*
X36646283Y-23302063D01*
X36653220Y-23298528D01*
X36748528Y-23203220D01*
X36809719Y-23083126D01*
X36830804Y-22950000D01*
X36809719Y-22816874D01*
X36748528Y-22696780D01*
X36721752Y-22670004D01*
X36693975Y-22615487D01*
X36703546Y-22555055D01*
X36721752Y-22529996D01*
X36748528Y-22503220D01*
X36809719Y-22383126D01*
X36830804Y-22250000D01*
X36809719Y-22116874D01*
X36748528Y-21996780D01*
X36653220Y-21901472D01*
X36646283Y-21897937D01*
X36646281Y-21897936D01*
X36540066Y-21843817D01*
X36540065Y-21843817D01*
X36533126Y-21840281D01*
X36525432Y-21839062D01*
X36525431Y-21839062D01*
X36407696Y-21820415D01*
X36400000Y-21819196D01*
X36392304Y-21820415D01*
X36274569Y-21839062D01*
X36274568Y-21839062D01*
X36266874Y-21840281D01*
X36259935Y-21843817D01*
X36259934Y-21843817D01*
X36153719Y-21897936D01*
X36153717Y-21897937D01*
X36146780Y-21901472D01*
X36120004Y-21928248D01*
X36065487Y-21956025D01*
X36005055Y-21946454D01*
X35979996Y-21928248D01*
X35953220Y-21901472D01*
X35946283Y-21897937D01*
X35946281Y-21897936D01*
X35840066Y-21843817D01*
X35840065Y-21843817D01*
X35833126Y-21840281D01*
X35825432Y-21839062D01*
X35825431Y-21839062D01*
X35707696Y-21820415D01*
X35700000Y-21819196D01*
X35692304Y-21820415D01*
X35574569Y-21839062D01*
X35574568Y-21839062D01*
X35566874Y-21840281D01*
X35559935Y-21843817D01*
X35559934Y-21843817D01*
X35453719Y-21897936D01*
X35453717Y-21897937D01*
X35446780Y-21901472D01*
X35351472Y-21996780D01*
X35290281Y-22116874D01*
X35269196Y-22250000D01*
X35290281Y-22383126D01*
X35351472Y-22503220D01*
X35378248Y-22529996D01*
X35406025Y-22584513D01*
X35396454Y-22644945D01*
X35378248Y-22670004D01*
X35351472Y-22696780D01*
X35290281Y-22816874D01*
X35269196Y-22950000D01*
X32630804Y-22950000D01*
X32609719Y-22816874D01*
X32548528Y-22696780D01*
X32521752Y-22670004D01*
X32493975Y-22615487D01*
X32503546Y-22555055D01*
X32521752Y-22529996D01*
X32548528Y-22503220D01*
X32609719Y-22383126D01*
X32630804Y-22250000D01*
X32609719Y-22116874D01*
X32548528Y-21996780D01*
X32453220Y-21901472D01*
X32446283Y-21897937D01*
X32446281Y-21897936D01*
X32340066Y-21843817D01*
X32340065Y-21843817D01*
X32333126Y-21840281D01*
X32325432Y-21839062D01*
X32325431Y-21839062D01*
X32207696Y-21820415D01*
X32200000Y-21819196D01*
X32192304Y-21820415D01*
X32074569Y-21839062D01*
X32074568Y-21839062D01*
X32066874Y-21840281D01*
X32059935Y-21843817D01*
X32059934Y-21843817D01*
X31953719Y-21897936D01*
X31953717Y-21897937D01*
X31946780Y-21901472D01*
X31851472Y-21996780D01*
X31790281Y-22116874D01*
X31769196Y-22250000D01*
X31790281Y-22383126D01*
X31851472Y-22503220D01*
X31878248Y-22529996D01*
X31906025Y-22584513D01*
X31896454Y-22644945D01*
X31878248Y-22670004D01*
X31851472Y-22696780D01*
X31790281Y-22816874D01*
X31769196Y-22950000D01*
X200500Y-22950000D01*
X200500Y-20145000D01*
X40514196Y-20145000D01*
X40535281Y-20278126D01*
X40596472Y-20398220D01*
X40691780Y-20493528D01*
X40698717Y-20497063D01*
X40698719Y-20497064D01*
X40804934Y-20551183D01*
X40811874Y-20554719D01*
X40819568Y-20555938D01*
X40819569Y-20555938D01*
X40937304Y-20574585D01*
X40945000Y-20575804D01*
X40952696Y-20574585D01*
X41070431Y-20555938D01*
X41070432Y-20555938D01*
X41078126Y-20554719D01*
X41085066Y-20551183D01*
X41191281Y-20497064D01*
X41191283Y-20497063D01*
X41198220Y-20493528D01*
X41293528Y-20398220D01*
X41354719Y-20278126D01*
X41375012Y-20150000D01*
X44819196Y-20150000D01*
X44840281Y-20283126D01*
X44843817Y-20290065D01*
X44843817Y-20290066D01*
X44895389Y-20391281D01*
X44901472Y-20403220D01*
X44996780Y-20498528D01*
X45003717Y-20502063D01*
X45003719Y-20502064D01*
X45100121Y-20551183D01*
X45116874Y-20559719D01*
X45124568Y-20560938D01*
X45124569Y-20560938D01*
X45242304Y-20579585D01*
X45250000Y-20580804D01*
X45257696Y-20579585D01*
X45375431Y-20560938D01*
X45375432Y-20560938D01*
X45383126Y-20559719D01*
X45399879Y-20551183D01*
X45496281Y-20502064D01*
X45496283Y-20502063D01*
X45503220Y-20498528D01*
X45598528Y-20403220D01*
X45604612Y-20391281D01*
X45656183Y-20290066D01*
X45656183Y-20290065D01*
X45659719Y-20283126D01*
X45680804Y-20150000D01*
X45659719Y-20016874D01*
X45598528Y-19896780D01*
X45503220Y-19801472D01*
X45496283Y-19797937D01*
X45496281Y-19797936D01*
X45390066Y-19743817D01*
X45390065Y-19743817D01*
X45383126Y-19740281D01*
X45375432Y-19739062D01*
X45375431Y-19739062D01*
X45257696Y-19720415D01*
X45250000Y-19719196D01*
X45242304Y-19720415D01*
X45124569Y-19739062D01*
X45124568Y-19739062D01*
X45116874Y-19740281D01*
X45109935Y-19743817D01*
X45109934Y-19743817D01*
X45003719Y-19797936D01*
X45003717Y-19797937D01*
X44996780Y-19801472D01*
X44901472Y-19896780D01*
X44840281Y-20016874D01*
X44819196Y-20150000D01*
X41375012Y-20150000D01*
X41375804Y-20145000D01*
X41354719Y-20011874D01*
X41351183Y-20004934D01*
X41297064Y-19898719D01*
X41297063Y-19898717D01*
X41293528Y-19891780D01*
X41198220Y-19796472D01*
X41191283Y-19792937D01*
X41191281Y-19792936D01*
X41085066Y-19738817D01*
X41085065Y-19738817D01*
X41078126Y-19735281D01*
X41070432Y-19734062D01*
X41070431Y-19734062D01*
X40952696Y-19715415D01*
X40945000Y-19714196D01*
X40937304Y-19715415D01*
X40819569Y-19734062D01*
X40819568Y-19734062D01*
X40811874Y-19735281D01*
X40804935Y-19738817D01*
X40804934Y-19738817D01*
X40698719Y-19792936D01*
X40698717Y-19792937D01*
X40691780Y-19796472D01*
X40596472Y-19891780D01*
X40592937Y-19898717D01*
X40592936Y-19898719D01*
X40538817Y-20004934D01*
X40535281Y-20011874D01*
X40514196Y-20145000D01*
X200500Y-20145000D01*
X200500Y-18200000D01*
X44769196Y-18200000D01*
X44790281Y-18333126D01*
X44851472Y-18453220D01*
X44946780Y-18548528D01*
X44953717Y-18552063D01*
X44953719Y-18552064D01*
X45059934Y-18606183D01*
X45066874Y-18609719D01*
X45074568Y-18610938D01*
X45074569Y-18610938D01*
X45192304Y-18629585D01*
X45200000Y-18630804D01*
X45207696Y-18629585D01*
X45325431Y-18610938D01*
X45325432Y-18610938D01*
X45333126Y-18609719D01*
X45340066Y-18606183D01*
X45446281Y-18552064D01*
X45446283Y-18552063D01*
X45453220Y-18548528D01*
X45548528Y-18453220D01*
X45609719Y-18333126D01*
X45630804Y-18200000D01*
X45609719Y-18066874D01*
X45548528Y-17946780D01*
X45453220Y-17851472D01*
X45446283Y-17847937D01*
X45446281Y-17847936D01*
X45352201Y-17800000D01*
X53669196Y-17800000D01*
X53690281Y-17933126D01*
X53751472Y-18053220D01*
X53846780Y-18148528D01*
X53853717Y-18152063D01*
X53853719Y-18152064D01*
X53932695Y-18192304D01*
X53966874Y-18209719D01*
X53974568Y-18210938D01*
X53974569Y-18210938D01*
X54092304Y-18229585D01*
X54100000Y-18230804D01*
X54107696Y-18229585D01*
X54225431Y-18210938D01*
X54225432Y-18210938D01*
X54233126Y-18209719D01*
X54267305Y-18192304D01*
X54346281Y-18152064D01*
X54346283Y-18152063D01*
X54353220Y-18148528D01*
X54448528Y-18053220D01*
X54509719Y-17933126D01*
X54530804Y-17800000D01*
X54509719Y-17666874D01*
X54506183Y-17659934D01*
X54452064Y-17553719D01*
X54452063Y-17553717D01*
X54448528Y-17546780D01*
X54353220Y-17451472D01*
X54346283Y-17447937D01*
X54346281Y-17447936D01*
X54240066Y-17393817D01*
X54240065Y-17393817D01*
X54233126Y-17390281D01*
X54225432Y-17389062D01*
X54225431Y-17389062D01*
X54107696Y-17370415D01*
X54100000Y-17369196D01*
X54092304Y-17370415D01*
X53974569Y-17389062D01*
X53974568Y-17389062D01*
X53966874Y-17390281D01*
X53959935Y-17393817D01*
X53959934Y-17393817D01*
X53853719Y-17447936D01*
X53853717Y-17447937D01*
X53846780Y-17451472D01*
X53751472Y-17546780D01*
X53747937Y-17553717D01*
X53747936Y-17553719D01*
X53693817Y-17659934D01*
X53690281Y-17666874D01*
X53669196Y-17800000D01*
X45352201Y-17800000D01*
X45340066Y-17793817D01*
X45340065Y-17793817D01*
X45333126Y-17790281D01*
X45325432Y-17789062D01*
X45325431Y-17789062D01*
X45207696Y-17770415D01*
X45200000Y-17769196D01*
X45192304Y-17770415D01*
X45074569Y-17789062D01*
X45074568Y-17789062D01*
X45066874Y-17790281D01*
X45059935Y-17793817D01*
X45059934Y-17793817D01*
X44953719Y-17847936D01*
X44953717Y-17847937D01*
X44946780Y-17851472D01*
X44851472Y-17946780D01*
X44790281Y-18066874D01*
X44769196Y-18200000D01*
X200500Y-18200000D01*
X200500Y-17200000D01*
X22269196Y-17200000D01*
X22290281Y-17333126D01*
X22293817Y-17340065D01*
X22293817Y-17340066D01*
X22346276Y-17443022D01*
X22351472Y-17453220D01*
X22446780Y-17548528D01*
X22453717Y-17552063D01*
X22453719Y-17552064D01*
X22559934Y-17606183D01*
X22566874Y-17609719D01*
X22574568Y-17610938D01*
X22574569Y-17610938D01*
X22692304Y-17629585D01*
X22700000Y-17630804D01*
X22707696Y-17629585D01*
X22825431Y-17610938D01*
X22825432Y-17610938D01*
X22833126Y-17609719D01*
X22840066Y-17606183D01*
X22946281Y-17552064D01*
X22946283Y-17552063D01*
X22953220Y-17548528D01*
X23048528Y-17453220D01*
X23053725Y-17443022D01*
X23106183Y-17340066D01*
X23106183Y-17340065D01*
X23109719Y-17333126D01*
X23130804Y-17200000D01*
X23114966Y-17100000D01*
X38069196Y-17100000D01*
X38090281Y-17233126D01*
X38093817Y-17240065D01*
X38093817Y-17240066D01*
X38144770Y-17340066D01*
X38151472Y-17353220D01*
X38246780Y-17448528D01*
X38253717Y-17452063D01*
X38253719Y-17452064D01*
X38359934Y-17506183D01*
X38366874Y-17509719D01*
X38374568Y-17510938D01*
X38374569Y-17510938D01*
X38492304Y-17529585D01*
X38500000Y-17530804D01*
X38507696Y-17529585D01*
X38625431Y-17510938D01*
X38625432Y-17510938D01*
X38633126Y-17509719D01*
X38640066Y-17506183D01*
X38746281Y-17452064D01*
X38746283Y-17452063D01*
X38753220Y-17448528D01*
X38848528Y-17353220D01*
X38855231Y-17340066D01*
X38906183Y-17240066D01*
X38906183Y-17240065D01*
X38909719Y-17233126D01*
X38930804Y-17100000D01*
X41119196Y-17100000D01*
X41140281Y-17233126D01*
X41143817Y-17240065D01*
X41143817Y-17240066D01*
X41194770Y-17340066D01*
X41201472Y-17353220D01*
X41296780Y-17448528D01*
X41303717Y-17452063D01*
X41303719Y-17452064D01*
X41409934Y-17506183D01*
X41416874Y-17509719D01*
X41424568Y-17510938D01*
X41424569Y-17510938D01*
X41542304Y-17529585D01*
X41550000Y-17530804D01*
X41557696Y-17529585D01*
X41675431Y-17510938D01*
X41675432Y-17510938D01*
X41683126Y-17509719D01*
X41690066Y-17506183D01*
X41796281Y-17452064D01*
X41796283Y-17452063D01*
X41803220Y-17448528D01*
X41898528Y-17353220D01*
X41905231Y-17340066D01*
X41956183Y-17240066D01*
X41956183Y-17240065D01*
X41959719Y-17233126D01*
X41980804Y-17100000D01*
X41965293Y-17002064D01*
X41960938Y-16974569D01*
X41960938Y-16974568D01*
X41959719Y-16966874D01*
X41923750Y-16896281D01*
X41902064Y-16853719D01*
X41902063Y-16853717D01*
X41898528Y-16846780D01*
X41803220Y-16751472D01*
X41796283Y-16747937D01*
X41796281Y-16747936D01*
X41690066Y-16693817D01*
X41690065Y-16693817D01*
X41683126Y-16690281D01*
X41675432Y-16689062D01*
X41675431Y-16689062D01*
X41557696Y-16670415D01*
X41550000Y-16669196D01*
X41542304Y-16670415D01*
X41424569Y-16689062D01*
X41424568Y-16689062D01*
X41416874Y-16690281D01*
X41409935Y-16693817D01*
X41409934Y-16693817D01*
X41303719Y-16747936D01*
X41303717Y-16747937D01*
X41296780Y-16751472D01*
X41201472Y-16846780D01*
X41197937Y-16853717D01*
X41197936Y-16853719D01*
X41176250Y-16896281D01*
X41140281Y-16966874D01*
X41139062Y-16974568D01*
X41139062Y-16974569D01*
X41134707Y-17002064D01*
X41119196Y-17100000D01*
X38930804Y-17100000D01*
X38915293Y-17002064D01*
X38910938Y-16974569D01*
X38910938Y-16974568D01*
X38909719Y-16966874D01*
X38873750Y-16896281D01*
X38852064Y-16853719D01*
X38852063Y-16853717D01*
X38848528Y-16846780D01*
X38753220Y-16751472D01*
X38746283Y-16747937D01*
X38746281Y-16747936D01*
X38640066Y-16693817D01*
X38640065Y-16693817D01*
X38633126Y-16690281D01*
X38625432Y-16689062D01*
X38625431Y-16689062D01*
X38507696Y-16670415D01*
X38500000Y-16669196D01*
X38492304Y-16670415D01*
X38374569Y-16689062D01*
X38374568Y-16689062D01*
X38366874Y-16690281D01*
X38359935Y-16693817D01*
X38359934Y-16693817D01*
X38253719Y-16747936D01*
X38253717Y-16747937D01*
X38246780Y-16751472D01*
X38151472Y-16846780D01*
X38147937Y-16853717D01*
X38147936Y-16853719D01*
X38126250Y-16896281D01*
X38090281Y-16966874D01*
X38089062Y-16974568D01*
X38089062Y-16974569D01*
X38084707Y-17002064D01*
X38069196Y-17100000D01*
X23114966Y-17100000D01*
X23113747Y-17092304D01*
X23110938Y-17074569D01*
X23110938Y-17074568D01*
X23109719Y-17066874D01*
X23074895Y-16998528D01*
X23052064Y-16953719D01*
X23052063Y-16953717D01*
X23048528Y-16946780D01*
X22953220Y-16851472D01*
X22946283Y-16847937D01*
X22946281Y-16847936D01*
X22840066Y-16793817D01*
X22840065Y-16793817D01*
X22833126Y-16790281D01*
X22825432Y-16789062D01*
X22825431Y-16789062D01*
X22707696Y-16770415D01*
X22700000Y-16769196D01*
X22692304Y-16770415D01*
X22574569Y-16789062D01*
X22574568Y-16789062D01*
X22566874Y-16790281D01*
X22559935Y-16793817D01*
X22559934Y-16793817D01*
X22453719Y-16847936D01*
X22453717Y-16847937D01*
X22446780Y-16851472D01*
X22351472Y-16946780D01*
X22347937Y-16953717D01*
X22347936Y-16953719D01*
X22325105Y-16998528D01*
X22290281Y-17066874D01*
X22289062Y-17074568D01*
X22289062Y-17074569D01*
X22286253Y-17092304D01*
X22269196Y-17200000D01*
X200500Y-17200000D01*
X200500Y-16650000D01*
X51069196Y-16650000D01*
X51070415Y-16657696D01*
X51088075Y-16769196D01*
X51090281Y-16783126D01*
X51093817Y-16790065D01*
X51093817Y-16790066D01*
X51127911Y-16856978D01*
X51151472Y-16903220D01*
X51246780Y-16998528D01*
X51253717Y-17002063D01*
X51253719Y-17002064D01*
X51359934Y-17056183D01*
X51366874Y-17059719D01*
X51374568Y-17060938D01*
X51374569Y-17060938D01*
X51492304Y-17079585D01*
X51500000Y-17080804D01*
X51507696Y-17079585D01*
X51625431Y-17060938D01*
X51625432Y-17060938D01*
X51633126Y-17059719D01*
X51640066Y-17056183D01*
X51746281Y-17002064D01*
X51746283Y-17002063D01*
X51753220Y-16998528D01*
X51848528Y-16903220D01*
X51872090Y-16856978D01*
X51906183Y-16790066D01*
X51906183Y-16790065D01*
X51909719Y-16783126D01*
X51911926Y-16769196D01*
X51929585Y-16657696D01*
X51930804Y-16650000D01*
X51909719Y-16516874D01*
X51848528Y-16396780D01*
X51753220Y-16301472D01*
X51746283Y-16297937D01*
X51746281Y-16297936D01*
X51640066Y-16243817D01*
X51640065Y-16243817D01*
X51633126Y-16240281D01*
X51625432Y-16239062D01*
X51625431Y-16239062D01*
X51507696Y-16220415D01*
X51500000Y-16219196D01*
X51492304Y-16220415D01*
X51374569Y-16239062D01*
X51374568Y-16239062D01*
X51366874Y-16240281D01*
X51359935Y-16243817D01*
X51359934Y-16243817D01*
X51253719Y-16297936D01*
X51253717Y-16297937D01*
X51246780Y-16301472D01*
X51151472Y-16396780D01*
X51090281Y-16516874D01*
X51069196Y-16650000D01*
X200500Y-16650000D01*
X200500Y-16000000D01*
X41119196Y-16000000D01*
X41140281Y-16133126D01*
X41201472Y-16253220D01*
X41296780Y-16348528D01*
X41303717Y-16352063D01*
X41303719Y-16352064D01*
X41405098Y-16403719D01*
X41416874Y-16409719D01*
X41424568Y-16410938D01*
X41424569Y-16410938D01*
X41542304Y-16429585D01*
X41550000Y-16430804D01*
X41557696Y-16429585D01*
X41675431Y-16410938D01*
X41675432Y-16410938D01*
X41683126Y-16409719D01*
X41694902Y-16403719D01*
X41796281Y-16352064D01*
X41796283Y-16352063D01*
X41803220Y-16348528D01*
X41898528Y-16253220D01*
X41959719Y-16133126D01*
X41980804Y-16000000D01*
X41959719Y-15866874D01*
X41956183Y-15859934D01*
X41902064Y-15753719D01*
X41902063Y-15753717D01*
X41898528Y-15746780D01*
X41803220Y-15651472D01*
X41796283Y-15647937D01*
X41796281Y-15647936D01*
X41690066Y-15593817D01*
X41690065Y-15593817D01*
X41683126Y-15590281D01*
X41675432Y-15589062D01*
X41675431Y-15589062D01*
X41557696Y-15570415D01*
X41550000Y-15569196D01*
X41542304Y-15570415D01*
X41424569Y-15589062D01*
X41424568Y-15589062D01*
X41416874Y-15590281D01*
X41409935Y-15593817D01*
X41409934Y-15593817D01*
X41303719Y-15647936D01*
X41303717Y-15647937D01*
X41296780Y-15651472D01*
X41201472Y-15746780D01*
X41197937Y-15753717D01*
X41197936Y-15753719D01*
X41143817Y-15859934D01*
X41140281Y-15866874D01*
X41119196Y-16000000D01*
X200500Y-16000000D01*
X200500Y-15400000D01*
X51069196Y-15400000D01*
X51070415Y-15407696D01*
X51086014Y-15506183D01*
X51090281Y-15533126D01*
X51093817Y-15540065D01*
X51093817Y-15540066D01*
X51121205Y-15593817D01*
X51151472Y-15653220D01*
X51246780Y-15748528D01*
X51253717Y-15752063D01*
X51253719Y-15752064D01*
X51359934Y-15806183D01*
X51366874Y-15809719D01*
X51374568Y-15810938D01*
X51374569Y-15810938D01*
X51492304Y-15829585D01*
X51500000Y-15830804D01*
X51507696Y-15829585D01*
X51625431Y-15810938D01*
X51625432Y-15810938D01*
X51633126Y-15809719D01*
X51640066Y-15806183D01*
X51746281Y-15752064D01*
X51746283Y-15752063D01*
X51753220Y-15748528D01*
X51848528Y-15653220D01*
X51878796Y-15593817D01*
X51906183Y-15540066D01*
X51906183Y-15540065D01*
X51909719Y-15533126D01*
X51913987Y-15506183D01*
X51929585Y-15407696D01*
X51930804Y-15400000D01*
X51922296Y-15346281D01*
X51910938Y-15274569D01*
X51910938Y-15274568D01*
X51909719Y-15266874D01*
X51848528Y-15146780D01*
X51801748Y-15100000D01*
X53869196Y-15100000D01*
X53870415Y-15107696D01*
X53887531Y-15215761D01*
X53890281Y-15233126D01*
X53951472Y-15353220D01*
X54046780Y-15448528D01*
X54053717Y-15452063D01*
X54053719Y-15452064D01*
X54159934Y-15506183D01*
X54166874Y-15509719D01*
X54174568Y-15510938D01*
X54174569Y-15510938D01*
X54292304Y-15529585D01*
X54300000Y-15530804D01*
X54307696Y-15529585D01*
X54425431Y-15510938D01*
X54425432Y-15510938D01*
X54433126Y-15509719D01*
X54440066Y-15506183D01*
X54546281Y-15452064D01*
X54546283Y-15452063D01*
X54553220Y-15448528D01*
X54648528Y-15353220D01*
X54701872Y-15248528D01*
X54705799Y-15240820D01*
X54749064Y-15197555D01*
X54809496Y-15187984D01*
X54864013Y-15215761D01*
X54896780Y-15248528D01*
X54903717Y-15252063D01*
X54903719Y-15252064D01*
X54947888Y-15274569D01*
X55016874Y-15309719D01*
X55024568Y-15310938D01*
X55024569Y-15310938D01*
X55142304Y-15329585D01*
X55150000Y-15330804D01*
X55157696Y-15329585D01*
X55275431Y-15310938D01*
X55275432Y-15310938D01*
X55283126Y-15309719D01*
X55352112Y-15274569D01*
X55396281Y-15252064D01*
X55396283Y-15252063D01*
X55403220Y-15248528D01*
X55498528Y-15153220D01*
X55529567Y-15092304D01*
X55556183Y-15040066D01*
X55556183Y-15040065D01*
X55559719Y-15033126D01*
X55568994Y-14974569D01*
X55579585Y-14907696D01*
X55580804Y-14900000D01*
X55570212Y-14833126D01*
X55560938Y-14774569D01*
X55560938Y-14774568D01*
X55559719Y-14766874D01*
X55550070Y-14747936D01*
X55502064Y-14653719D01*
X55502063Y-14653717D01*
X55498528Y-14646780D01*
X55403220Y-14551472D01*
X55396283Y-14547937D01*
X55396281Y-14547936D01*
X55290066Y-14493817D01*
X55290065Y-14493817D01*
X55283126Y-14490281D01*
X55275432Y-14489062D01*
X55275431Y-14489062D01*
X55157696Y-14470415D01*
X55150000Y-14469196D01*
X55142304Y-14470415D01*
X55024569Y-14489062D01*
X55024568Y-14489062D01*
X55016874Y-14490281D01*
X55009935Y-14493817D01*
X55009934Y-14493817D01*
X54903719Y-14547936D01*
X54903717Y-14547937D01*
X54896780Y-14551472D01*
X54801472Y-14646780D01*
X54797937Y-14653717D01*
X54797936Y-14653719D01*
X54744201Y-14759180D01*
X54700936Y-14802445D01*
X54640504Y-14812016D01*
X54585987Y-14784239D01*
X54553220Y-14751472D01*
X54546283Y-14747937D01*
X54546281Y-14747936D01*
X54440066Y-14693817D01*
X54440065Y-14693817D01*
X54433126Y-14690281D01*
X54425432Y-14689062D01*
X54425431Y-14689062D01*
X54307696Y-14670415D01*
X54300000Y-14669196D01*
X54292304Y-14670415D01*
X54174569Y-14689062D01*
X54174568Y-14689062D01*
X54166874Y-14690281D01*
X54159935Y-14693817D01*
X54159934Y-14693817D01*
X54053719Y-14747936D01*
X54053717Y-14747937D01*
X54046780Y-14751472D01*
X53951472Y-14846780D01*
X53947937Y-14853717D01*
X53947936Y-14853719D01*
X53900774Y-14946281D01*
X53890281Y-14966874D01*
X53889062Y-14974568D01*
X53889062Y-14974569D01*
X53879788Y-15033126D01*
X53869196Y-15100000D01*
X51801748Y-15100000D01*
X51753220Y-15051472D01*
X51746283Y-15047937D01*
X51746281Y-15047936D01*
X51640066Y-14993817D01*
X51640065Y-14993817D01*
X51633126Y-14990281D01*
X51625432Y-14989062D01*
X51625431Y-14989062D01*
X51507696Y-14970415D01*
X51500000Y-14969196D01*
X51492304Y-14970415D01*
X51374569Y-14989062D01*
X51374568Y-14989062D01*
X51366874Y-14990281D01*
X51359935Y-14993817D01*
X51359934Y-14993817D01*
X51253719Y-15047936D01*
X51253717Y-15047937D01*
X51246780Y-15051472D01*
X51151472Y-15146780D01*
X51090281Y-15266874D01*
X51089062Y-15274568D01*
X51089062Y-15274569D01*
X51077704Y-15346281D01*
X51069196Y-15400000D01*
X200500Y-15400000D01*
X200500Y-14700000D01*
X49369196Y-14700000D01*
X49370415Y-14707696D01*
X49386938Y-14812016D01*
X49390281Y-14833126D01*
X49393817Y-14840065D01*
X49393817Y-14840066D01*
X49420434Y-14892304D01*
X49451472Y-14953220D01*
X49546780Y-15048528D01*
X49553717Y-15052063D01*
X49553719Y-15052064D01*
X49632695Y-15092304D01*
X49666874Y-15109719D01*
X49674568Y-15110938D01*
X49674569Y-15110938D01*
X49792304Y-15129585D01*
X49800000Y-15130804D01*
X49807696Y-15129585D01*
X49925431Y-15110938D01*
X49925432Y-15110938D01*
X49933126Y-15109719D01*
X49967305Y-15092304D01*
X50046281Y-15052064D01*
X50046283Y-15052063D01*
X50053220Y-15048528D01*
X50148528Y-14953220D01*
X50179567Y-14892304D01*
X50206183Y-14840066D01*
X50206183Y-14840065D01*
X50209719Y-14833126D01*
X50213063Y-14812016D01*
X50229585Y-14707696D01*
X50230804Y-14700000D01*
X50221503Y-14641274D01*
X50210938Y-14574569D01*
X50210938Y-14574568D01*
X50209719Y-14566874D01*
X50172495Y-14493817D01*
X50152064Y-14453719D01*
X50152063Y-14453717D01*
X50148528Y-14446780D01*
X50053220Y-14351472D01*
X50046283Y-14347937D01*
X50046281Y-14347936D01*
X49940066Y-14293817D01*
X49940065Y-14293817D01*
X49933126Y-14290281D01*
X49925432Y-14289062D01*
X49925431Y-14289062D01*
X49807696Y-14270415D01*
X49800000Y-14269196D01*
X49792304Y-14270415D01*
X49674569Y-14289062D01*
X49674568Y-14289062D01*
X49666874Y-14290281D01*
X49659935Y-14293817D01*
X49659934Y-14293817D01*
X49553719Y-14347936D01*
X49553717Y-14347937D01*
X49546780Y-14351472D01*
X49451472Y-14446780D01*
X49447937Y-14453717D01*
X49447936Y-14453719D01*
X49427505Y-14493817D01*
X49390281Y-14566874D01*
X49389062Y-14574568D01*
X49389062Y-14574569D01*
X49378497Y-14641274D01*
X49369196Y-14700000D01*
X200500Y-14700000D01*
X200500Y-14150000D01*
X19219196Y-14150000D01*
X19220415Y-14157696D01*
X19238075Y-14269196D01*
X19240281Y-14283126D01*
X19243817Y-14290065D01*
X19243817Y-14290066D01*
X19290244Y-14381183D01*
X19301472Y-14403220D01*
X19396780Y-14498528D01*
X19403717Y-14502063D01*
X19403719Y-14502064D01*
X19500688Y-14551472D01*
X19516874Y-14559719D01*
X19524568Y-14560938D01*
X19524569Y-14560938D01*
X19642304Y-14579585D01*
X19650000Y-14580804D01*
X19657696Y-14579585D01*
X19775431Y-14560938D01*
X19775432Y-14560938D01*
X19783126Y-14559719D01*
X19799312Y-14551472D01*
X19896281Y-14502064D01*
X19896283Y-14502063D01*
X19903220Y-14498528D01*
X19998528Y-14403220D01*
X20009757Y-14381183D01*
X20056183Y-14290066D01*
X20056183Y-14290065D01*
X20059719Y-14283126D01*
X20061926Y-14269196D01*
X20079585Y-14157696D01*
X20080804Y-14150000D01*
X20059719Y-14016874D01*
X20056183Y-14009934D01*
X20038383Y-13975000D01*
X55894196Y-13975000D01*
X55915281Y-14108126D01*
X55918817Y-14115065D01*
X55918817Y-14115066D01*
X55932696Y-14142304D01*
X55976472Y-14228220D01*
X56071780Y-14323528D01*
X56078717Y-14327063D01*
X56078719Y-14327064D01*
X56119683Y-14347936D01*
X56191874Y-14384719D01*
X56199568Y-14385938D01*
X56199569Y-14385938D01*
X56264874Y-14396281D01*
X56308686Y-14403220D01*
X56317304Y-14404585D01*
X56325000Y-14405804D01*
X56332696Y-14404585D01*
X56341315Y-14403220D01*
X56385126Y-14396281D01*
X56450431Y-14385938D01*
X56450432Y-14385938D01*
X56458126Y-14384719D01*
X56530317Y-14347936D01*
X56571281Y-14327064D01*
X56571283Y-14327063D01*
X56578220Y-14323528D01*
X56673528Y-14228220D01*
X56717305Y-14142304D01*
X56731183Y-14115066D01*
X56731183Y-14115065D01*
X56734719Y-14108126D01*
X56755804Y-13975000D01*
X56734719Y-13841874D01*
X56714133Y-13801472D01*
X56677064Y-13728719D01*
X56677063Y-13728717D01*
X56673528Y-13721780D01*
X56578220Y-13626472D01*
X56571283Y-13622937D01*
X56571281Y-13622936D01*
X56465066Y-13568817D01*
X56465065Y-13568817D01*
X56458126Y-13565281D01*
X56450432Y-13564062D01*
X56450431Y-13564062D01*
X56332696Y-13545415D01*
X56325000Y-13544196D01*
X56317304Y-13545415D01*
X56199569Y-13564062D01*
X56199568Y-13564062D01*
X56191874Y-13565281D01*
X56184935Y-13568817D01*
X56184934Y-13568817D01*
X56078719Y-13622936D01*
X56078717Y-13622937D01*
X56071780Y-13626472D01*
X55976472Y-13721780D01*
X55972937Y-13728717D01*
X55972936Y-13728719D01*
X55935867Y-13801472D01*
X55915281Y-13841874D01*
X55894196Y-13975000D01*
X20038383Y-13975000D01*
X20002064Y-13903719D01*
X20002063Y-13903717D01*
X19998528Y-13896780D01*
X19903220Y-13801472D01*
X19896283Y-13797937D01*
X19896281Y-13797936D01*
X19790066Y-13743817D01*
X19790065Y-13743817D01*
X19783126Y-13740281D01*
X19775432Y-13739062D01*
X19775431Y-13739062D01*
X19686978Y-13725053D01*
X19650000Y-13719196D01*
X19613022Y-13725053D01*
X19524569Y-13739062D01*
X19524568Y-13739062D01*
X19516874Y-13740281D01*
X19509935Y-13743817D01*
X19509934Y-13743817D01*
X19403719Y-13797936D01*
X19403717Y-13797937D01*
X19396780Y-13801472D01*
X19301472Y-13896780D01*
X19297937Y-13903717D01*
X19297936Y-13903719D01*
X19243817Y-14009934D01*
X19240281Y-14016874D01*
X19219196Y-14150000D01*
X200500Y-14150000D01*
X200500Y-12750000D01*
X41319196Y-12750000D01*
X41340281Y-12883126D01*
X41401472Y-13003220D01*
X41496780Y-13098528D01*
X41503717Y-13102063D01*
X41503719Y-13102064D01*
X41609934Y-13156183D01*
X41616874Y-13159719D01*
X41624568Y-13160938D01*
X41624569Y-13160938D01*
X41742304Y-13179585D01*
X41750000Y-13180804D01*
X41757696Y-13179585D01*
X41875431Y-13160938D01*
X41875432Y-13160938D01*
X41883126Y-13159719D01*
X41890066Y-13156183D01*
X41996281Y-13102064D01*
X41996283Y-13102063D01*
X42003220Y-13098528D01*
X42098528Y-13003220D01*
X42159719Y-12883126D01*
X42180804Y-12750000D01*
X42159719Y-12616874D01*
X42098528Y-12496780D01*
X42003220Y-12401472D01*
X41996283Y-12397937D01*
X41996281Y-12397936D01*
X41890066Y-12343817D01*
X41890065Y-12343817D01*
X41883126Y-12340281D01*
X41875432Y-12339062D01*
X41875431Y-12339062D01*
X41757696Y-12320415D01*
X41750000Y-12319196D01*
X41742304Y-12320415D01*
X41624569Y-12339062D01*
X41624568Y-12339062D01*
X41616874Y-12340281D01*
X41609935Y-12343817D01*
X41609934Y-12343817D01*
X41503719Y-12397936D01*
X41503717Y-12397937D01*
X41496780Y-12401472D01*
X41401472Y-12496780D01*
X41340281Y-12616874D01*
X41319196Y-12750000D01*
X200500Y-12750000D01*
X200500Y-12100000D01*
X49219196Y-12100000D01*
X49240281Y-12233126D01*
X49301472Y-12353220D01*
X49396780Y-12448528D01*
X49403717Y-12452063D01*
X49403719Y-12452064D01*
X49505098Y-12503719D01*
X49516874Y-12509719D01*
X49524568Y-12510938D01*
X49524569Y-12510938D01*
X49642304Y-12529585D01*
X49650000Y-12530804D01*
X49657696Y-12529585D01*
X49775431Y-12510938D01*
X49775432Y-12510938D01*
X49783126Y-12509719D01*
X49794902Y-12503719D01*
X49896281Y-12452064D01*
X49896283Y-12452063D01*
X49903220Y-12448528D01*
X49998528Y-12353220D01*
X50059719Y-12233126D01*
X50080804Y-12100000D01*
X50062293Y-11983126D01*
X50060938Y-11974569D01*
X50060938Y-11974568D01*
X50059719Y-11966874D01*
X50000169Y-11850000D01*
X58019196Y-11850000D01*
X58020415Y-11857696D01*
X58038926Y-11974569D01*
X58040281Y-11983126D01*
X58101472Y-12103220D01*
X58196780Y-12198528D01*
X58203717Y-12202063D01*
X58203719Y-12202064D01*
X58309934Y-12256183D01*
X58316874Y-12259719D01*
X58324568Y-12260938D01*
X58324569Y-12260938D01*
X58442304Y-12279585D01*
X58450000Y-12280804D01*
X58457696Y-12279585D01*
X58575431Y-12260938D01*
X58575432Y-12260938D01*
X58583126Y-12259719D01*
X58590066Y-12256183D01*
X58696281Y-12202064D01*
X58696283Y-12202063D01*
X58703220Y-12198528D01*
X58798528Y-12103220D01*
X58859719Y-11983126D01*
X58861075Y-11974569D01*
X58879585Y-11857696D01*
X58880804Y-11850000D01*
X60469196Y-11850000D01*
X60470415Y-11857696D01*
X60488926Y-11974569D01*
X60490281Y-11983126D01*
X60551472Y-12103220D01*
X60646780Y-12198528D01*
X60653717Y-12202063D01*
X60653719Y-12202064D01*
X60759934Y-12256183D01*
X60766874Y-12259719D01*
X60774568Y-12260938D01*
X60774569Y-12260938D01*
X60892304Y-12279585D01*
X60900000Y-12280804D01*
X60907696Y-12279585D01*
X61025431Y-12260938D01*
X61025432Y-12260938D01*
X61033126Y-12259719D01*
X61040066Y-12256183D01*
X61146281Y-12202064D01*
X61146283Y-12202063D01*
X61153220Y-12198528D01*
X61248528Y-12103220D01*
X61309719Y-11983126D01*
X61311075Y-11974569D01*
X61329585Y-11857696D01*
X61330804Y-11850000D01*
X61309719Y-11716874D01*
X61248528Y-11596780D01*
X61153220Y-11501472D01*
X61146283Y-11497937D01*
X61146281Y-11497936D01*
X61040066Y-11443817D01*
X61040065Y-11443817D01*
X61033126Y-11440281D01*
X61025432Y-11439062D01*
X61025431Y-11439062D01*
X60907696Y-11420415D01*
X60900000Y-11419196D01*
X60892304Y-11420415D01*
X60774569Y-11439062D01*
X60774568Y-11439062D01*
X60766874Y-11440281D01*
X60759935Y-11443817D01*
X60759934Y-11443817D01*
X60653719Y-11497936D01*
X60653717Y-11497937D01*
X60646780Y-11501472D01*
X60551472Y-11596780D01*
X60490281Y-11716874D01*
X60469196Y-11850000D01*
X58880804Y-11850000D01*
X58859719Y-11716874D01*
X58798528Y-11596780D01*
X58703220Y-11501472D01*
X58696283Y-11497937D01*
X58696281Y-11497936D01*
X58590066Y-11443817D01*
X58590065Y-11443817D01*
X58583126Y-11440281D01*
X58575432Y-11439062D01*
X58575431Y-11439062D01*
X58457696Y-11420415D01*
X58450000Y-11419196D01*
X58442304Y-11420415D01*
X58324569Y-11439062D01*
X58324568Y-11439062D01*
X58316874Y-11440281D01*
X58309935Y-11443817D01*
X58309934Y-11443817D01*
X58203719Y-11497936D01*
X58203717Y-11497937D01*
X58196780Y-11501472D01*
X58101472Y-11596780D01*
X58040281Y-11716874D01*
X58019196Y-11850000D01*
X50000169Y-11850000D01*
X49998528Y-11846780D01*
X49903220Y-11751472D01*
X49896283Y-11747937D01*
X49896281Y-11747936D01*
X49790066Y-11693817D01*
X49790065Y-11693817D01*
X49783126Y-11690281D01*
X49775432Y-11689062D01*
X49775431Y-11689062D01*
X49657696Y-11670415D01*
X49650000Y-11669196D01*
X49642304Y-11670415D01*
X49524569Y-11689062D01*
X49524568Y-11689062D01*
X49516874Y-11690281D01*
X49509935Y-11693817D01*
X49509934Y-11693817D01*
X49403719Y-11747936D01*
X49403717Y-11747937D01*
X49396780Y-11751472D01*
X49301472Y-11846780D01*
X49240281Y-11966874D01*
X49239062Y-11974568D01*
X49239062Y-11974569D01*
X49237707Y-11983126D01*
X49219196Y-12100000D01*
X200500Y-12100000D01*
X200500Y-10086671D01*
X1570739Y-10086671D01*
X1599614Y-10277599D01*
X1666290Y-10458821D01*
X1668930Y-10463079D01*
X1668931Y-10463081D01*
X1720518Y-10546281D01*
X1768045Y-10622934D01*
X1900721Y-10763235D01*
X1904826Y-10766109D01*
X1904829Y-10766112D01*
X1983594Y-10821263D01*
X2058898Y-10873991D01*
X2063494Y-10875980D01*
X2063496Y-10875981D01*
X2155309Y-10915712D01*
X2236115Y-10950680D01*
X2356779Y-10975888D01*
X2421408Y-10989390D01*
X2421410Y-10989390D01*
X2425133Y-10990168D01*
X2431468Y-10990500D01*
X2573259Y-10990500D01*
X2575747Y-10990247D01*
X2575752Y-10990247D01*
X2712123Y-10976395D01*
X2712127Y-10976394D01*
X2717110Y-10975888D01*
X2901373Y-10918144D01*
X3070261Y-10824528D01*
X3179610Y-10730804D01*
X3213065Y-10702130D01*
X3213067Y-10702128D01*
X3216875Y-10698864D01*
X3325578Y-10558726D01*
X3332156Y-10550246D01*
X3332159Y-10550241D01*
X3335227Y-10546286D01*
X3420481Y-10373026D01*
X3439503Y-10300000D01*
X54219196Y-10300000D01*
X54240281Y-10433126D01*
X54301472Y-10553220D01*
X54396780Y-10648528D01*
X54403717Y-10652063D01*
X54403719Y-10652064D01*
X54487784Y-10694897D01*
X54516874Y-10709719D01*
X54524568Y-10710938D01*
X54524569Y-10710938D01*
X54642304Y-10729585D01*
X54650000Y-10730804D01*
X54657696Y-10729585D01*
X54775431Y-10710938D01*
X54775432Y-10710938D01*
X54783126Y-10709719D01*
X54812216Y-10694897D01*
X54896281Y-10652064D01*
X54896283Y-10652063D01*
X54903220Y-10648528D01*
X54998528Y-10553220D01*
X55059719Y-10433126D01*
X55080804Y-10300000D01*
X55065293Y-10202064D01*
X55060938Y-10174569D01*
X55060938Y-10174568D01*
X55059719Y-10166874D01*
X55021381Y-10091631D01*
X55002064Y-10053719D01*
X55002063Y-10053717D01*
X54998528Y-10046780D01*
X54903220Y-9951472D01*
X54896283Y-9947937D01*
X54896281Y-9947936D01*
X54790066Y-9893817D01*
X54790065Y-9893817D01*
X54783126Y-9890281D01*
X54775432Y-9889062D01*
X54775431Y-9889062D01*
X54657696Y-9870415D01*
X54650000Y-9869196D01*
X54642304Y-9870415D01*
X54524569Y-9889062D01*
X54524568Y-9889062D01*
X54516874Y-9890281D01*
X54509935Y-9893817D01*
X54509934Y-9893817D01*
X54403719Y-9947936D01*
X54403717Y-9947937D01*
X54396780Y-9951472D01*
X54301472Y-10046780D01*
X54297937Y-10053717D01*
X54297936Y-10053719D01*
X54278619Y-10091631D01*
X54240281Y-10166874D01*
X54239062Y-10174568D01*
X54239062Y-10174569D01*
X54234707Y-10202064D01*
X54219196Y-10300000D01*
X3439503Y-10300000D01*
X3465013Y-10202064D01*
X3467890Y-10191021D01*
X3467891Y-10191017D01*
X3469155Y-10186163D01*
X3479261Y-9993329D01*
X3457585Y-9850000D01*
X57669196Y-9850000D01*
X57670415Y-9857696D01*
X57686140Y-9956978D01*
X57690281Y-9983126D01*
X57693817Y-9990065D01*
X57693817Y-9990066D01*
X57743040Y-10086671D01*
X57751472Y-10103220D01*
X57846780Y-10198528D01*
X57853717Y-10202063D01*
X57853719Y-10202064D01*
X57959934Y-10256183D01*
X57966874Y-10259719D01*
X57974568Y-10260938D01*
X57974569Y-10260938D01*
X58048435Y-10272637D01*
X58079765Y-10277599D01*
X58092304Y-10279585D01*
X58100000Y-10280804D01*
X58107696Y-10279585D01*
X58120236Y-10277599D01*
X58151565Y-10272637D01*
X58225431Y-10260938D01*
X58225432Y-10260938D01*
X58233126Y-10259719D01*
X58240066Y-10256183D01*
X58346281Y-10202064D01*
X58346283Y-10202063D01*
X58353220Y-10198528D01*
X58448528Y-10103220D01*
X58456961Y-10086671D01*
X58506183Y-9990066D01*
X58506183Y-9990065D01*
X58509719Y-9983126D01*
X58513861Y-9956978D01*
X58529585Y-9857696D01*
X58530804Y-9850000D01*
X58509719Y-9716874D01*
X58502382Y-9702475D01*
X58452064Y-9603719D01*
X58452063Y-9603717D01*
X58448528Y-9596780D01*
X58353220Y-9501472D01*
X58346283Y-9497937D01*
X58346281Y-9497936D01*
X58240066Y-9443817D01*
X58240065Y-9443817D01*
X58233126Y-9440281D01*
X58225432Y-9439062D01*
X58225431Y-9439062D01*
X58107696Y-9420415D01*
X58100000Y-9419196D01*
X58092304Y-9420415D01*
X57974569Y-9439062D01*
X57974568Y-9439062D01*
X57966874Y-9440281D01*
X57959935Y-9443817D01*
X57959934Y-9443817D01*
X57853719Y-9497936D01*
X57853717Y-9497937D01*
X57846780Y-9501472D01*
X57751472Y-9596780D01*
X57747937Y-9603717D01*
X57747936Y-9603719D01*
X57697618Y-9702475D01*
X57690281Y-9716874D01*
X57669196Y-9850000D01*
X3457585Y-9850000D01*
X3450386Y-9802401D01*
X3383710Y-9621179D01*
X3372885Y-9603719D01*
X3284599Y-9461330D01*
X3284598Y-9461329D01*
X3281955Y-9457066D01*
X3149279Y-9316765D01*
X3145174Y-9313891D01*
X3145171Y-9313888D01*
X2995208Y-9208884D01*
X2991102Y-9206009D01*
X2986506Y-9204020D01*
X2986504Y-9204019D01*
X2818481Y-9131309D01*
X2818482Y-9131309D01*
X2813885Y-9129320D01*
X2679062Y-9101154D01*
X2628592Y-9090610D01*
X2628590Y-9090610D01*
X2624867Y-9089832D01*
X2618532Y-9089500D01*
X2476741Y-9089500D01*
X2474253Y-9089753D01*
X2474248Y-9089753D01*
X2337877Y-9103605D01*
X2337873Y-9103606D01*
X2332890Y-9104112D01*
X2148627Y-9161856D01*
X1979739Y-9255472D01*
X1833125Y-9381136D01*
X1830048Y-9385103D01*
X1717844Y-9529754D01*
X1717841Y-9529759D01*
X1714773Y-9533714D01*
X1629519Y-9706974D01*
X1624936Y-9724569D01*
X1592264Y-9850000D01*
X1580845Y-9893837D01*
X1570739Y-10086671D01*
X200500Y-10086671D01*
X200500Y-7800000D01*
X36469196Y-7800000D01*
X36490281Y-7933126D01*
X36551472Y-8053220D01*
X36646780Y-8148528D01*
X36653717Y-8152063D01*
X36653719Y-8152064D01*
X36759934Y-8206183D01*
X36766874Y-8209719D01*
X36774568Y-8210938D01*
X36774569Y-8210938D01*
X36892304Y-8229585D01*
X36900000Y-8230804D01*
X36907696Y-8229585D01*
X37025431Y-8210938D01*
X37025432Y-8210938D01*
X37033126Y-8209719D01*
X37040066Y-8206183D01*
X37146281Y-8152064D01*
X37146283Y-8152063D01*
X37153220Y-8148528D01*
X37248528Y-8053220D01*
X37309719Y-7933126D01*
X37330804Y-7800000D01*
X44569196Y-7800000D01*
X44590281Y-7933126D01*
X44651472Y-8053220D01*
X44746780Y-8148528D01*
X44753717Y-8152063D01*
X44753719Y-8152064D01*
X44859934Y-8206183D01*
X44866874Y-8209719D01*
X44874568Y-8210938D01*
X44874569Y-8210938D01*
X44992304Y-8229585D01*
X45000000Y-8230804D01*
X45007696Y-8229585D01*
X45125431Y-8210938D01*
X45125432Y-8210938D01*
X45133126Y-8209719D01*
X45140066Y-8206183D01*
X45246281Y-8152064D01*
X45246283Y-8152063D01*
X45253220Y-8148528D01*
X45348528Y-8053220D01*
X45409719Y-7933126D01*
X45430804Y-7800000D01*
X52669196Y-7800000D01*
X52690281Y-7933126D01*
X52751472Y-8053220D01*
X52846780Y-8148528D01*
X52853717Y-8152063D01*
X52853719Y-8152064D01*
X52959934Y-8206183D01*
X52966874Y-8209719D01*
X52974568Y-8210938D01*
X52974569Y-8210938D01*
X53092304Y-8229585D01*
X53100000Y-8230804D01*
X53107696Y-8229585D01*
X53225431Y-8210938D01*
X53225432Y-8210938D01*
X53233126Y-8209719D01*
X53240066Y-8206183D01*
X53346281Y-8152064D01*
X53346283Y-8152063D01*
X53353220Y-8148528D01*
X53448528Y-8053220D01*
X53509719Y-7933126D01*
X53530804Y-7800000D01*
X53509719Y-7666874D01*
X53448528Y-7546780D01*
X53353220Y-7451472D01*
X53346283Y-7447937D01*
X53346281Y-7447936D01*
X53240066Y-7393817D01*
X53240065Y-7393817D01*
X53233126Y-7390281D01*
X53225432Y-7389062D01*
X53225431Y-7389062D01*
X53107696Y-7370415D01*
X53100000Y-7369196D01*
X53092304Y-7370415D01*
X52974569Y-7389062D01*
X52974568Y-7389062D01*
X52966874Y-7390281D01*
X52959935Y-7393817D01*
X52959934Y-7393817D01*
X52853719Y-7447936D01*
X52853717Y-7447937D01*
X52846780Y-7451472D01*
X52751472Y-7546780D01*
X52690281Y-7666874D01*
X52669196Y-7800000D01*
X45430804Y-7800000D01*
X45409719Y-7666874D01*
X45348528Y-7546780D01*
X45253220Y-7451472D01*
X45246283Y-7447937D01*
X45246281Y-7447936D01*
X45140066Y-7393817D01*
X45140065Y-7393817D01*
X45133126Y-7390281D01*
X45125432Y-7389062D01*
X45125431Y-7389062D01*
X45007696Y-7370415D01*
X45000000Y-7369196D01*
X44992304Y-7370415D01*
X44874569Y-7389062D01*
X44874568Y-7389062D01*
X44866874Y-7390281D01*
X44859935Y-7393817D01*
X44859934Y-7393817D01*
X44753719Y-7447936D01*
X44753717Y-7447937D01*
X44746780Y-7451472D01*
X44651472Y-7546780D01*
X44590281Y-7666874D01*
X44569196Y-7800000D01*
X37330804Y-7800000D01*
X37309719Y-7666874D01*
X37248528Y-7546780D01*
X37153220Y-7451472D01*
X37146283Y-7447937D01*
X37146281Y-7447936D01*
X37040066Y-7393817D01*
X37040065Y-7393817D01*
X37033126Y-7390281D01*
X37025432Y-7389062D01*
X37025431Y-7389062D01*
X36907696Y-7370415D01*
X36900000Y-7369196D01*
X36892304Y-7370415D01*
X36774569Y-7389062D01*
X36774568Y-7389062D01*
X36766874Y-7390281D01*
X36759935Y-7393817D01*
X36759934Y-7393817D01*
X36653719Y-7447936D01*
X36653717Y-7447937D01*
X36646780Y-7451472D01*
X36551472Y-7546780D01*
X36490281Y-7666874D01*
X36469196Y-7800000D01*
X200500Y-7800000D01*
X200500Y-6900000D01*
X28769196Y-6900000D01*
X28770415Y-6907696D01*
X28778655Y-6959719D01*
X28790281Y-7033126D01*
X28851472Y-7153220D01*
X28946780Y-7248528D01*
X28953717Y-7252063D01*
X28953719Y-7252064D01*
X29059934Y-7306183D01*
X29066874Y-7309719D01*
X29074568Y-7310938D01*
X29074569Y-7310938D01*
X29192304Y-7329585D01*
X29200000Y-7330804D01*
X29207696Y-7329585D01*
X29325431Y-7310938D01*
X29325432Y-7310938D01*
X29333126Y-7309719D01*
X29340066Y-7306183D01*
X29446281Y-7252064D01*
X29446283Y-7252063D01*
X29453220Y-7248528D01*
X29548528Y-7153220D01*
X29609719Y-7033126D01*
X29621346Y-6959719D01*
X29629585Y-6907696D01*
X29630804Y-6900000D01*
X29630414Y-6897540D01*
X29648492Y-6841901D01*
X29697992Y-6805937D01*
X29759175Y-6805936D01*
X29759932Y-6806182D01*
X29766874Y-6809719D01*
X29900000Y-6830804D01*
X29907696Y-6829585D01*
X30025431Y-6810938D01*
X30025432Y-6810938D01*
X30033126Y-6809719D01*
X30102112Y-6774569D01*
X30146281Y-6752064D01*
X30146283Y-6752063D01*
X30153220Y-6748528D01*
X30248528Y-6653220D01*
X30301121Y-6550000D01*
X36569196Y-6550000D01*
X36590281Y-6683126D01*
X36593817Y-6690065D01*
X36593817Y-6690066D01*
X36636874Y-6774569D01*
X36651472Y-6803220D01*
X36746780Y-6898528D01*
X36753717Y-6902063D01*
X36753719Y-6902064D01*
X36859934Y-6956183D01*
X36866874Y-6959719D01*
X36874568Y-6960938D01*
X36874569Y-6960938D01*
X36992304Y-6979585D01*
X37000000Y-6980804D01*
X37007696Y-6979585D01*
X37125431Y-6960938D01*
X37125432Y-6960938D01*
X37133126Y-6959719D01*
X37140066Y-6956183D01*
X37246281Y-6902064D01*
X37246283Y-6902063D01*
X37253220Y-6898528D01*
X37348528Y-6803220D01*
X37363127Y-6774569D01*
X37406183Y-6690066D01*
X37406183Y-6690065D01*
X37409719Y-6683126D01*
X37430804Y-6550000D01*
X44569196Y-6550000D01*
X44590281Y-6683126D01*
X44593817Y-6690065D01*
X44593817Y-6690066D01*
X44636874Y-6774569D01*
X44651472Y-6803220D01*
X44746780Y-6898528D01*
X44753717Y-6902063D01*
X44753719Y-6902064D01*
X44859934Y-6956183D01*
X44866874Y-6959719D01*
X44874568Y-6960938D01*
X44874569Y-6960938D01*
X44992304Y-6979585D01*
X45000000Y-6980804D01*
X45007696Y-6979585D01*
X45125431Y-6960938D01*
X45125432Y-6960938D01*
X45133126Y-6959719D01*
X45140066Y-6956183D01*
X45246281Y-6902064D01*
X45246283Y-6902063D01*
X45253220Y-6898528D01*
X45348528Y-6803220D01*
X45363127Y-6774569D01*
X45406183Y-6690066D01*
X45406183Y-6690065D01*
X45409719Y-6683126D01*
X45430804Y-6550000D01*
X52669196Y-6550000D01*
X52690281Y-6683126D01*
X52693817Y-6690065D01*
X52693817Y-6690066D01*
X52736874Y-6774569D01*
X52751472Y-6803220D01*
X52846780Y-6898528D01*
X52853717Y-6902063D01*
X52853719Y-6902064D01*
X52959934Y-6956183D01*
X52966874Y-6959719D01*
X52974568Y-6960938D01*
X52974569Y-6960938D01*
X53092304Y-6979585D01*
X53100000Y-6980804D01*
X53107696Y-6979585D01*
X53225431Y-6960938D01*
X53225432Y-6960938D01*
X53233126Y-6959719D01*
X53240066Y-6956183D01*
X53346281Y-6902064D01*
X53346283Y-6902063D01*
X53353220Y-6898528D01*
X53448528Y-6803220D01*
X53463127Y-6774569D01*
X53506183Y-6690066D01*
X53506183Y-6690065D01*
X53509719Y-6683126D01*
X53530804Y-6550000D01*
X53521945Y-6494064D01*
X53510938Y-6424569D01*
X53510938Y-6424568D01*
X53509719Y-6416874D01*
X53501121Y-6400000D01*
X53452064Y-6303719D01*
X53452063Y-6303717D01*
X53448528Y-6296780D01*
X53353220Y-6201472D01*
X53346283Y-6197937D01*
X53346281Y-6197936D01*
X53240066Y-6143817D01*
X53240065Y-6143817D01*
X53233126Y-6140281D01*
X53225432Y-6139062D01*
X53225431Y-6139062D01*
X53107696Y-6120415D01*
X53100000Y-6119196D01*
X53092304Y-6120415D01*
X52974569Y-6139062D01*
X52974568Y-6139062D01*
X52966874Y-6140281D01*
X52959935Y-6143817D01*
X52959934Y-6143817D01*
X52853719Y-6197936D01*
X52853717Y-6197937D01*
X52846780Y-6201472D01*
X52751472Y-6296780D01*
X52747937Y-6303717D01*
X52747936Y-6303719D01*
X52698879Y-6400000D01*
X52690281Y-6416874D01*
X52689062Y-6424568D01*
X52689062Y-6424569D01*
X52678055Y-6494064D01*
X52669196Y-6550000D01*
X45430804Y-6550000D01*
X45421945Y-6494064D01*
X45410938Y-6424569D01*
X45410938Y-6424568D01*
X45409719Y-6416874D01*
X45401121Y-6400000D01*
X45352064Y-6303719D01*
X45352063Y-6303717D01*
X45348528Y-6296780D01*
X45253220Y-6201472D01*
X45246283Y-6197937D01*
X45246281Y-6197936D01*
X45140066Y-6143817D01*
X45140065Y-6143817D01*
X45133126Y-6140281D01*
X45125432Y-6139062D01*
X45125431Y-6139062D01*
X45007696Y-6120415D01*
X45000000Y-6119196D01*
X44992304Y-6120415D01*
X44874569Y-6139062D01*
X44874568Y-6139062D01*
X44866874Y-6140281D01*
X44859935Y-6143817D01*
X44859934Y-6143817D01*
X44753719Y-6197936D01*
X44753717Y-6197937D01*
X44746780Y-6201472D01*
X44651472Y-6296780D01*
X44647937Y-6303717D01*
X44647936Y-6303719D01*
X44598879Y-6400000D01*
X44590281Y-6416874D01*
X44589062Y-6424568D01*
X44589062Y-6424569D01*
X44578055Y-6494064D01*
X44569196Y-6550000D01*
X37430804Y-6550000D01*
X37421945Y-6494064D01*
X37410938Y-6424569D01*
X37410938Y-6424568D01*
X37409719Y-6416874D01*
X37401121Y-6400000D01*
X37352064Y-6303719D01*
X37352063Y-6303717D01*
X37348528Y-6296780D01*
X37253220Y-6201472D01*
X37246283Y-6197937D01*
X37246281Y-6197936D01*
X37140066Y-6143817D01*
X37140065Y-6143817D01*
X37133126Y-6140281D01*
X37125432Y-6139062D01*
X37125431Y-6139062D01*
X37007696Y-6120415D01*
X37000000Y-6119196D01*
X36992304Y-6120415D01*
X36874569Y-6139062D01*
X36874568Y-6139062D01*
X36866874Y-6140281D01*
X36859935Y-6143817D01*
X36859934Y-6143817D01*
X36753719Y-6197936D01*
X36753717Y-6197937D01*
X36746780Y-6201472D01*
X36651472Y-6296780D01*
X36647937Y-6303717D01*
X36647936Y-6303719D01*
X36598879Y-6400000D01*
X36590281Y-6416874D01*
X36589062Y-6424568D01*
X36589062Y-6424569D01*
X36578055Y-6494064D01*
X36569196Y-6550000D01*
X30301121Y-6550000D01*
X30309719Y-6533126D01*
X30319845Y-6469196D01*
X30329585Y-6407696D01*
X30330804Y-6400000D01*
X30309719Y-6266874D01*
X30291926Y-6231953D01*
X30252064Y-6153719D01*
X30252063Y-6153717D01*
X30248528Y-6146780D01*
X30153220Y-6051472D01*
X30146283Y-6047937D01*
X30146281Y-6047936D01*
X30040066Y-5993817D01*
X30040065Y-5993817D01*
X30033126Y-5990281D01*
X30025432Y-5989062D01*
X30025431Y-5989062D01*
X29907696Y-5970415D01*
X29900000Y-5969196D01*
X29892304Y-5970415D01*
X29774569Y-5989062D01*
X29774568Y-5989062D01*
X29766874Y-5990281D01*
X29759935Y-5993817D01*
X29759934Y-5993817D01*
X29653719Y-6047936D01*
X29653717Y-6047937D01*
X29646780Y-6051472D01*
X29551472Y-6146780D01*
X29547937Y-6153717D01*
X29547936Y-6153719D01*
X29508074Y-6231953D01*
X29490281Y-6266874D01*
X29469196Y-6400000D01*
X29469586Y-6402460D01*
X29451508Y-6458099D01*
X29402008Y-6494063D01*
X29340825Y-6494064D01*
X29340068Y-6493818D01*
X29333126Y-6490281D01*
X29200000Y-6469196D01*
X29192304Y-6470415D01*
X29074569Y-6489062D01*
X29074568Y-6489062D01*
X29066874Y-6490281D01*
X29059935Y-6493817D01*
X29059934Y-6493817D01*
X28953719Y-6547936D01*
X28953717Y-6547937D01*
X28946780Y-6551472D01*
X28851472Y-6646780D01*
X28847937Y-6653717D01*
X28847936Y-6653719D01*
X28802434Y-6743022D01*
X28790281Y-6766874D01*
X28789062Y-6774568D01*
X28789062Y-6774569D01*
X28778398Y-6841901D01*
X28769196Y-6900000D01*
X200500Y-6900000D01*
X200500Y-3485572D01*
X744511Y-3485572D01*
X744675Y-3488553D01*
X744675Y-3488560D01*
X760052Y-3767965D01*
X762735Y-3816712D01*
X820608Y-4143265D01*
X821479Y-4146123D01*
X821480Y-4146127D01*
X850816Y-4242380D01*
X917294Y-4460500D01*
X918499Y-4463226D01*
X918501Y-4463231D01*
X1010898Y-4672228D01*
X1051391Y-4763821D01*
X1220957Y-5048836D01*
X1222777Y-5051195D01*
X1222781Y-5051201D01*
X1241113Y-5074962D01*
X1423536Y-5311415D01*
X1425626Y-5313538D01*
X1615867Y-5506791D01*
X1656193Y-5547756D01*
X1658521Y-5549611D01*
X1658522Y-5549612D01*
X1730912Y-5607297D01*
X1915558Y-5754434D01*
X1918098Y-5755999D01*
X1918097Y-5755999D01*
X2195336Y-5926891D01*
X2195341Y-5926894D01*
X2197874Y-5928455D01*
X2200582Y-5929704D01*
X2200585Y-5929705D01*
X2286248Y-5969196D01*
X2499051Y-6067300D01*
X2501895Y-6068216D01*
X2501898Y-6068217D01*
X2527371Y-6076420D01*
X2814728Y-6168957D01*
X2817647Y-6169522D01*
X2817648Y-6169522D01*
X3137416Y-6231389D01*
X3137419Y-6231389D01*
X3140332Y-6231953D01*
X3143294Y-6232163D01*
X3143296Y-6232163D01*
X3183860Y-6235035D01*
X3402279Y-6250500D01*
X3583386Y-6250500D01*
X3584840Y-6250412D01*
X3584852Y-6250412D01*
X3828075Y-6235749D01*
X3828079Y-6235748D01*
X3831040Y-6235570D01*
X4157285Y-6175987D01*
X4182869Y-6168043D01*
X4471163Y-6078525D01*
X4471167Y-6078523D01*
X4474009Y-6077641D01*
X4476728Y-6076422D01*
X4476733Y-6076420D01*
X4773905Y-5943178D01*
X4773911Y-5943175D01*
X4776625Y-5941958D01*
X4796978Y-5929705D01*
X5058192Y-5772441D01*
X5058194Y-5772440D01*
X5060748Y-5770902D01*
X5063100Y-5769068D01*
X5063104Y-5769065D01*
X5319903Y-5568792D01*
X5319908Y-5568788D01*
X5322263Y-5566951D01*
X5557382Y-5333060D01*
X5656359Y-5207508D01*
X5760851Y-5074962D01*
X5760856Y-5074955D01*
X5762699Y-5072617D01*
X5777187Y-5048836D01*
X5933690Y-4791937D01*
X5935240Y-4789393D01*
X6007675Y-4630082D01*
X6009867Y-4625262D01*
X7404520Y-4625262D01*
X7405526Y-4637244D01*
X7418303Y-4789393D01*
X7421759Y-4830553D01*
X7478544Y-5028586D01*
X7572712Y-5211818D01*
X7700677Y-5373270D01*
X7704357Y-5376402D01*
X7704359Y-5376404D01*
X7817017Y-5472283D01*
X7857564Y-5506791D01*
X7861787Y-5509151D01*
X7861791Y-5509154D01*
X7978702Y-5574493D01*
X8037398Y-5607297D01*
X8041996Y-5608791D01*
X8228724Y-5669463D01*
X8228726Y-5669464D01*
X8233329Y-5670959D01*
X8437894Y-5695351D01*
X8442716Y-5694980D01*
X8442719Y-5694980D01*
X8510541Y-5689761D01*
X8643300Y-5679546D01*
X8841725Y-5624145D01*
X8846038Y-5621966D01*
X8846044Y-5621964D01*
X9021289Y-5533441D01*
X9021291Y-5533440D01*
X9025610Y-5531258D01*
X9060943Y-5503653D01*
X9184135Y-5407406D01*
X9184139Y-5407402D01*
X9187951Y-5404424D01*
X9322564Y-5248472D01*
X9341231Y-5215613D01*
X9421934Y-5073550D01*
X9421935Y-5073547D01*
X9424323Y-5069344D01*
X9430359Y-5051201D01*
X9487824Y-4878454D01*
X9487824Y-4878452D01*
X9489351Y-4873863D01*
X9503598Y-4761089D01*
X9514823Y-4672228D01*
X9515171Y-4669474D01*
X9515583Y-4640000D01*
X9515313Y-4637244D01*
X9514138Y-4625262D01*
X9944520Y-4625262D01*
X9945526Y-4637244D01*
X9958303Y-4789393D01*
X9961759Y-4830553D01*
X10018544Y-5028586D01*
X10112712Y-5211818D01*
X10240677Y-5373270D01*
X10244357Y-5376402D01*
X10244359Y-5376404D01*
X10357017Y-5472283D01*
X10397564Y-5506791D01*
X10401787Y-5509151D01*
X10401791Y-5509154D01*
X10518702Y-5574493D01*
X10577398Y-5607297D01*
X10581996Y-5608791D01*
X10768724Y-5669463D01*
X10768726Y-5669464D01*
X10773329Y-5670959D01*
X10977894Y-5695351D01*
X10982716Y-5694980D01*
X10982719Y-5694980D01*
X11050541Y-5689761D01*
X11183300Y-5679546D01*
X11381725Y-5624145D01*
X11386038Y-5621966D01*
X11386044Y-5621964D01*
X11561289Y-5533441D01*
X11561291Y-5533440D01*
X11565610Y-5531258D01*
X11600943Y-5503653D01*
X11724135Y-5407406D01*
X11724139Y-5407402D01*
X11727951Y-5404424D01*
X11862564Y-5248472D01*
X11881231Y-5215613D01*
X11961934Y-5073550D01*
X11961935Y-5073547D01*
X11964323Y-5069344D01*
X11970359Y-5051201D01*
X12027824Y-4878454D01*
X12027824Y-4878452D01*
X12029351Y-4873863D01*
X12043598Y-4761089D01*
X12054823Y-4672228D01*
X12055171Y-4669474D01*
X12055583Y-4640000D01*
X12055313Y-4637244D01*
X12035952Y-4439780D01*
X12035951Y-4439776D01*
X12035480Y-4434970D01*
X11975935Y-4237749D01*
X11879218Y-4055849D01*
X11749011Y-3896200D01*
X11649328Y-3813735D01*
X11594002Y-3767965D01*
X11594000Y-3767964D01*
X11590275Y-3764882D01*
X11409055Y-3666897D01*
X11345855Y-3647333D01*
X11216875Y-3607407D01*
X11216871Y-3607406D01*
X11212254Y-3605977D01*
X11207446Y-3605472D01*
X11207443Y-3605471D01*
X11012185Y-3584949D01*
X11012183Y-3584949D01*
X11007369Y-3584443D01*
X10954877Y-3589220D01*
X10807022Y-3602675D01*
X10807017Y-3602676D01*
X10802203Y-3603114D01*
X10604572Y-3661280D01*
X10600288Y-3663519D01*
X10600287Y-3663520D01*
X10589428Y-3669197D01*
X10422002Y-3756726D01*
X10418231Y-3759758D01*
X10265220Y-3882781D01*
X10265217Y-3882783D01*
X10261447Y-3885815D01*
X10258333Y-3889526D01*
X10258332Y-3889527D01*
X10204469Y-3953719D01*
X10129024Y-4043630D01*
X10126689Y-4047878D01*
X10126688Y-4047879D01*
X10112015Y-4074569D01*
X10029776Y-4224162D01*
X9967484Y-4420532D01*
X9966944Y-4425344D01*
X9966944Y-4425345D01*
X9946127Y-4610938D01*
X9944520Y-4625262D01*
X9514138Y-4625262D01*
X9495952Y-4439780D01*
X9495951Y-4439776D01*
X9495480Y-4434970D01*
X9435935Y-4237749D01*
X9339218Y-4055849D01*
X9209011Y-3896200D01*
X9109328Y-3813735D01*
X9054002Y-3767965D01*
X9054000Y-3767964D01*
X9050275Y-3764882D01*
X8869055Y-3666897D01*
X8805855Y-3647333D01*
X8676875Y-3607407D01*
X8676871Y-3607406D01*
X8672254Y-3605977D01*
X8667446Y-3605472D01*
X8667443Y-3605471D01*
X8472185Y-3584949D01*
X8472183Y-3584949D01*
X8467369Y-3584443D01*
X8414877Y-3589220D01*
X8267022Y-3602675D01*
X8267017Y-3602676D01*
X8262203Y-3603114D01*
X8064572Y-3661280D01*
X8060288Y-3663519D01*
X8060287Y-3663520D01*
X8049428Y-3669197D01*
X7882002Y-3756726D01*
X7878231Y-3759758D01*
X7725220Y-3882781D01*
X7725217Y-3882783D01*
X7721447Y-3885815D01*
X7718333Y-3889526D01*
X7718332Y-3889527D01*
X7664469Y-3953719D01*
X7589024Y-4043630D01*
X7586689Y-4047878D01*
X7586688Y-4047879D01*
X7572015Y-4074569D01*
X7489776Y-4224162D01*
X7427484Y-4420532D01*
X7426944Y-4425344D01*
X7426944Y-4425345D01*
X7406127Y-4610938D01*
X7404520Y-4625262D01*
X6009867Y-4625262D01*
X6071270Y-4490212D01*
X6071271Y-4490208D01*
X6072506Y-4487493D01*
X6172509Y-4171288D01*
X6214727Y-3946780D01*
X6233248Y-3848290D01*
X6233248Y-3848287D01*
X6233799Y-3845359D01*
X6255489Y-3514428D01*
X6254066Y-3488560D01*
X6237429Y-3186265D01*
X6237429Y-3186262D01*
X6237265Y-3183288D01*
X6199421Y-2969748D01*
X7409500Y-2969748D01*
X7413779Y-2991258D01*
X7417890Y-3011926D01*
X7421133Y-3028231D01*
X7465448Y-3094552D01*
X7531769Y-3138867D01*
X7541332Y-3140769D01*
X7541334Y-3140770D01*
X7564005Y-3145279D01*
X7590252Y-3150500D01*
X9329748Y-3150500D01*
X9355995Y-3145279D01*
X9378666Y-3140770D01*
X9378668Y-3140769D01*
X9388231Y-3138867D01*
X9454552Y-3094552D01*
X9498867Y-3028231D01*
X9502111Y-3011926D01*
X9506221Y-2991258D01*
X9510500Y-2969748D01*
X9510500Y-2085262D01*
X9944520Y-2085262D01*
X9944925Y-2090082D01*
X9955274Y-2213321D01*
X9961759Y-2290553D01*
X9963092Y-2295201D01*
X9963092Y-2295202D01*
X9988537Y-2383938D01*
X10018544Y-2488586D01*
X10112712Y-2671818D01*
X10240677Y-2833270D01*
X10244357Y-2836402D01*
X10244359Y-2836404D01*
X10320638Y-2901322D01*
X10397564Y-2966791D01*
X10401787Y-2969151D01*
X10401791Y-2969154D01*
X10475795Y-3010513D01*
X10577398Y-3067297D01*
X10581996Y-3068791D01*
X10768724Y-3129463D01*
X10768726Y-3129464D01*
X10773329Y-3130959D01*
X10977894Y-3155351D01*
X10982716Y-3154980D01*
X10982719Y-3154980D01*
X11053259Y-3149552D01*
X11183300Y-3139546D01*
X11381725Y-3084145D01*
X11386038Y-3081966D01*
X11386044Y-3081964D01*
X11561289Y-2993441D01*
X11561291Y-2993440D01*
X11565610Y-2991258D01*
X11572295Y-2986035D01*
X11724135Y-2867406D01*
X11724139Y-2867402D01*
X11727951Y-2864424D01*
X11732049Y-2859677D01*
X11787313Y-2795651D01*
X11862564Y-2708472D01*
X11875015Y-2686555D01*
X11961934Y-2533550D01*
X11961935Y-2533547D01*
X11964323Y-2529344D01*
X11968977Y-2515356D01*
X12013159Y-2382539D01*
X12019122Y-2364612D01*
X12055431Y-2315364D01*
X12113752Y-2296863D01*
X12171809Y-2316177D01*
X12207427Y-2365926D01*
X12209639Y-2374096D01*
X12238807Y-2503524D01*
X12241231Y-2511258D01*
X12322183Y-2710620D01*
X12325840Y-2717860D01*
X12438266Y-2901322D01*
X12443056Y-2907867D01*
X12583935Y-3070502D01*
X12589729Y-3076176D01*
X12755292Y-3213629D01*
X12761921Y-3218270D01*
X12947713Y-3326838D01*
X12955008Y-3330334D01*
X13156038Y-3407099D01*
X13163808Y-3409357D01*
X13267991Y-3430553D01*
X13321244Y-3460682D01*
X13346618Y-3516359D01*
X13334419Y-3576316D01*
X13289309Y-3617652D01*
X13276206Y-3622538D01*
X13144572Y-3661280D01*
X13140288Y-3663519D01*
X13140287Y-3663520D01*
X13129428Y-3669197D01*
X12962002Y-3756726D01*
X12958231Y-3759758D01*
X12805220Y-3882781D01*
X12805217Y-3882783D01*
X12801447Y-3885815D01*
X12798333Y-3889526D01*
X12798332Y-3889527D01*
X12744469Y-3953719D01*
X12669024Y-4043630D01*
X12666689Y-4047878D01*
X12666688Y-4047879D01*
X12652015Y-4074569D01*
X12569776Y-4224162D01*
X12507484Y-4420532D01*
X12506944Y-4425344D01*
X12506944Y-4425345D01*
X12486127Y-4610938D01*
X12484520Y-4625262D01*
X12485526Y-4637244D01*
X12498303Y-4789393D01*
X12501759Y-4830553D01*
X12558544Y-5028586D01*
X12652712Y-5211818D01*
X12780677Y-5373270D01*
X12784357Y-5376402D01*
X12784359Y-5376404D01*
X12897017Y-5472283D01*
X12937564Y-5506791D01*
X12941787Y-5509151D01*
X12941791Y-5509154D01*
X13058702Y-5574493D01*
X13117398Y-5607297D01*
X13121996Y-5608791D01*
X13308724Y-5669463D01*
X13308726Y-5669464D01*
X13313329Y-5670959D01*
X13517894Y-5695351D01*
X13522716Y-5694980D01*
X13522719Y-5694980D01*
X13590541Y-5689761D01*
X13723300Y-5679546D01*
X13921725Y-5624145D01*
X13926038Y-5621966D01*
X13926044Y-5621964D01*
X14101289Y-5533441D01*
X14101291Y-5533440D01*
X14105610Y-5531258D01*
X14140943Y-5503653D01*
X14264135Y-5407406D01*
X14264139Y-5407402D01*
X14267951Y-5404424D01*
X14402564Y-5248472D01*
X14421231Y-5215613D01*
X14501934Y-5073550D01*
X14501935Y-5073547D01*
X14504323Y-5069344D01*
X14510359Y-5051201D01*
X14567824Y-4878454D01*
X14567824Y-4878452D01*
X14569351Y-4873863D01*
X14583598Y-4761089D01*
X14594823Y-4672228D01*
X14595171Y-4669474D01*
X14595583Y-4640000D01*
X14595313Y-4637244D01*
X14575952Y-4439780D01*
X14575951Y-4439776D01*
X14575480Y-4434970D01*
X14515935Y-4237749D01*
X14419218Y-4055849D01*
X14289011Y-3896200D01*
X14189328Y-3813735D01*
X14134002Y-3767965D01*
X14134000Y-3767964D01*
X14130275Y-3764882D01*
X13949055Y-3666897D01*
X13895038Y-3650176D01*
X13812061Y-3624490D01*
X13762063Y-3589220D01*
X13742346Y-3531299D01*
X13756501Y-3485572D01*
X20744511Y-3485572D01*
X20744675Y-3488553D01*
X20744675Y-3488560D01*
X20760052Y-3767965D01*
X20762735Y-3816712D01*
X20820608Y-4143265D01*
X20821479Y-4146123D01*
X20821480Y-4146127D01*
X20850816Y-4242380D01*
X20917294Y-4460500D01*
X20918499Y-4463226D01*
X20918501Y-4463231D01*
X21010898Y-4672228D01*
X21051391Y-4763821D01*
X21220957Y-5048836D01*
X21222777Y-5051195D01*
X21222781Y-5051201D01*
X21241113Y-5074962D01*
X21423536Y-5311415D01*
X21425626Y-5313538D01*
X21615867Y-5506791D01*
X21656193Y-5547756D01*
X21658521Y-5549611D01*
X21658522Y-5549612D01*
X21730912Y-5607297D01*
X21915558Y-5754434D01*
X21918098Y-5755999D01*
X21918097Y-5755999D01*
X22195336Y-5926891D01*
X22195341Y-5926894D01*
X22197874Y-5928455D01*
X22200582Y-5929704D01*
X22200585Y-5929705D01*
X22286248Y-5969196D01*
X22499051Y-6067300D01*
X22501895Y-6068216D01*
X22501898Y-6068217D01*
X22527371Y-6076420D01*
X22814728Y-6168957D01*
X22817647Y-6169522D01*
X22817648Y-6169522D01*
X23137416Y-6231389D01*
X23137419Y-6231389D01*
X23140332Y-6231953D01*
X23143294Y-6232163D01*
X23143296Y-6232163D01*
X23183860Y-6235035D01*
X23402279Y-6250500D01*
X23583386Y-6250500D01*
X23584840Y-6250412D01*
X23584852Y-6250412D01*
X23828075Y-6235749D01*
X23828079Y-6235748D01*
X23831040Y-6235570D01*
X24157285Y-6175987D01*
X24182869Y-6168043D01*
X24471163Y-6078525D01*
X24471167Y-6078523D01*
X24474009Y-6077641D01*
X24476728Y-6076422D01*
X24476733Y-6076420D01*
X24773905Y-5943178D01*
X24773911Y-5943175D01*
X24776625Y-5941958D01*
X24796978Y-5929705D01*
X25058192Y-5772441D01*
X25058194Y-5772440D01*
X25060748Y-5770902D01*
X25063100Y-5769068D01*
X25063104Y-5769065D01*
X25319903Y-5568792D01*
X25319908Y-5568788D01*
X25322263Y-5566951D01*
X25557382Y-5333060D01*
X25656359Y-5207508D01*
X25760851Y-5074962D01*
X25760856Y-5074955D01*
X25762699Y-5072617D01*
X25777187Y-5048836D01*
X25933690Y-4791937D01*
X25935240Y-4789393D01*
X26007675Y-4630082D01*
X26071270Y-4490212D01*
X26071271Y-4490208D01*
X26072506Y-4487493D01*
X26163429Y-4200000D01*
X30469196Y-4200000D01*
X30490281Y-4333126D01*
X30493817Y-4340065D01*
X30493817Y-4340066D01*
X30534817Y-4420532D01*
X30551472Y-4453220D01*
X30646780Y-4548528D01*
X30653717Y-4552063D01*
X30653719Y-4552064D01*
X30759934Y-4606183D01*
X30766874Y-4609719D01*
X30774568Y-4610938D01*
X30774569Y-4610938D01*
X30892304Y-4629585D01*
X30900000Y-4630804D01*
X30907696Y-4629585D01*
X31025431Y-4610938D01*
X31025432Y-4610938D01*
X31033126Y-4609719D01*
X31040066Y-4606183D01*
X31146281Y-4552064D01*
X31146283Y-4552063D01*
X31153220Y-4548528D01*
X31248528Y-4453220D01*
X31265184Y-4420532D01*
X31306183Y-4340066D01*
X31306183Y-4340065D01*
X31309719Y-4333126D01*
X31330804Y-4200000D01*
X38569196Y-4200000D01*
X38590281Y-4333126D01*
X38593817Y-4340065D01*
X38593817Y-4340066D01*
X38634817Y-4420532D01*
X38651472Y-4453220D01*
X38746780Y-4548528D01*
X38753717Y-4552063D01*
X38753719Y-4552064D01*
X38859934Y-4606183D01*
X38866874Y-4609719D01*
X38874568Y-4610938D01*
X38874569Y-4610938D01*
X38992304Y-4629585D01*
X39000000Y-4630804D01*
X39007696Y-4629585D01*
X39125431Y-4610938D01*
X39125432Y-4610938D01*
X39133126Y-4609719D01*
X39140066Y-4606183D01*
X39246281Y-4552064D01*
X39246283Y-4552063D01*
X39253220Y-4548528D01*
X39348528Y-4453220D01*
X39365184Y-4420532D01*
X39406183Y-4340066D01*
X39406183Y-4340065D01*
X39409719Y-4333126D01*
X39430804Y-4200000D01*
X46669196Y-4200000D01*
X46690281Y-4333126D01*
X46693817Y-4340065D01*
X46693817Y-4340066D01*
X46734817Y-4420532D01*
X46751472Y-4453220D01*
X46846780Y-4548528D01*
X46853717Y-4552063D01*
X46853719Y-4552064D01*
X46959934Y-4606183D01*
X46966874Y-4609719D01*
X46974568Y-4610938D01*
X46974569Y-4610938D01*
X47092304Y-4629585D01*
X47100000Y-4630804D01*
X47107696Y-4629585D01*
X47225431Y-4610938D01*
X47225432Y-4610938D01*
X47233126Y-4609719D01*
X47240066Y-4606183D01*
X47346281Y-4552064D01*
X47346283Y-4552063D01*
X47353220Y-4548528D01*
X47448528Y-4453220D01*
X47465184Y-4420532D01*
X47506183Y-4340066D01*
X47506183Y-4340065D01*
X47509719Y-4333126D01*
X47530804Y-4200000D01*
X54669196Y-4200000D01*
X54690281Y-4333126D01*
X54693817Y-4340065D01*
X54693817Y-4340066D01*
X54734817Y-4420532D01*
X54751472Y-4453220D01*
X54846780Y-4548528D01*
X54853717Y-4552063D01*
X54853719Y-4552064D01*
X54959934Y-4606183D01*
X54966874Y-4609719D01*
X54974568Y-4610938D01*
X54974569Y-4610938D01*
X55092304Y-4629585D01*
X55100000Y-4630804D01*
X55107696Y-4629585D01*
X55225431Y-4610938D01*
X55225432Y-4610938D01*
X55233126Y-4609719D01*
X55240066Y-4606183D01*
X55346281Y-4552064D01*
X55346283Y-4552063D01*
X55353220Y-4548528D01*
X55448528Y-4453220D01*
X55465184Y-4420532D01*
X55506183Y-4340066D01*
X55506183Y-4340065D01*
X55509719Y-4333126D01*
X55530804Y-4200000D01*
X55509719Y-4066874D01*
X55506183Y-4059934D01*
X55452064Y-3953719D01*
X55452063Y-3953717D01*
X55448528Y-3946780D01*
X55353220Y-3851472D01*
X55346283Y-3847937D01*
X55346281Y-3847936D01*
X55240066Y-3793817D01*
X55240065Y-3793817D01*
X55233126Y-3790281D01*
X55225432Y-3789062D01*
X55225431Y-3789062D01*
X55107696Y-3770415D01*
X55100000Y-3769196D01*
X55092304Y-3770415D01*
X54974569Y-3789062D01*
X54974568Y-3789062D01*
X54966874Y-3790281D01*
X54959935Y-3793817D01*
X54959934Y-3793817D01*
X54853719Y-3847936D01*
X54853717Y-3847937D01*
X54846780Y-3851472D01*
X54751472Y-3946780D01*
X54747937Y-3953717D01*
X54747936Y-3953719D01*
X54693817Y-4059934D01*
X54690281Y-4066874D01*
X54669196Y-4200000D01*
X47530804Y-4200000D01*
X47509719Y-4066874D01*
X47506183Y-4059934D01*
X47452064Y-3953719D01*
X47452063Y-3953717D01*
X47448528Y-3946780D01*
X47353220Y-3851472D01*
X47346283Y-3847937D01*
X47346281Y-3847936D01*
X47240066Y-3793817D01*
X47240065Y-3793817D01*
X47233126Y-3790281D01*
X47225432Y-3789062D01*
X47225431Y-3789062D01*
X47107696Y-3770415D01*
X47100000Y-3769196D01*
X47092304Y-3770415D01*
X46974569Y-3789062D01*
X46974568Y-3789062D01*
X46966874Y-3790281D01*
X46959935Y-3793817D01*
X46959934Y-3793817D01*
X46853719Y-3847936D01*
X46853717Y-3847937D01*
X46846780Y-3851472D01*
X46751472Y-3946780D01*
X46747937Y-3953717D01*
X46747936Y-3953719D01*
X46693817Y-4059934D01*
X46690281Y-4066874D01*
X46669196Y-4200000D01*
X39430804Y-4200000D01*
X39409719Y-4066874D01*
X39406183Y-4059934D01*
X39352064Y-3953719D01*
X39352063Y-3953717D01*
X39348528Y-3946780D01*
X39253220Y-3851472D01*
X39246283Y-3847937D01*
X39246281Y-3847936D01*
X39140066Y-3793817D01*
X39140065Y-3793817D01*
X39133126Y-3790281D01*
X39125432Y-3789062D01*
X39125431Y-3789062D01*
X39007696Y-3770415D01*
X39000000Y-3769196D01*
X38992304Y-3770415D01*
X38874569Y-3789062D01*
X38874568Y-3789062D01*
X38866874Y-3790281D01*
X38859935Y-3793817D01*
X38859934Y-3793817D01*
X38753719Y-3847936D01*
X38753717Y-3847937D01*
X38746780Y-3851472D01*
X38651472Y-3946780D01*
X38647937Y-3953717D01*
X38647936Y-3953719D01*
X38593817Y-4059934D01*
X38590281Y-4066874D01*
X38569196Y-4200000D01*
X31330804Y-4200000D01*
X31309719Y-4066874D01*
X31306183Y-4059934D01*
X31252064Y-3953719D01*
X31252063Y-3953717D01*
X31248528Y-3946780D01*
X31153220Y-3851472D01*
X31146283Y-3847937D01*
X31146281Y-3847936D01*
X31040066Y-3793817D01*
X31040065Y-3793817D01*
X31033126Y-3790281D01*
X31025432Y-3789062D01*
X31025431Y-3789062D01*
X30907696Y-3770415D01*
X30900000Y-3769196D01*
X30892304Y-3770415D01*
X30774569Y-3789062D01*
X30774568Y-3789062D01*
X30766874Y-3790281D01*
X30759935Y-3793817D01*
X30759934Y-3793817D01*
X30653719Y-3847936D01*
X30653717Y-3847937D01*
X30646780Y-3851472D01*
X30551472Y-3946780D01*
X30547937Y-3953717D01*
X30547936Y-3953719D01*
X30493817Y-4059934D01*
X30490281Y-4066874D01*
X30469196Y-4200000D01*
X26163429Y-4200000D01*
X26172509Y-4171288D01*
X26214727Y-3946780D01*
X26233248Y-3848290D01*
X26233248Y-3848287D01*
X26233799Y-3845359D01*
X26255489Y-3514428D01*
X26254066Y-3488560D01*
X26253902Y-3485572D01*
X58744511Y-3485572D01*
X58744675Y-3488553D01*
X58744675Y-3488560D01*
X58760052Y-3767965D01*
X58762735Y-3816712D01*
X58820608Y-4143265D01*
X58821479Y-4146123D01*
X58821480Y-4146127D01*
X58850816Y-4242380D01*
X58917294Y-4460500D01*
X58918499Y-4463226D01*
X58918501Y-4463231D01*
X59010898Y-4672228D01*
X59051391Y-4763821D01*
X59220957Y-5048836D01*
X59222777Y-5051195D01*
X59222781Y-5051201D01*
X59241113Y-5074962D01*
X59423536Y-5311415D01*
X59425626Y-5313538D01*
X59615867Y-5506791D01*
X59656193Y-5547756D01*
X59658521Y-5549611D01*
X59658522Y-5549612D01*
X59730912Y-5607297D01*
X59915558Y-5754434D01*
X59918098Y-5755999D01*
X59918097Y-5755999D01*
X60195336Y-5926891D01*
X60195341Y-5926894D01*
X60197874Y-5928455D01*
X60200582Y-5929704D01*
X60200585Y-5929705D01*
X60286248Y-5969196D01*
X60499051Y-6067300D01*
X60501895Y-6068216D01*
X60501898Y-6068217D01*
X60527371Y-6076420D01*
X60814728Y-6168957D01*
X60817647Y-6169522D01*
X60817648Y-6169522D01*
X61137416Y-6231389D01*
X61137419Y-6231389D01*
X61140332Y-6231953D01*
X61143294Y-6232163D01*
X61143296Y-6232163D01*
X61183860Y-6235035D01*
X61402279Y-6250500D01*
X61583386Y-6250500D01*
X61584840Y-6250412D01*
X61584852Y-6250412D01*
X61828075Y-6235749D01*
X61828079Y-6235748D01*
X61831040Y-6235570D01*
X62157285Y-6175987D01*
X62182869Y-6168043D01*
X62471163Y-6078525D01*
X62471167Y-6078523D01*
X62474009Y-6077641D01*
X62476728Y-6076422D01*
X62476733Y-6076420D01*
X62773905Y-5943178D01*
X62773911Y-5943175D01*
X62776625Y-5941958D01*
X62796978Y-5929705D01*
X63058192Y-5772441D01*
X63058194Y-5772440D01*
X63060748Y-5770902D01*
X63063100Y-5769068D01*
X63063104Y-5769065D01*
X63319903Y-5568792D01*
X63319908Y-5568788D01*
X63322263Y-5566951D01*
X63557382Y-5333060D01*
X63656359Y-5207508D01*
X63760851Y-5074962D01*
X63760856Y-5074955D01*
X63762699Y-5072617D01*
X63777187Y-5048836D01*
X63933690Y-4791937D01*
X63935240Y-4789393D01*
X64007675Y-4630082D01*
X64071270Y-4490212D01*
X64071271Y-4490208D01*
X64072506Y-4487493D01*
X64172509Y-4171288D01*
X64214727Y-3946780D01*
X64233248Y-3848290D01*
X64233248Y-3848287D01*
X64233799Y-3845359D01*
X64255489Y-3514428D01*
X64254066Y-3488560D01*
X64237429Y-3186265D01*
X64237429Y-3186262D01*
X64237265Y-3183288D01*
X64179392Y-2856735D01*
X64172241Y-2833270D01*
X64127525Y-2686555D01*
X64082706Y-2539500D01*
X64076188Y-2524755D01*
X63949817Y-2238911D01*
X63949816Y-2238908D01*
X63948609Y-2236179D01*
X63779043Y-1951164D01*
X63777223Y-1948805D01*
X63777219Y-1948799D01*
X63578283Y-1690943D01*
X63576464Y-1688585D01*
X63343807Y-1452244D01*
X63317409Y-1431208D01*
X63086776Y-1247426D01*
X63084442Y-1245566D01*
X62980238Y-1181334D01*
X62804664Y-1073109D01*
X62804659Y-1073106D01*
X62802126Y-1071545D01*
X62791296Y-1066552D01*
X62683267Y-1016750D01*
X62500949Y-932700D01*
X62498105Y-931784D01*
X62498102Y-931783D01*
X62400991Y-900511D01*
X62185272Y-831043D01*
X62153506Y-824897D01*
X61862584Y-768611D01*
X61862581Y-768611D01*
X61859668Y-768047D01*
X61856706Y-767837D01*
X61856704Y-767837D01*
X61787208Y-762917D01*
X61597721Y-749500D01*
X61416614Y-749500D01*
X61415160Y-749588D01*
X61415148Y-749588D01*
X61171925Y-764251D01*
X61171921Y-764252D01*
X61168960Y-764430D01*
X60842715Y-824013D01*
X60839868Y-824897D01*
X60528837Y-921475D01*
X60528833Y-921477D01*
X60525991Y-922359D01*
X60523272Y-923578D01*
X60523267Y-923580D01*
X60226095Y-1056822D01*
X60226089Y-1056825D01*
X60223375Y-1058042D01*
X60220828Y-1059576D01*
X60220825Y-1059577D01*
X59945248Y-1225488D01*
X59939252Y-1229098D01*
X59936900Y-1230932D01*
X59936896Y-1230935D01*
X59680097Y-1431208D01*
X59680092Y-1431212D01*
X59677737Y-1433049D01*
X59442618Y-1666940D01*
X59353406Y-1780105D01*
X59239149Y-1925038D01*
X59239144Y-1925045D01*
X59237301Y-1927383D01*
X59235753Y-1929925D01*
X59235751Y-1929927D01*
X59221248Y-1953734D01*
X59064760Y-2210607D01*
X59063526Y-2213321D01*
X58936411Y-2492896D01*
X58927494Y-2512507D01*
X58827491Y-2828712D01*
X58826940Y-2831642D01*
X58769040Y-3139546D01*
X58766201Y-3154641D01*
X58744511Y-3485572D01*
X26253902Y-3485572D01*
X26237429Y-3186265D01*
X26237429Y-3186262D01*
X26237265Y-3183288D01*
X26179392Y-2856735D01*
X26172241Y-2833270D01*
X26127525Y-2686555D01*
X26082706Y-2539500D01*
X26076188Y-2524755D01*
X25949817Y-2238911D01*
X25949816Y-2238908D01*
X25948609Y-2236179D01*
X25779043Y-1951164D01*
X25777223Y-1948805D01*
X25777219Y-1948799D01*
X25578283Y-1690943D01*
X25576464Y-1688585D01*
X25343807Y-1452244D01*
X25317409Y-1431208D01*
X25086776Y-1247426D01*
X25084442Y-1245566D01*
X24980238Y-1181334D01*
X24804664Y-1073109D01*
X24804659Y-1073106D01*
X24802126Y-1071545D01*
X24791296Y-1066552D01*
X24683267Y-1016750D01*
X24500949Y-932700D01*
X24498105Y-931784D01*
X24498102Y-931783D01*
X24400991Y-900511D01*
X24185272Y-831043D01*
X24153506Y-824897D01*
X23862584Y-768611D01*
X23862581Y-768611D01*
X23859668Y-768047D01*
X23856706Y-767837D01*
X23856704Y-767837D01*
X23787208Y-762917D01*
X23597721Y-749500D01*
X23416614Y-749500D01*
X23415160Y-749588D01*
X23415148Y-749588D01*
X23171925Y-764251D01*
X23171921Y-764252D01*
X23168960Y-764430D01*
X22842715Y-824013D01*
X22839868Y-824897D01*
X22528837Y-921475D01*
X22528833Y-921477D01*
X22525991Y-922359D01*
X22523272Y-923578D01*
X22523267Y-923580D01*
X22226095Y-1056822D01*
X22226089Y-1056825D01*
X22223375Y-1058042D01*
X22220828Y-1059576D01*
X22220825Y-1059577D01*
X21945248Y-1225488D01*
X21939252Y-1229098D01*
X21936900Y-1230932D01*
X21936896Y-1230935D01*
X21680097Y-1431208D01*
X21680092Y-1431212D01*
X21677737Y-1433049D01*
X21442618Y-1666940D01*
X21353406Y-1780105D01*
X21239149Y-1925038D01*
X21239144Y-1925045D01*
X21237301Y-1927383D01*
X21235753Y-1929925D01*
X21235751Y-1929927D01*
X21221248Y-1953734D01*
X21064760Y-2210607D01*
X21063526Y-2213321D01*
X20936411Y-2492896D01*
X20927494Y-2512507D01*
X20827491Y-2828712D01*
X20826940Y-2831642D01*
X20769040Y-3139546D01*
X20766201Y-3154641D01*
X20744511Y-3485572D01*
X13756501Y-3485572D01*
X13760439Y-3472850D01*
X13809432Y-3436199D01*
X13820752Y-3433081D01*
X13827202Y-3431710D01*
X14033304Y-3369876D01*
X14040852Y-3366918D01*
X14234087Y-3272253D01*
X14241046Y-3268104D01*
X14416231Y-3143148D01*
X14422412Y-3137924D01*
X14574831Y-2986035D01*
X14580088Y-2979858D01*
X14705651Y-2805119D01*
X14709823Y-2798176D01*
X14805164Y-2605268D01*
X14808144Y-2597744D01*
X14870701Y-2391843D01*
X14872410Y-2383938D01*
X14874304Y-2369547D01*
X14871873Y-2356431D01*
X14870571Y-2355195D01*
X14865290Y-2354000D01*
X13385000Y-2354000D01*
X13326809Y-2335093D01*
X13290845Y-2285593D01*
X13286000Y-2255000D01*
X13286000Y-1830320D01*
X13794000Y-1830320D01*
X13798122Y-1843005D01*
X13802243Y-1846000D01*
X14860779Y-1846000D01*
X14872730Y-1842117D01*
X14873058Y-1832462D01*
X14830946Y-1664809D01*
X14828333Y-1657133D01*
X14742534Y-1459807D01*
X14738701Y-1452660D01*
X14621826Y-1271997D01*
X14616880Y-1265575D01*
X14472065Y-1106426D01*
X14466139Y-1100899D01*
X14297269Y-967534D01*
X14290525Y-963054D01*
X14102141Y-859060D01*
X14094749Y-855738D01*
X13891920Y-783912D01*
X13884081Y-781841D01*
X13809436Y-768545D01*
X13796226Y-770378D01*
X13795805Y-770782D01*
X13794000Y-777996D01*
X13794000Y-1830320D01*
X13286000Y-1830320D01*
X13286000Y-780667D01*
X13281878Y-767982D01*
X13280877Y-767254D01*
X13274549Y-766739D01*
X13228220Y-773829D01*
X13220348Y-775705D01*
X13015807Y-842558D01*
X13008350Y-845693D01*
X12817479Y-945054D01*
X12810627Y-949369D01*
X12638544Y-1078573D01*
X12632491Y-1083947D01*
X12483830Y-1239513D01*
X12478727Y-1245814D01*
X12357466Y-1423575D01*
X12353468Y-1430613D01*
X12262871Y-1625790D01*
X12260073Y-1633394D01*
X12206095Y-1828031D01*
X12172325Y-1879052D01*
X12115014Y-1900480D01*
X12056054Y-1884129D01*
X12017965Y-1836244D01*
X12015921Y-1830188D01*
X11977333Y-1702380D01*
X11975935Y-1697749D01*
X11879218Y-1515849D01*
X11749011Y-1356200D01*
X11647227Y-1271997D01*
X11594002Y-1227965D01*
X11594000Y-1227964D01*
X11590275Y-1224882D01*
X11409055Y-1126897D01*
X11325069Y-1100899D01*
X11216875Y-1067407D01*
X11216871Y-1067406D01*
X11212254Y-1065977D01*
X11207446Y-1065472D01*
X11207443Y-1065471D01*
X11012185Y-1044949D01*
X11012183Y-1044949D01*
X11007369Y-1044443D01*
X10951800Y-1049500D01*
X10807022Y-1062675D01*
X10807017Y-1062676D01*
X10802203Y-1063114D01*
X10604572Y-1121280D01*
X10600288Y-1123519D01*
X10600287Y-1123520D01*
X10589428Y-1129197D01*
X10422002Y-1216726D01*
X10402506Y-1232401D01*
X10265220Y-1342781D01*
X10265217Y-1342783D01*
X10261447Y-1345815D01*
X10258333Y-1349526D01*
X10258332Y-1349527D01*
X10170362Y-1454366D01*
X10129024Y-1503630D01*
X10126689Y-1507878D01*
X10126688Y-1507879D01*
X10119955Y-1520126D01*
X10029776Y-1684162D01*
X9967484Y-1880532D01*
X9966944Y-1885344D01*
X9966944Y-1885345D01*
X9959827Y-1948799D01*
X9944520Y-2085262D01*
X9510500Y-2085262D01*
X9510500Y-1230252D01*
X9498867Y-1171769D01*
X9454552Y-1105448D01*
X9388231Y-1061133D01*
X9378668Y-1059231D01*
X9378666Y-1059230D01*
X9355995Y-1054721D01*
X9329748Y-1049500D01*
X7590252Y-1049500D01*
X7564005Y-1054721D01*
X7541334Y-1059230D01*
X7541332Y-1059231D01*
X7531769Y-1061133D01*
X7465448Y-1105448D01*
X7421133Y-1171769D01*
X7409500Y-1230252D01*
X7409500Y-2969748D01*
X6199421Y-2969748D01*
X6179392Y-2856735D01*
X6172241Y-2833270D01*
X6127525Y-2686555D01*
X6082706Y-2539500D01*
X6076188Y-2524755D01*
X5949817Y-2238911D01*
X5949816Y-2238908D01*
X5948609Y-2236179D01*
X5779043Y-1951164D01*
X5777223Y-1948805D01*
X5777219Y-1948799D01*
X5578283Y-1690943D01*
X5576464Y-1688585D01*
X5343807Y-1452244D01*
X5317409Y-1431208D01*
X5086776Y-1247426D01*
X5084442Y-1245566D01*
X4980238Y-1181334D01*
X4804664Y-1073109D01*
X4804659Y-1073106D01*
X4802126Y-1071545D01*
X4791296Y-1066552D01*
X4683267Y-1016750D01*
X4500949Y-932700D01*
X4498105Y-931784D01*
X4498102Y-931783D01*
X4400991Y-900511D01*
X4185272Y-831043D01*
X4153506Y-824897D01*
X3862584Y-768611D01*
X3862581Y-768611D01*
X3859668Y-768047D01*
X3856706Y-767837D01*
X3856704Y-767837D01*
X3787208Y-762917D01*
X3597721Y-749500D01*
X3416614Y-749500D01*
X3415160Y-749588D01*
X3415148Y-749588D01*
X3171925Y-764251D01*
X3171921Y-764252D01*
X3168960Y-764430D01*
X2842715Y-824013D01*
X2839868Y-824897D01*
X2528837Y-921475D01*
X2528833Y-921477D01*
X2525991Y-922359D01*
X2523272Y-923578D01*
X2523267Y-923580D01*
X2226095Y-1056822D01*
X2226089Y-1056825D01*
X2223375Y-1058042D01*
X2220828Y-1059576D01*
X2220825Y-1059577D01*
X1945248Y-1225488D01*
X1939252Y-1229098D01*
X1936900Y-1230932D01*
X1936896Y-1230935D01*
X1680097Y-1431208D01*
X1680092Y-1431212D01*
X1677737Y-1433049D01*
X1442618Y-1666940D01*
X1353406Y-1780105D01*
X1239149Y-1925038D01*
X1239144Y-1925045D01*
X1237301Y-1927383D01*
X1235753Y-1929925D01*
X1235751Y-1929927D01*
X1221248Y-1953734D01*
X1064760Y-2210607D01*
X1063526Y-2213321D01*
X936411Y-2492896D01*
X927494Y-2512507D01*
X827491Y-2828712D01*
X826940Y-2831642D01*
X769040Y-3139546D01*
X766201Y-3154641D01*
X744511Y-3485572D01*
X200500Y-3485572D01*
X200500Y-3034281D01*
X203057Y-3011926D01*
X203141Y-3011565D01*
X205655Y-3000718D01*
X205656Y-3000000D01*
X204413Y-2994549D01*
X203791Y-2988995D01*
X204076Y-2988963D01*
X202302Y-2967915D01*
X202472Y-2964890D01*
X217792Y-2692101D01*
X219034Y-2681074D01*
X221766Y-2664998D01*
X269757Y-2382539D01*
X272227Y-2371715D01*
X318642Y-2210607D01*
X356062Y-2080721D01*
X359727Y-2070246D01*
X430046Y-1900480D01*
X475614Y-1790470D01*
X480428Y-1780474D01*
X626910Y-1515437D01*
X632806Y-1506052D01*
X808054Y-1259063D01*
X814967Y-1250395D01*
X1016757Y-1024593D01*
X1024593Y-1016757D01*
X1250395Y-814967D01*
X1259063Y-808054D01*
X1506052Y-632806D01*
X1515437Y-626910D01*
X1780480Y-480425D01*
X1790470Y-475614D01*
X2070249Y-359726D01*
X2080721Y-356062D01*
X2371715Y-272227D01*
X2382539Y-269757D01*
X2467698Y-255288D01*
X2681078Y-219034D01*
X2692102Y-217792D01*
X2967654Y-202316D01*
X2977626Y-203166D01*
X2977626Y-203138D01*
X2988777Y-203158D01*
X2999641Y-205656D01*
X3011641Y-202941D01*
X3033488Y-200500D01*
X61965983Y-200500D01*
X61988169Y-203018D01*
G37*
G04 #@! TD.AperFunction*
G04 #@! TD*
M02*
