G04 #@! TF.GenerationSoftware,KiCad,Pcbnew,(6.0.9)*
G04 #@! TF.CreationDate,2024-03-03T17:49:26-08:00*
G04 #@! TF.ProjectId,RPI5_CFE,52504935-5f43-4464-952e-6b696361645f,rev?*
G04 #@! TF.SameCoordinates,Original*
G04 #@! TF.FileFunction,Legend,Bot*
G04 #@! TF.FilePolarity,Positive*
%FSLAX46Y46*%
G04 Gerber Fmt 4.6, Leading zero omitted, Abs format (unit mm)*
G04 Created by KiCad (PCBNEW (6.0.9)) date 2024-03-03 17:49:26*
%MOMM*%
%LPD*%
G01*
G04 APERTURE LIST*
%ADD10C,0.200000*%
%ADD11C,0.120000*%
G04 APERTURE END LIST*
D10*
X45300000Y-8738095D02*
X45252380Y-8642857D01*
X45252380Y-8500000D01*
X45300000Y-8357142D01*
X45395238Y-8261904D01*
X45490476Y-8214285D01*
X45680952Y-8166666D01*
X45823809Y-8166666D01*
X46014285Y-8214285D01*
X46109523Y-8261904D01*
X46204761Y-8357142D01*
X46252380Y-8500000D01*
X46252380Y-8595238D01*
X46204761Y-8738095D01*
X46157142Y-8785714D01*
X45823809Y-8785714D01*
X45823809Y-8595238D01*
X46252380Y-9214285D02*
X45252380Y-9214285D01*
X46252380Y-9785714D01*
X45252380Y-9785714D01*
X46252380Y-10261904D02*
X45252380Y-10261904D01*
X45252380Y-10500000D01*
X45300000Y-10642857D01*
X45395238Y-10738095D01*
X45490476Y-10785714D01*
X45680952Y-10833333D01*
X45823809Y-10833333D01*
X46014285Y-10785714D01*
X46109523Y-10738095D01*
X46204761Y-10642857D01*
X46252380Y-10500000D01*
X46252380Y-10261904D01*
X62760476Y-31192142D02*
X62808095Y-31239761D01*
X62950952Y-31287380D01*
X63046190Y-31287380D01*
X63189047Y-31239761D01*
X63284285Y-31144523D01*
X63331904Y-31049285D01*
X63379523Y-30858809D01*
X63379523Y-30715952D01*
X63331904Y-30525476D01*
X63284285Y-30430238D01*
X63189047Y-30335000D01*
X63046190Y-30287380D01*
X62950952Y-30287380D01*
X62808095Y-30335000D01*
X62760476Y-30382619D01*
X61998571Y-30763571D02*
X62331904Y-30763571D01*
X62331904Y-31287380D02*
X62331904Y-30287380D01*
X61855714Y-30287380D01*
X61474761Y-30763571D02*
X61141428Y-30763571D01*
X60998571Y-31287380D02*
X61474761Y-31287380D01*
X61474761Y-30287380D01*
X60998571Y-30287380D01*
X60665238Y-31287380D02*
X60141428Y-30620714D01*
X60665238Y-30620714D02*
X60141428Y-31287380D01*
X59760476Y-30620714D02*
X59760476Y-31620714D01*
X59760476Y-30668333D02*
X59665238Y-30620714D01*
X59474761Y-30620714D01*
X59379523Y-30668333D01*
X59331904Y-30715952D01*
X59284285Y-30811190D01*
X59284285Y-31096904D01*
X59331904Y-31192142D01*
X59379523Y-31239761D01*
X59474761Y-31287380D01*
X59665238Y-31287380D01*
X59760476Y-31239761D01*
X58855714Y-31287380D02*
X58855714Y-30620714D01*
X58855714Y-30811190D02*
X58808095Y-30715952D01*
X58760476Y-30668333D01*
X58665238Y-30620714D01*
X58570000Y-30620714D01*
X57855714Y-31239761D02*
X57950952Y-31287380D01*
X58141428Y-31287380D01*
X58236666Y-31239761D01*
X58284285Y-31144523D01*
X58284285Y-30763571D01*
X58236666Y-30668333D01*
X58141428Y-30620714D01*
X57950952Y-30620714D01*
X57855714Y-30668333D01*
X57808095Y-30763571D01*
X57808095Y-30858809D01*
X58284285Y-30954047D01*
X57427142Y-31239761D02*
X57331904Y-31287380D01*
X57141428Y-31287380D01*
X57046190Y-31239761D01*
X56998571Y-31144523D01*
X56998571Y-31096904D01*
X57046190Y-31001666D01*
X57141428Y-30954047D01*
X57284285Y-30954047D01*
X57379523Y-30906428D01*
X57427142Y-30811190D01*
X57427142Y-30763571D01*
X57379523Y-30668333D01*
X57284285Y-30620714D01*
X57141428Y-30620714D01*
X57046190Y-30668333D01*
X56617619Y-31239761D02*
X56522380Y-31287380D01*
X56331904Y-31287380D01*
X56236666Y-31239761D01*
X56189047Y-31144523D01*
X56189047Y-31096904D01*
X56236666Y-31001666D01*
X56331904Y-30954047D01*
X56474761Y-30954047D01*
X56570000Y-30906428D01*
X56617619Y-30811190D01*
X56617619Y-30763571D01*
X56570000Y-30668333D01*
X56474761Y-30620714D01*
X56331904Y-30620714D01*
X56236666Y-30668333D01*
X54427142Y-31192142D02*
X54474761Y-31239761D01*
X54617619Y-31287380D01*
X54712857Y-31287380D01*
X54855714Y-31239761D01*
X54950952Y-31144523D01*
X54998571Y-31049285D01*
X55046190Y-30858809D01*
X55046190Y-30715952D01*
X54998571Y-30525476D01*
X54950952Y-30430238D01*
X54855714Y-30335000D01*
X54712857Y-30287380D01*
X54617619Y-30287380D01*
X54474761Y-30335000D01*
X54427142Y-30382619D01*
X53570000Y-31287380D02*
X53570000Y-30763571D01*
X53617619Y-30668333D01*
X53712857Y-30620714D01*
X53903333Y-30620714D01*
X53998571Y-30668333D01*
X53570000Y-31239761D02*
X53665238Y-31287380D01*
X53903333Y-31287380D01*
X53998571Y-31239761D01*
X54046190Y-31144523D01*
X54046190Y-31049285D01*
X53998571Y-30954047D01*
X53903333Y-30906428D01*
X53665238Y-30906428D01*
X53570000Y-30858809D01*
X53093809Y-31287380D02*
X53093809Y-30620714D01*
X53093809Y-30811190D02*
X53046190Y-30715952D01*
X52998571Y-30668333D01*
X52903333Y-30620714D01*
X52808095Y-30620714D01*
X52046190Y-31287380D02*
X52046190Y-30287380D01*
X52046190Y-31239761D02*
X52141428Y-31287380D01*
X52331904Y-31287380D01*
X52427142Y-31239761D01*
X52474761Y-31192142D01*
X52522380Y-31096904D01*
X52522380Y-30811190D01*
X52474761Y-30715952D01*
X52427142Y-30668333D01*
X52331904Y-30620714D01*
X52141428Y-30620714D01*
X52046190Y-30668333D01*
X50379523Y-31287380D02*
X50379523Y-30763571D01*
X50427142Y-30668333D01*
X50522380Y-30620714D01*
X50712857Y-30620714D01*
X50808095Y-30668333D01*
X50379523Y-31239761D02*
X50474761Y-31287380D01*
X50712857Y-31287380D01*
X50808095Y-31239761D01*
X50855714Y-31144523D01*
X50855714Y-31049285D01*
X50808095Y-30954047D01*
X50712857Y-30906428D01*
X50474761Y-30906428D01*
X50379523Y-30858809D01*
X49474761Y-31287380D02*
X49474761Y-30287380D01*
X49474761Y-31239761D02*
X49570000Y-31287380D01*
X49760476Y-31287380D01*
X49855714Y-31239761D01*
X49903333Y-31192142D01*
X49950952Y-31096904D01*
X49950952Y-30811190D01*
X49903333Y-30715952D01*
X49855714Y-30668333D01*
X49760476Y-30620714D01*
X49570000Y-30620714D01*
X49474761Y-30668333D01*
X48570000Y-31287380D02*
X48570000Y-30763571D01*
X48617619Y-30668333D01*
X48712857Y-30620714D01*
X48903333Y-30620714D01*
X48998571Y-30668333D01*
X48570000Y-31239761D02*
X48665238Y-31287380D01*
X48903333Y-31287380D01*
X48998571Y-31239761D01*
X49046190Y-31144523D01*
X49046190Y-31049285D01*
X48998571Y-30954047D01*
X48903333Y-30906428D01*
X48665238Y-30906428D01*
X48570000Y-30858809D01*
X48093809Y-30620714D02*
X48093809Y-31620714D01*
X48093809Y-30668333D02*
X47998571Y-30620714D01*
X47808095Y-30620714D01*
X47712857Y-30668333D01*
X47665238Y-30715952D01*
X47617619Y-30811190D01*
X47617619Y-31096904D01*
X47665238Y-31192142D01*
X47712857Y-31239761D01*
X47808095Y-31287380D01*
X47998571Y-31287380D01*
X48093809Y-31239761D01*
X47331904Y-30620714D02*
X46950952Y-30620714D01*
X47189047Y-30287380D02*
X47189047Y-31144523D01*
X47141428Y-31239761D01*
X47046190Y-31287380D01*
X46950952Y-31287380D01*
X46474761Y-31287380D02*
X46570000Y-31239761D01*
X46617619Y-31192142D01*
X46665238Y-31096904D01*
X46665238Y-30811190D01*
X46617619Y-30715952D01*
X46570000Y-30668333D01*
X46474761Y-30620714D01*
X46331904Y-30620714D01*
X46236666Y-30668333D01*
X46189047Y-30715952D01*
X46141428Y-30811190D01*
X46141428Y-31096904D01*
X46189047Y-31192142D01*
X46236666Y-31239761D01*
X46331904Y-31287380D01*
X46474761Y-31287380D01*
X45712857Y-31287380D02*
X45712857Y-30620714D01*
X45712857Y-30811190D02*
X45665238Y-30715952D01*
X45617619Y-30668333D01*
X45522380Y-30620714D01*
X45427142Y-30620714D01*
X63474761Y-32230714D02*
X63093809Y-32230714D01*
X63331904Y-32897380D02*
X63331904Y-32040238D01*
X63284285Y-31945000D01*
X63189047Y-31897380D01*
X63093809Y-31897380D01*
X62617619Y-32897380D02*
X62712857Y-32849761D01*
X62760476Y-32802142D01*
X62808095Y-32706904D01*
X62808095Y-32421190D01*
X62760476Y-32325952D01*
X62712857Y-32278333D01*
X62617619Y-32230714D01*
X62474761Y-32230714D01*
X62379523Y-32278333D01*
X62331904Y-32325952D01*
X62284285Y-32421190D01*
X62284285Y-32706904D01*
X62331904Y-32802142D01*
X62379523Y-32849761D01*
X62474761Y-32897380D01*
X62617619Y-32897380D01*
X61855714Y-32897380D02*
X61855714Y-32230714D01*
X61855714Y-32421190D02*
X61808095Y-32325952D01*
X61760476Y-32278333D01*
X61665238Y-32230714D01*
X61570000Y-32230714D01*
X59903333Y-32897380D02*
X60236666Y-32421190D01*
X60474761Y-32897380D02*
X60474761Y-31897380D01*
X60093809Y-31897380D01*
X59998571Y-31945000D01*
X59950952Y-31992619D01*
X59903333Y-32087857D01*
X59903333Y-32230714D01*
X59950952Y-32325952D01*
X59998571Y-32373571D01*
X60093809Y-32421190D01*
X60474761Y-32421190D01*
X59474761Y-32897380D02*
X59474761Y-31897380D01*
X59093809Y-31897380D01*
X58998571Y-31945000D01*
X58950952Y-31992619D01*
X58903333Y-32087857D01*
X58903333Y-32230714D01*
X58950952Y-32325952D01*
X58998571Y-32373571D01*
X59093809Y-32421190D01*
X59474761Y-32421190D01*
X58474761Y-32897380D02*
X58474761Y-31897380D01*
X57522380Y-31897380D02*
X57998571Y-31897380D01*
X58046190Y-32373571D01*
X57998571Y-32325952D01*
X57903333Y-32278333D01*
X57665238Y-32278333D01*
X57570000Y-32325952D01*
X57522380Y-32373571D01*
X57474761Y-32468809D01*
X57474761Y-32706904D01*
X57522380Y-32802142D01*
X57570000Y-32849761D01*
X57665238Y-32897380D01*
X57903333Y-32897380D01*
X57998571Y-32849761D01*
X58046190Y-32802142D01*
X56427142Y-31897380D02*
X56093809Y-32897380D01*
X55760476Y-31897380D01*
X54903333Y-32897380D02*
X55474761Y-32897380D01*
X55189047Y-32897380D02*
X55189047Y-31897380D01*
X55284285Y-32040238D01*
X55379523Y-32135476D01*
X55474761Y-32183095D01*
X54474761Y-32802142D02*
X54427142Y-32849761D01*
X54474761Y-32897380D01*
X54522380Y-32849761D01*
X54474761Y-32802142D01*
X54474761Y-32897380D01*
X53474761Y-32897380D02*
X54046190Y-32897380D01*
X53760476Y-32897380D02*
X53760476Y-31897380D01*
X53855714Y-32040238D01*
X53950952Y-32135476D01*
X54046190Y-32183095D01*
X63331904Y-34507380D02*
X63331904Y-33507380D01*
X63093809Y-33507380D01*
X62950952Y-33555000D01*
X62855714Y-33650238D01*
X62808095Y-33745476D01*
X62760476Y-33935952D01*
X62760476Y-34078809D01*
X62808095Y-34269285D01*
X62855714Y-34364523D01*
X62950952Y-34459761D01*
X63093809Y-34507380D01*
X63331904Y-34507380D01*
X61950952Y-34459761D02*
X62046190Y-34507380D01*
X62236666Y-34507380D01*
X62331904Y-34459761D01*
X62379523Y-34364523D01*
X62379523Y-33983571D01*
X62331904Y-33888333D01*
X62236666Y-33840714D01*
X62046190Y-33840714D01*
X61950952Y-33888333D01*
X61903333Y-33983571D01*
X61903333Y-34078809D01*
X62379523Y-34174047D01*
X61522380Y-34459761D02*
X61427142Y-34507380D01*
X61236666Y-34507380D01*
X61141428Y-34459761D01*
X61093809Y-34364523D01*
X61093809Y-34316904D01*
X61141428Y-34221666D01*
X61236666Y-34174047D01*
X61379523Y-34174047D01*
X61474761Y-34126428D01*
X61522380Y-34031190D01*
X61522380Y-33983571D01*
X61474761Y-33888333D01*
X61379523Y-33840714D01*
X61236666Y-33840714D01*
X61141428Y-33888333D01*
X60665238Y-34507380D02*
X60665238Y-33840714D01*
X60665238Y-33507380D02*
X60712857Y-33555000D01*
X60665238Y-33602619D01*
X60617619Y-33555000D01*
X60665238Y-33507380D01*
X60665238Y-33602619D01*
X59760476Y-33840714D02*
X59760476Y-34650238D01*
X59808095Y-34745476D01*
X59855714Y-34793095D01*
X59950952Y-34840714D01*
X60093809Y-34840714D01*
X60189047Y-34793095D01*
X59760476Y-34459761D02*
X59855714Y-34507380D01*
X60046190Y-34507380D01*
X60141428Y-34459761D01*
X60189047Y-34412142D01*
X60236666Y-34316904D01*
X60236666Y-34031190D01*
X60189047Y-33935952D01*
X60141428Y-33888333D01*
X60046190Y-33840714D01*
X59855714Y-33840714D01*
X59760476Y-33888333D01*
X59284285Y-33840714D02*
X59284285Y-34507380D01*
X59284285Y-33935952D02*
X59236666Y-33888333D01*
X59141428Y-33840714D01*
X58998571Y-33840714D01*
X58903333Y-33888333D01*
X58855714Y-33983571D01*
X58855714Y-34507380D01*
X57998571Y-34459761D02*
X58093809Y-34507380D01*
X58284285Y-34507380D01*
X58379523Y-34459761D01*
X58427142Y-34364523D01*
X58427142Y-33983571D01*
X58379523Y-33888333D01*
X58284285Y-33840714D01*
X58093809Y-33840714D01*
X57998571Y-33888333D01*
X57950952Y-33983571D01*
X57950952Y-34078809D01*
X58427142Y-34174047D01*
X57093809Y-34507380D02*
X57093809Y-33507380D01*
X57093809Y-34459761D02*
X57189047Y-34507380D01*
X57379523Y-34507380D01*
X57474761Y-34459761D01*
X57522380Y-34412142D01*
X57570000Y-34316904D01*
X57570000Y-34031190D01*
X57522380Y-33935952D01*
X57474761Y-33888333D01*
X57379523Y-33840714D01*
X57189047Y-33840714D01*
X57093809Y-33888333D01*
X55855714Y-34507380D02*
X55855714Y-33507380D01*
X55855714Y-33888333D02*
X55760476Y-33840714D01*
X55570000Y-33840714D01*
X55474761Y-33888333D01*
X55427142Y-33935952D01*
X55379523Y-34031190D01*
X55379523Y-34316904D01*
X55427142Y-34412142D01*
X55474761Y-34459761D01*
X55570000Y-34507380D01*
X55760476Y-34507380D01*
X55855714Y-34459761D01*
X55046190Y-33840714D02*
X54808095Y-34507380D01*
X54570000Y-33840714D02*
X54808095Y-34507380D01*
X54903333Y-34745476D01*
X54950952Y-34793095D01*
X55046190Y-34840714D01*
X53522380Y-33507380D02*
X53284285Y-34507380D01*
X53093809Y-33793095D01*
X52903333Y-34507380D01*
X52665238Y-33507380D01*
X52284285Y-34507380D02*
X52284285Y-33840714D01*
X52284285Y-33507380D02*
X52331904Y-33555000D01*
X52284285Y-33602619D01*
X52236666Y-33555000D01*
X52284285Y-33507380D01*
X52284285Y-33602619D01*
X51665238Y-34507380D02*
X51760476Y-34459761D01*
X51808095Y-34364523D01*
X51808095Y-33507380D01*
X51141428Y-34507380D02*
X51236666Y-34459761D01*
X51284285Y-34364523D01*
X51284285Y-33507380D01*
X50093809Y-33507380D02*
X49855714Y-34507380D01*
X49665238Y-33793095D01*
X49474761Y-34507380D01*
X49236666Y-33507380D01*
X48855714Y-34507380D02*
X48855714Y-33507380D01*
X48427142Y-34507380D02*
X48427142Y-33983571D01*
X48474761Y-33888333D01*
X48570000Y-33840714D01*
X48712857Y-33840714D01*
X48808095Y-33888333D01*
X48855714Y-33935952D01*
X47522380Y-34507380D02*
X47522380Y-33983571D01*
X47570000Y-33888333D01*
X47665238Y-33840714D01*
X47855714Y-33840714D01*
X47950952Y-33888333D01*
X47522380Y-34459761D02*
X47617619Y-34507380D01*
X47855714Y-34507380D01*
X47950952Y-34459761D01*
X47998571Y-34364523D01*
X47998571Y-34269285D01*
X47950952Y-34174047D01*
X47855714Y-34126428D01*
X47617619Y-34126428D01*
X47522380Y-34078809D01*
X47046190Y-33840714D02*
X47046190Y-34507380D01*
X47046190Y-33935952D02*
X46998571Y-33888333D01*
X46903333Y-33840714D01*
X46760476Y-33840714D01*
X46665238Y-33888333D01*
X46617619Y-33983571D01*
X46617619Y-34507380D01*
X45712857Y-33840714D02*
X45712857Y-34650238D01*
X45760476Y-34745476D01*
X45808095Y-34793095D01*
X45903333Y-34840714D01*
X46046190Y-34840714D01*
X46141428Y-34793095D01*
X45712857Y-34459761D02*
X45808095Y-34507380D01*
X45998571Y-34507380D01*
X46093809Y-34459761D01*
X46141428Y-34412142D01*
X46189047Y-34316904D01*
X46189047Y-34031190D01*
X46141428Y-33935952D01*
X46093809Y-33888333D01*
X45998571Y-33840714D01*
X45808095Y-33840714D01*
X45712857Y-33888333D01*
X63379523Y-35212619D02*
X63331904Y-35165000D01*
X63236666Y-35117380D01*
X62998571Y-35117380D01*
X62903333Y-35165000D01*
X62855714Y-35212619D01*
X62808095Y-35307857D01*
X62808095Y-35403095D01*
X62855714Y-35545952D01*
X63427142Y-36117380D01*
X62808095Y-36117380D01*
X62189047Y-35117380D02*
X62093809Y-35117380D01*
X61998571Y-35165000D01*
X61950952Y-35212619D01*
X61903333Y-35307857D01*
X61855714Y-35498333D01*
X61855714Y-35736428D01*
X61903333Y-35926904D01*
X61950952Y-36022142D01*
X61998571Y-36069761D01*
X62093809Y-36117380D01*
X62189047Y-36117380D01*
X62284285Y-36069761D01*
X62331904Y-36022142D01*
X62379523Y-35926904D01*
X62427142Y-35736428D01*
X62427142Y-35498333D01*
X62379523Y-35307857D01*
X62331904Y-35212619D01*
X62284285Y-35165000D01*
X62189047Y-35117380D01*
X61474761Y-35212619D02*
X61427142Y-35165000D01*
X61331904Y-35117380D01*
X61093809Y-35117380D01*
X60998571Y-35165000D01*
X60950952Y-35212619D01*
X60903333Y-35307857D01*
X60903333Y-35403095D01*
X60950952Y-35545952D01*
X61522380Y-36117380D01*
X60903333Y-36117380D01*
X60570000Y-35117380D02*
X59950952Y-35117380D01*
X60284285Y-35498333D01*
X60141428Y-35498333D01*
X60046190Y-35545952D01*
X59998571Y-35593571D01*
X59950952Y-35688809D01*
X59950952Y-35926904D01*
X59998571Y-36022142D01*
X60046190Y-36069761D01*
X60141428Y-36117380D01*
X60427142Y-36117380D01*
X60522380Y-36069761D01*
X60570000Y-36022142D01*
X58808095Y-35069761D02*
X59665238Y-36355476D01*
X57950952Y-36117380D02*
X58522380Y-36117380D01*
X58236666Y-36117380D02*
X58236666Y-35117380D01*
X58331904Y-35260238D01*
X58427142Y-35355476D01*
X58522380Y-35403095D01*
X57570000Y-35212619D02*
X57522380Y-35165000D01*
X57427142Y-35117380D01*
X57189047Y-35117380D01*
X57093809Y-35165000D01*
X57046190Y-35212619D01*
X56998571Y-35307857D01*
X56998571Y-35403095D01*
X57046190Y-35545952D01*
X57617619Y-36117380D01*
X56998571Y-36117380D01*
X55855714Y-35069761D02*
X56712857Y-36355476D01*
X55570000Y-35212619D02*
X55522380Y-35165000D01*
X55427142Y-35117380D01*
X55189047Y-35117380D01*
X55093809Y-35165000D01*
X55046190Y-35212619D01*
X54998571Y-35307857D01*
X54998571Y-35403095D01*
X55046190Y-35545952D01*
X55617619Y-36117380D01*
X54998571Y-36117380D01*
X54617619Y-35212619D02*
X54570000Y-35165000D01*
X54474761Y-35117380D01*
X54236666Y-35117380D01*
X54141428Y-35165000D01*
X54093809Y-35212619D01*
X54046190Y-35307857D01*
X54046190Y-35403095D01*
X54093809Y-35545952D01*
X54665238Y-36117380D01*
X54046190Y-36117380D01*
X48204761Y-7595237D02*
X48252380Y-7738094D01*
X48252380Y-7976189D01*
X48204761Y-8071427D01*
X48157142Y-8119046D01*
X48061904Y-8166665D01*
X47966666Y-8166665D01*
X47871428Y-8119046D01*
X47823809Y-8071427D01*
X47776190Y-7976189D01*
X47728571Y-7785713D01*
X47680952Y-7690475D01*
X47633333Y-7642856D01*
X47538095Y-7595237D01*
X47442857Y-7595237D01*
X47347619Y-7642856D01*
X47300000Y-7690475D01*
X47252380Y-7785713D01*
X47252380Y-8023808D01*
X47300000Y-8166665D01*
X47252380Y-8499999D02*
X48252380Y-8738094D01*
X47538095Y-8928570D01*
X48252380Y-9119046D01*
X47252380Y-9357142D01*
X48252380Y-9738094D02*
X47252380Y-9738094D01*
X47252380Y-10404761D02*
X47252380Y-10595237D01*
X47300000Y-10690475D01*
X47395238Y-10785713D01*
X47585714Y-10833332D01*
X47919047Y-10833332D01*
X48109523Y-10785713D01*
X48204761Y-10690475D01*
X48252380Y-10595237D01*
X48252380Y-10404761D01*
X48204761Y-10309523D01*
X48109523Y-10214285D01*
X47919047Y-10166665D01*
X47585714Y-10166665D01*
X47395238Y-10214285D01*
X47300000Y-10309523D01*
X47252380Y-10404761D01*
X50452380Y-11861904D02*
X49452380Y-11861904D01*
X49452380Y-12100000D01*
X49500000Y-12242857D01*
X49595238Y-12338095D01*
X49690476Y-12385714D01*
X49880952Y-12433333D01*
X50023809Y-12433333D01*
X50214285Y-12385714D01*
X50309523Y-12338095D01*
X50404761Y-12242857D01*
X50452380Y-12100000D01*
X50452380Y-11861904D01*
X49928571Y-12861904D02*
X49928571Y-13195238D01*
X50452380Y-13338095D02*
X50452380Y-12861904D01*
X49452380Y-12861904D01*
X49452380Y-13338095D01*
X49928571Y-14100000D02*
X49976190Y-14242857D01*
X50023809Y-14290476D01*
X50119047Y-14338095D01*
X50261904Y-14338095D01*
X50357142Y-14290476D01*
X50404761Y-14242857D01*
X50452380Y-14147619D01*
X50452380Y-13766666D01*
X49452380Y-13766666D01*
X49452380Y-14100000D01*
X49500000Y-14195238D01*
X49547619Y-14242857D01*
X49642857Y-14290476D01*
X49738095Y-14290476D01*
X49833333Y-14242857D01*
X49880952Y-14195238D01*
X49928571Y-14100000D01*
X49928571Y-13766666D01*
X49452380Y-14766666D02*
X50261904Y-14766666D01*
X50357142Y-14814285D01*
X50404761Y-14861904D01*
X50452380Y-14957142D01*
X50452380Y-15147619D01*
X50404761Y-15242857D01*
X50357142Y-15290476D01*
X50261904Y-15338095D01*
X49452380Y-15338095D01*
X49500000Y-16338095D02*
X49452380Y-16242857D01*
X49452380Y-16100000D01*
X49500000Y-15957142D01*
X49595238Y-15861904D01*
X49690476Y-15814285D01*
X49880952Y-15766666D01*
X50023809Y-15766666D01*
X50214285Y-15814285D01*
X50309523Y-15861904D01*
X50404761Y-15957142D01*
X50452380Y-16100000D01*
X50452380Y-16195238D01*
X50404761Y-16338095D01*
X50357142Y-16385714D01*
X50023809Y-16385714D01*
X50023809Y-16195238D01*
X44352380Y-9119046D02*
X43876190Y-8785713D01*
X44352380Y-8547618D02*
X43352380Y-8547618D01*
X43352380Y-8928570D01*
X43400000Y-9023808D01*
X43447619Y-9071427D01*
X43542857Y-9119046D01*
X43685714Y-9119046D01*
X43780952Y-9071427D01*
X43828571Y-9023808D01*
X43876190Y-8928570D01*
X43876190Y-8547618D01*
X44304761Y-9499999D02*
X44352380Y-9642856D01*
X44352380Y-9880951D01*
X44304761Y-9976189D01*
X44257142Y-10023808D01*
X44161904Y-10071427D01*
X44066666Y-10071427D01*
X43971428Y-10023808D01*
X43923809Y-9976189D01*
X43876190Y-9880951D01*
X43828571Y-9690475D01*
X43780952Y-9595237D01*
X43733333Y-9547618D01*
X43638095Y-9499999D01*
X43542857Y-9499999D01*
X43447619Y-9547618D01*
X43400000Y-9595237D01*
X43352380Y-9690475D01*
X43352380Y-9928570D01*
X43400000Y-10071427D01*
X43352380Y-10357142D02*
X43352380Y-10928570D01*
X44352380Y-10642856D02*
X43352380Y-10642856D01*
X45147380Y-14761904D02*
X45147380Y-15380952D01*
X45528333Y-15047619D01*
X45528333Y-15190476D01*
X45575952Y-15285714D01*
X45623571Y-15333333D01*
X45718809Y-15380952D01*
X45956904Y-15380952D01*
X46052142Y-15333333D01*
X46099761Y-15285714D01*
X46147380Y-15190476D01*
X46147380Y-14904761D01*
X46099761Y-14809523D01*
X46052142Y-14761904D01*
X45147380Y-15666666D02*
X46147380Y-16000000D01*
X45147380Y-16333333D01*
X45147380Y-16571428D02*
X45147380Y-17190476D01*
X45528333Y-16857142D01*
X45528333Y-17000000D01*
X45575952Y-17095238D01*
X45623571Y-17142857D01*
X45718809Y-17190476D01*
X45956904Y-17190476D01*
X46052142Y-17142857D01*
X46099761Y-17095238D01*
X46147380Y-17000000D01*
X46147380Y-16714285D01*
X46099761Y-16619047D01*
X46052142Y-16571428D01*
X47709761Y-14833333D02*
X47757380Y-14976190D01*
X47757380Y-15214285D01*
X47709761Y-15309523D01*
X47662142Y-15357142D01*
X47566904Y-15404761D01*
X47471666Y-15404761D01*
X47376428Y-15357142D01*
X47328809Y-15309523D01*
X47281190Y-15214285D01*
X47233571Y-15023809D01*
X47185952Y-14928571D01*
X47138333Y-14880952D01*
X47043095Y-14833333D01*
X46947857Y-14833333D01*
X46852619Y-14880952D01*
X46805000Y-14928571D01*
X46757380Y-15023809D01*
X46757380Y-15261904D01*
X46805000Y-15404761D01*
X46757380Y-15690476D02*
X46757380Y-16261904D01*
X47757380Y-15976190D02*
X46757380Y-15976190D01*
X47233571Y-16928571D02*
X47281190Y-17071428D01*
X47328809Y-17119047D01*
X47424047Y-17166666D01*
X47566904Y-17166666D01*
X47662142Y-17119047D01*
X47709761Y-17071428D01*
X47757380Y-16976190D01*
X47757380Y-16595238D01*
X46757380Y-16595238D01*
X46757380Y-16928571D01*
X46805000Y-17023809D01*
X46852619Y-17071428D01*
X46947857Y-17119047D01*
X47043095Y-17119047D01*
X47138333Y-17071428D01*
X47185952Y-17023809D01*
X47233571Y-16928571D01*
X47233571Y-16595238D01*
D11*
G04 #@! TO.C,TP2*
X44500000Y-16000000D02*
G75*
G03*
X44500000Y-16000000I-700000J0D01*
G01*
G04 #@! TO.C,TP3*
X48500000Y-12100000D02*
G75*
G03*
X48500000Y-12100000I-700000J0D01*
G01*
G04 #@! TO.C,TP4*
X44500000Y-12100000D02*
G75*
G03*
X44500000Y-12100000I-700000J0D01*
G01*
G04 #@! TO.C,TP5*
X46500000Y-12100000D02*
G75*
G03*
X46500000Y-12100000I-700000J0D01*
G01*
G04 #@! TD*
M02*
